<svg width="294" height="137" viewBox="0 0 294 137" fill="none" xmlns="http://www.w3.org/2000/svg">
<path d="M169.541 77.4562C168.354 76.468 167.4 75.231 166.745 73.8328C166.09 72.4347 165.75 70.9096 165.75 69.3656V68.1562H147V69.3656C147 70.9096 146.66 72.4347 146.005 73.8328C145.35 75.231 144.396 76.468 143.209 77.4562L150.125 84.375H162.625L169.541 77.4562Z" fill="#F1B79D"/>
<path d="M169.542 77.4563C168.425 76.5233 167.513 75.3684 166.865 74.0647C166.217 72.761 165.847 71.337 165.778 69.8828C165.573 70.0078 165.372 70.1375 165.153 70.2547C162.845 71.5445 160.281 72.3075 157.643 72.489C155.006 72.6706 152.361 72.2661 149.898 71.3047C149.8 71.2658 149.694 71.2489 149.588 71.2551C149.482 71.2613 149.379 71.2904 149.285 71.3405C149.192 71.3906 149.11 71.4605 149.046 71.5452C148.983 71.6299 148.938 71.7275 148.916 71.8313L148.897 71.9063C148.514 73.31 147.841 74.618 146.923 75.7464C146.004 76.8747 144.859 77.7983 143.562 78.4578L142 79.2875L146.475 85.5453L150.586 86.2297C150.586 86.2297 153.719 85.175 155.556 84.375H162.625L169.542 77.4563Z" fill="#F1B79D"/>
<path d="M179.813 22.7715V26.4512C179.814 32.6133 179.449 38.77 178.719 44.8887H134.031C133.301 38.77 132.936 32.6133 132.938 26.4512V25.034L179.813 22.7715Z" fill="#4C4C4C"/>
<path d="M137.625 43.75C135.967 43.75 134.378 44.4085 133.206 45.5806C132.033 46.7527 131.375 48.3424 131.375 50C131.375 51.6576 132.033 53.2473 133.206 54.4194C134.378 55.5915 135.967 56.25 137.625 56.25H138.2M175.125 43.75C176.783 43.75 178.372 44.4085 179.544 45.5806C180.717 46.7527 181.375 48.3424 181.375 50C181.375 51.6576 180.717 53.2473 179.544 54.4194C178.372 55.5915 176.783 56.25 175.125 56.25H174.55" fill="#F1B79D"/>
<path d="M172.937 30.0004L173.031 30.1895C174.408 32.9447 175.125 35.9827 175.125 39.0629V51.5629C175.125 55.018 174.201 58.4102 172.449 61.388C170.696 64.3658 168.18 66.8209 165.159 68.4988C162.473 69.9939 159.45 70.7796 156.375 70.7816C153.301 70.7815 150.278 69.998 147.591 68.5051C144.569 66.8266 142.052 64.3706 140.3 61.3915C138.548 58.4125 137.624 55.019 137.625 51.5629V39.0629C137.625 35.9803 138.343 32.9401 139.722 30.1832L140.066 29.4941" fill="#F1B79D"/>
<path d="M150.716 68.4984C152.943 69.7238 155.404 70.4655 157.938 70.675C160.471 70.4655 162.932 69.7238 165.159 68.4984C168.18 66.8205 170.696 64.3654 172.449 61.3876C174.201 58.4098 175.125 55.0176 175.125 51.5625V39.0625C175.125 35.9799 174.407 32.9397 173.028 30.1828L172.937 30L143.17 29.5469L142.85 30.1891C141.471 32.9438 140.752 35.9818 140.75 39.0625V51.5625C140.75 55.0176 141.674 58.4098 143.426 61.3876C145.179 64.3654 147.695 66.8205 150.716 68.4984Z" fill="#F1B79D"/>
<path d="M156.375 65.625C153.889 65.6225 151.506 64.634 149.749 62.8764C147.991 61.1188 147.002 58.7356 147 56.25H150.125C150.125 57.9076 150.783 59.4973 151.956 60.6694C153.128 61.8415 154.717 62.5 156.375 62.5C158.033 62.5 159.622 61.8415 160.794 60.6694C161.967 59.4973 162.625 57.9076 162.625 56.25H165.75C165.748 58.7356 164.759 61.1188 163.001 62.8764C161.244 64.634 158.861 65.6225 156.375 65.625Z" fill="#F1B79D"/>
<path d="M135.417 13.3156C134.189 14.017 133.169 15.0306 132.459 16.2536C131.749 17.4766 131.375 18.8656 131.375 20.2797C131.375 21.7104 131.757 23.115 132.483 24.3481C133.209 25.5811 134.251 26.5976 135.502 27.2922C142.018 30.9126 149.35 32.8125 156.805 32.8125H161.5C165.322 32.8122 169.092 31.922 172.511 30.2125C175.239 28.8486 177.522 26.7346 179.091 24.1187C180.585 21.6268 181.374 18.7759 181.375 15.8703V12.5L179.325 14.55C178.984 14.8909 178.58 15.1613 178.134 15.3457C177.689 15.5302 177.212 15.6251 176.73 15.625C174.647 15.6254 172.592 15.1402 170.73 14.2078C164.372 11.0297 157.362 9.37505 150.255 9.375C145.05 9.37475 139.936 10.7331 135.417 13.3156Z" fill="#212121"/>
<path d="M176.73 15.625C174.647 15.6254 172.592 15.1402 170.73 14.2078C164.372 11.0297 157.362 9.37505 150.255 9.375C145.089 9.3764 140.012 10.7157 135.517 13.2625C135.003 14.1822 134.676 15.1943 134.554 16.2408C134.432 17.2873 134.518 18.3475 134.807 19.3607C135.096 20.3739 135.582 21.32 136.237 22.1449C136.893 22.9697 137.705 23.6569 138.627 24.1672C145.143 27.7876 152.475 29.6875 159.93 29.6875H164.625C168.447 29.6872 172.217 28.797 175.636 27.0875C176.51 26.6393 177.341 26.111 178.117 25.5094C178.466 25.0636 178.791 24.6 179.091 24.1203C180.586 21.6281 181.375 18.7765 181.375 15.8703V12.5L179.325 14.55C178.984 14.8909 178.58 15.1613 178.134 15.3457C177.689 15.5302 177.212 15.6251 176.73 15.625Z" fill="#383838"/>
<path d="M192.312 98.4375V92.9937C192.31 89.4773 190.913 86.1055 188.427 83.6187C186.874 82.0669 184.961 80.9244 182.858 80.2938L170.438 76.5625L169.709 77.2891C167.958 79.0405 165.88 80.4297 163.592 81.3774C161.304 82.3252 158.851 82.8128 156.375 82.8125C153.898 82.8125 151.445 82.3246 149.157 81.3766C146.868 80.4286 144.789 79.0391 143.038 77.2875L142.312 76.5625L122 81.25V98.5078L192.312 98.4375Z" fill="#FA8C16"/>
<path d="M192.312 92.9937C192.312 90.1412 191.392 87.3647 189.69 85.0761C187.987 82.7876 185.592 81.1089 182.859 80.2891L170.438 76.5625L169.709 77.2891C167.958 79.0404 165.879 80.4297 163.591 81.3775C161.303 82.3253 158.85 82.8132 156.373 82.8132C153.897 82.8132 151.444 82.3253 149.156 81.3775C146.868 80.4297 144.789 79.0404 143.038 77.2891L142.313 76.5625L127.047 80.0844C127.858 83.9645 129.981 87.4467 133.058 89.9453C136.136 92.4439 139.98 93.8062 143.944 93.8031L192.312 93.75V92.9937Z" fill="#FA8C16"/>
<path d="M142.739 45.7816L143.341 44.9801L147.277 43.0129C150.812 41.2457 154.039 38.9194 156.833 36.1238C157.346 35.612 157.701 34.9625 157.854 34.2536C158.007 33.5448 157.951 32.8069 157.695 32.1288C157.438 31.4507 156.99 30.8614 156.406 30.4319C155.821 30.0025 155.125 29.7511 154.402 29.7082H153.933C151.071 29.7424 148.28 30.6035 145.897 32.1879L144.803 32.9207L140.663 33.9551L140.452 29.4941H140.072L139.728 30.1832C138.347 32.9395 137.627 35.9798 137.625 39.0629V50.5191C139.598 49.2563 141.329 47.6521 142.739 45.7816Z" fill="#B77968"/>
<path d="M140.452 29.6465V29.498H140.106C140.217 29.5418 140.333 29.5996 140.452 29.6465Z" fill="#212121"/>
<path d="M146.855 31.6484C150.116 32.4147 153.455 32.8053 156.805 32.8125H157.875C157.727 31.9813 157.304 31.2238 156.674 30.6614C156.045 30.099 155.244 29.7643 154.402 29.7109H153.933C151.448 29.7536 149.015 30.4199 146.855 31.6484Z" fill="#111111"/>
<path d="M122 81.25L117.312 79.6875L131.375 51.5625C135.418 50.5511 138.99 48.1786 141.491 44.8438L142.312 43.75L146.577 41.6172C149.962 39.9253 153.052 37.6982 155.728 35.0219C156.142 34.6074 156.375 34.0454 156.375 33.4594C156.375 33.1693 156.318 32.882 156.207 32.6139C156.096 32.3458 155.933 32.1023 155.728 31.8971C155.523 31.692 155.279 31.5292 155.011 31.4182C154.743 31.3072 154.456 31.25 154.166 31.25C151.531 31.2501 148.955 32.0297 146.763 33.4906L145.438 34.375L139.188 35.9375L137.767 6.12658C137.728 5.31538 137.377 4.55063 136.788 3.99153C136.199 3.43242 135.417 3.12205 134.605 3.12502H134.527C134.113 3.12482 133.703 3.20614 133.321 3.36435C132.938 3.52256 132.591 3.75456 132.298 4.04708C132.005 4.33961 131.773 4.68693 131.615 5.06921C131.457 5.45148 131.375 5.86123 131.375 6.27502V21.875L126.927 23.4375C125.49 23.4405 124.091 23.8945 122.927 24.7356C121.762 25.5767 120.892 26.7623 120.438 28.125H118.875C117.632 28.125 116.44 28.6189 115.56 29.498C114.681 30.377 114.188 31.5693 114.188 32.8125C114.187 34.8907 114.392 36.9638 114.8 39.0016L117.312 51.5625L102.781 77.7188C102.064 79.0093 101.688 80.4612 101.688 81.9375C101.687 83.5976 102.163 85.223 103.057 86.6214C103.952 88.0198 105.229 89.1326 106.736 89.8281L122 96.875V81.25Z" fill="#F1B79D"/>
<path d="M152.603 32.8125C149.969 32.8123 147.393 33.592 145.202 35.0531L143.875 35.9375L137.625 37.5L136.205 7.68908C136.165 6.87788 135.814 6.11313 135.225 5.55403C134.636 4.99492 133.854 4.68455 133.042 4.68752H132.964C132.515 4.68863 132.071 4.7867 131.662 4.97502C131.475 5.38294 131.377 5.82616 131.375 6.27502V21.875L126.927 23.4375C125.49 23.4405 124.091 23.8945 122.927 24.7356C121.762 25.5767 120.892 26.7623 120.437 28.125H118.875C117.632 28.125 116.439 28.6189 115.56 29.498C114.681 30.377 114.187 31.5693 114.187 32.8125C114.187 34.8907 114.392 36.9638 114.8 39.0016L117.312 51.5625L102.781 77.7188C102.2 78.7642 101.842 79.9181 101.727 81.1085C101.613 82.2989 101.746 83.5001 102.117 84.6368C102.488 85.7736 103.09 86.8216 103.885 87.7151C104.679 88.6086 105.65 89.3285 106.736 89.8297L122 96.875V81.25L117.312 79.6875L131.375 51.5625C135.419 50.5514 138.991 48.1789 141.491 44.8438L142.312 43.75L146.577 41.6172C149.406 40.1941 152.029 38.395 154.377 36.2688C154.647 35.9071 154.8 35.4705 154.812 35.0188C154.812 34.4334 154.578 33.8722 154.164 33.4585C153.75 33.0449 153.189 32.8125 152.603 32.8125Z" fill="#F1B79D"/>
<path d="M121.531 38.9211C121.38 39.0131 121.207 39.0623 121.03 39.0633C120.732 39.0636 120.441 38.9698 120.199 38.7953C119.957 38.6208 119.777 38.3745 119.683 38.0914L118.8 35.4445L115.831 36.432L116.714 39.0883C117.017 39.9918 117.596 40.7772 118.37 41.3335C119.143 41.8898 120.072 42.1888 121.025 42.1883C121.839 42.185 122.633 41.9374 123.305 41.4773C123.758 41.7831 124.268 41.9963 124.804 42.1049C125.341 42.2135 125.893 42.2153 126.43 42.1103C126.967 42.0052 127.478 41.7953 127.934 41.4926C128.389 41.1899 128.781 40.8003 129.086 40.3461C129.567 40.5315 130.078 40.6263 130.594 40.6258C131.621 40.6241 132.613 40.2482 133.383 39.5684C134.154 38.8885 134.65 37.9513 134.78 36.932L135.8 28.7617C135.974 27.3622 136.062 25.9533 136.063 24.543H132.938C132.936 25.8237 132.857 27.1032 132.7 28.3742L131.678 36.5445C131.644 36.8076 131.514 37.0491 131.315 37.224C131.115 37.3989 130.859 37.4954 130.594 37.4954C130.328 37.4954 130.072 37.3989 129.873 37.224C129.673 37.0491 129.544 36.8076 129.509 36.5445L128.488 28.3742C128.33 27.1032 128.251 25.8237 128.25 24.543V22.9805L126.927 23.4492C126.318 23.4525 125.712 23.5371 125.125 23.7008V24.543C125.126 25.9533 125.214 27.3622 125.388 28.7617L126.408 36.932C126.457 37.2837 126.551 37.6277 126.688 37.9555V37.993C126.688 38.2547 126.593 38.5075 126.42 38.7038C126.247 38.9 126.008 39.026 125.748 39.0579C125.488 39.0899 125.226 39.0255 125.01 38.8771C124.795 38.7287 124.641 38.5064 124.578 38.2523L121.953 27.7477L118.922 28.5039L121.531 38.9211Z" fill="#F1B79D"/>
<path d="M189.533 82.5102C187.796 80.7767 185.658 79.4992 183.308 78.7915L170.888 75.0649C170.664 74.9995 170.429 74.9854 170.199 75.0235C169.969 75.0617 169.751 75.1511 169.561 75.2852C168.116 73.655 167.316 71.5528 167.313 69.3743V69.0165C171.336 66.3471 174.312 62.3695 175.739 57.7571C177.258 57.6478 178.711 57.0937 179.917 56.164C181.123 55.2343 182.029 53.9701 182.521 52.5291C183.013 51.088 183.07 49.534 182.685 48.0607C182.3 46.5875 181.489 45.2602 180.355 44.2446C181.03 38.3373 181.371 32.3966 181.375 26.4508V23.0758C182.399 20.8111 182.932 18.3551 182.938 15.8696V12.4993C182.937 12.1903 182.846 11.8883 182.674 11.6314C182.502 11.3745 182.258 11.1743 181.973 11.056C181.687 10.9378 181.373 10.9068 181.07 10.9671C180.767 11.0274 180.489 11.1761 180.27 11.3946L178.22 13.4446C177.825 13.8383 177.29 14.0601 176.731 14.0618C174.891 14.0601 173.077 13.6322 171.43 12.8118C164.853 9.53265 157.605 7.82128 150.256 7.81177C146.585 7.81833 142.944 8.47263 139.5 9.74458L139.325 6.05083C139.24 4.82813 138.688 3.68513 137.782 2.85959C136.876 2.03405 135.687 1.58954 134.461 1.61852C133.236 1.6475 132.069 2.14775 131.203 3.01519C130.337 3.88264 129.839 5.0505 129.813 6.27583V20.3118H129.355C128.799 20.3101 128.249 20.4188 127.735 20.6315C127.222 20.8442 126.756 21.1567 126.364 21.5508C126.252 21.6736 126.148 21.803 126.052 21.9383C124.642 22.0849 123.292 22.5857 122.128 23.394C120.964 24.2024 120.024 25.2921 119.394 26.5618H118.875C117.217 26.5618 115.628 27.2203 114.456 28.3924C113.284 29.5645 112.625 31.1542 112.625 32.8118C112.626 34.9928 112.842 37.1683 113.269 39.3071L115.667 51.3055L101.416 76.9602C100.73 78.1935 100.307 79.555 100.172 80.9596C100.037 82.3641 100.193 83.7814 100.631 85.1227C101.069 86.464 101.779 87.7005 102.717 88.7547C103.655 89.8089 104.8 90.6581 106.081 91.2493L120.438 97.8743V98.5071H123.563V82.4993L141.822 78.2805L141.934 78.393C145.765 82.2222 150.959 84.3733 156.375 84.3733C161.791 84.3733 166.985 82.2222 170.816 78.393L170.884 78.3258L182.409 81.7836C184.264 82.3415 185.953 83.3496 187.323 84.718C188.414 85.8023 189.278 87.0922 189.866 88.5129C190.454 89.9336 190.755 91.4569 190.75 92.9946V98.4368H193.875V92.9946C193.881 91.0466 193.5 89.1169 192.755 87.3172C192.009 85.5175 190.914 83.8836 189.533 82.5102ZM173.563 51.5618C173.562 54.738 172.712 57.8562 171.101 60.5937C169.49 63.3312 167.177 65.5886 164.402 67.1321C161.938 68.4717 159.178 69.1735 156.374 69.1735C153.57 69.1735 150.81 68.4717 148.347 67.1321C145.571 65.5891 143.257 63.3319 141.647 60.5942C140.037 57.8565 139.187 54.738 139.188 51.5618V49.4071C140.523 48.3569 141.717 47.1379 142.739 45.7805L143.341 44.979L147.277 43.0118C150.812 41.2445 154.039 38.9183 156.833 36.1227C157.31 35.6383 157.647 35.0343 157.809 34.3743H161.502C165.173 34.3678 168.802 33.5934 172.156 32.1008C173.074 34.3075 173.551 36.672 173.563 39.0618V51.5618ZM136.27 54.4758C135.188 54.1506 134.259 53.444 133.658 52.4868C134.483 52.1863 135.286 51.8314 136.064 51.4243V51.5618C136.065 52.5367 136.134 53.5105 136.27 54.4758ZM176.484 54.4618C176.62 53.501 176.688 52.532 176.688 51.5618V45.5993C177.618 45.9235 178.421 46.5344 178.982 47.344C179.543 48.1535 179.834 49.1202 179.811 50.105C179.788 51.0898 179.454 52.0421 178.856 52.8249C178.258 53.6077 177.429 54.1808 176.484 54.4618ZM176.688 42.343V39.0618C176.673 36.1516 176.067 33.2748 174.908 30.6055C176.128 29.8097 177.244 28.8649 178.23 27.793C178.188 32.7165 177.903 37.6665 177.388 42.5649C177.156 42.4883 176.931 42.3946 176.688 42.343ZM150.256 10.9368C157.12 10.9451 163.889 12.5431 170.031 15.6055C172.113 16.6425 174.406 17.1837 176.731 17.1868C177.839 17.1847 178.917 16.8331 179.813 16.1821C179.756 18.8162 178.981 21.3848 177.572 23.611C176.162 25.8372 174.172 27.6365 171.816 28.8149C168.612 30.4117 165.081 31.2449 161.502 31.2493H157.206C156.859 30.767 156.402 30.374 155.874 30.1024C155.345 29.8308 154.76 29.6884 154.166 29.6868C152.486 29.6959 150.82 29.9908 149.239 30.5586C146.194 30.0008 143.219 29.1101 140.369 27.9024L139.656 13.029C143.021 11.6534 146.621 10.9429 150.256 10.9368ZM144.998 32.7899L144.797 32.9243L140.656 33.9586L140.533 31.3493C141.995 31.9065 143.486 32.3874 144.998 32.7899ZM128.573 23.7602C128.676 23.6571 128.797 23.5755 128.932 23.5199C129.066 23.4644 129.21 23.4361 129.355 23.4368H131.833C131.978 23.4368 132.122 23.4653 132.256 23.5209C132.39 23.5764 132.511 23.6577 132.614 23.7603C132.717 23.8629 132.798 23.9847 132.853 24.1187C132.909 24.2527 132.938 24.3964 132.938 24.5415C132.936 25.8222 132.857 27.1017 132.7 28.3727L131.678 36.543C131.643 36.8061 131.514 37.0476 131.315 37.2225C131.115 37.3974 130.859 37.4939 130.594 37.4939C130.328 37.4939 130.072 37.3974 129.873 37.2225C129.673 37.0476 129.544 36.8061 129.509 36.543L128.488 28.3727C128.33 27.1017 128.251 25.8222 128.25 24.5415C128.249 24.3963 128.278 24.2524 128.333 24.1183C128.389 23.9842 128.47 23.8624 128.573 23.7602ZM125.15 25.3227C125.171 26.4718 125.251 27.6191 125.388 28.7602L126.408 36.9305C126.457 37.2822 126.551 37.6262 126.688 37.954V37.9915C126.688 38.2532 126.593 38.506 126.42 38.7023C126.247 38.8985 126.008 39.0245 125.748 39.0564C125.488 39.0884 125.226 39.024 125.01 38.8756C124.795 38.7271 124.641 38.5049 124.578 38.2508L122.078 28.2508C122.359 27.5762 122.777 26.9673 123.306 26.4629C123.835 25.9586 124.463 25.5697 125.15 25.3211V25.3227ZM118.875 29.6868H119.219L121.531 38.9196C121.38 39.0116 121.207 39.0608 121.03 39.0618C120.732 39.0621 120.441 38.9683 120.199 38.7938C119.957 38.6193 119.777 38.373 119.683 38.0899L118.8 35.443L115.988 36.3805C115.837 35.1967 115.758 34.005 115.75 32.8118C115.75 31.983 116.079 31.1881 116.665 30.6021C117.251 30.016 118.046 29.6868 118.875 29.6868ZM107.391 88.4102C106.5 87.9991 105.704 87.4087 105.052 86.6759C104.4 85.943 103.907 85.0836 103.602 84.1513C103.298 83.2189 103.189 82.2338 103.283 81.2575C103.377 80.2812 103.671 79.3348 104.147 78.4774L118.678 52.3196C118.858 51.9957 118.916 51.6186 118.844 51.2555L116.333 38.6946C116.244 38.2446 116.2 37.7868 116.13 37.3336L116.713 39.0805C117.014 39.9854 117.593 40.7724 118.367 41.3299C119.141 41.8874 120.071 42.1872 121.025 42.1868C121.839 42.1835 122.633 41.9358 123.305 41.4758C123.758 41.7815 124.268 41.9948 124.804 42.1034C125.341 42.212 125.893 42.2138 126.43 42.1088C126.967 42.0037 127.478 41.7938 127.934 41.4911C128.389 41.1884 128.781 40.7988 129.086 40.3446C129.567 40.53 130.078 40.6248 130.594 40.6243C131.621 40.6226 132.613 40.2467 133.383 39.5668C134.154 38.887 134.65 37.9498 134.78 36.9305L135.8 28.7602C135.974 27.3607 136.062 25.9518 136.063 24.5415C136.066 23.6136 135.761 22.7109 135.195 21.9755C134.629 21.2401 133.835 20.7136 132.938 20.479V6.27583C132.948 5.85538 133.12 5.45516 133.418 5.15813C133.716 4.8611 134.116 4.69003 134.537 4.68039C134.957 4.67075 135.366 4.82326 135.677 5.10633C135.988 5.3894 136.178 5.78131 136.208 6.20083L137.625 36.0118C137.636 36.2425 137.698 36.468 137.807 36.6718C137.916 36.8757 138.068 37.0529 138.254 37.1906C138.439 37.3284 138.653 37.4234 138.88 37.4686C139.106 37.5139 139.34 37.5083 139.564 37.4524L145.814 35.8899C145.988 35.8466 146.154 35.7737 146.303 35.6743L147.628 34.7915C149.563 33.4982 151.838 32.8092 154.166 32.8118C154.294 32.8116 154.419 32.8495 154.525 32.9205C154.632 32.9916 154.715 33.0927 154.764 33.211C154.813 33.3293 154.826 33.4595 154.801 33.5851C154.776 33.7107 154.714 33.826 154.623 33.9165C152.065 36.4748 149.11 38.6032 145.873 40.2196L141.609 42.3508C141.392 42.4591 141.204 42.6164 141.058 42.8102L140.236 43.904C137.948 46.9478 134.685 49.1143 130.992 50.0415C130.773 50.0959 130.569 50.1972 130.392 50.3382C130.216 50.4793 130.073 50.6568 129.972 50.8586L115.909 78.9837C115.808 79.1842 115.751 79.4043 115.743 79.6288C115.735 79.8534 115.775 80.0771 115.86 80.2847C115.946 80.4923 116.076 80.679 116.241 80.832C116.405 80.985 116.601 81.1006 116.814 81.1712L120.438 82.3743V94.4321L107.391 88.4102ZM122.078 79.6274L119.519 78.7743L131.498 54.8118C132.163 55.6589 132.997 56.3585 133.947 56.8661C134.897 57.3737 135.942 57.6782 137.016 57.7602C138.443 62.3685 141.418 66.3424 145.438 69.0102V69.3743C145.437 71.5544 144.637 73.6588 143.191 75.2899C143.013 75.1678 142.812 75.0831 142.601 75.0412C142.39 74.9993 142.172 75.001 141.961 75.0461L122.078 79.6274ZM145.495 77.3946C147.177 75.5171 148.227 73.1587 148.497 70.6524C150.976 71.7633 153.663 72.3375 156.38 72.3375C159.097 72.3375 161.783 71.7633 164.263 70.6524C164.532 73.1589 165.581 75.5176 167.263 77.3961C164.183 79.89 160.341 81.2508 156.379 81.2508C152.417 81.2508 148.574 79.8885 145.495 77.3946Z" fill="black"/>
<path d="M156.375 62.5C154.717 62.5 153.128 61.8415 151.956 60.6694C150.783 59.4973 150.125 57.9076 150.125 56.25H147C147 58.7364 147.988 61.121 149.746 62.8791C151.504 64.6373 153.889 65.625 156.375 65.625C158.861 65.625 161.246 64.6373 163.004 62.8791C164.762 61.121 165.75 58.7364 165.75 56.25H162.625C162.625 57.9076 161.967 59.4973 160.794 60.6694C159.622 61.8415 158.033 62.5 156.375 62.5Z" fill="black"/>
<path d="M1.6 128.52L3.52 128.04V107.56L1.6 107.08V106.6H18.72V112.36H17.76C17.3547 112.04 17.0027 111.635 16.704 111.144C16.0213 109.992 15.68 108.744 15.68 107.4H8.8V117.48H12.48C12.6293 116.669 12.9067 115.912 13.312 115.208C13.4827 114.888 13.6853 114.579 13.92 114.28H14.88V121.48H13.92C13.6853 121.181 13.4827 120.872 13.312 120.552C12.9067 119.848 12.6293 119.091 12.48 118.28H8.8V128.04L10.72 128.52V129H1.6V128.52ZM24.3313 128.52L26.2513 128.04V107.56L24.3313 107.08V106.6H33.4513V107.08L31.5313 107.56V128.2H38.4113C38.4113 126.856 38.7526 125.608 39.4353 124.456C39.7339 123.965 40.0859 123.56 40.4913 123.24H41.4513V129H24.3313V128.52ZM57.4775 129.48C54.3202 129.48 51.9308 128.744 50.3095 127.272C48.6882 125.779 47.8775 123.688 47.8775 121V107.56L45.9575 107.08V106.6H55.0775V107.08L53.1575 107.56V121C53.1575 123.752 53.5842 125.725 54.4375 126.92C55.2908 128.093 56.5175 128.68 58.1175 128.68C59.0988 128.68 60.0268 128.371 60.9015 127.752C61.7975 127.112 62.5122 126.216 63.0455 125.064C63.6002 123.891 63.8775 122.536 63.8775 121V108.04L61.3175 107.08V106.6H67.3975V107.08L64.8375 108.04V121C64.8375 122.728 64.5175 124.232 63.8775 125.512C63.2375 126.792 62.3628 127.773 61.2535 128.456C60.1442 129.139 58.8855 129.48 57.4775 129.48ZM72.3562 128.52L74.2762 128.04V107.56L72.3562 107.08V106.6H89.4762V112.36H88.5162C88.1109 112.04 87.7589 111.635 87.4602 111.144C86.7776 109.992 86.4362 108.744 86.4362 107.4H79.5562V117.48H83.2362C83.3856 116.669 83.6629 115.912 84.0682 115.208C84.2389 114.888 84.4416 114.579 84.6762 114.28H85.6362V121.48H84.6762C84.4416 121.181 84.2389 120.872 84.0682 120.552C83.6629 119.848 83.3856 119.091 83.2362 118.28H79.5562V128.2H87.0763C87.0763 126.856 87.4176 125.608 88.1003 124.456C88.3989 123.965 88.7509 123.56 89.1562 123.24H90.1162V129H72.3562V128.52ZM99.0613 112.04V127.56L101.621 128.52V129H95.5413V128.52L98.1013 127.56V107.72L95.8613 107.08V106.6H99.2213C100.352 106.6 101.237 106.803 101.877 107.208C102.517 107.613 103.125 108.157 103.701 108.84L113.941 120.84V108.04L111.381 107.08V106.6H117.461V107.08L114.901 108.04V129.48H113.941L99.0613 112.04ZM127.069 128.52L128.989 128.04V107.4H125.309C125.309 108.701 124.957 109.949 124.253 111.144C123.954 111.635 123.613 112.04 123.229 112.36H122.269V106.6H140.989V112.36H140.029C139.623 112.04 139.271 111.635 138.973 111.144C138.29 109.992 137.949 108.744 137.949 107.4H134.269V128.04L136.189 128.52V129H127.069V128.52Z" fill="#11101F"/>
<path d="M158.75 129V128.52L160.67 128.04V107.56L158.75 107.08V106.6H167.87V107.08L165.95 107.56V117.48H172.83V107.56L170.91 107.08V106.6H180.03V107.08L178.11 107.56V128.04L180.03 128.52V129H170.91V128.52L172.83 128.04V118.28H165.95V128.04L167.87 128.52V129H158.75ZM183.21 128.52L185.77 127.56L194.57 106.28H195.53L204.65 128.04L206.25 128.52V129H202.41C201.301 129 200.394 128.755 199.69 128.264C198.986 127.752 198.463 127.091 198.122 126.28L196.49 122.44H188.842L186.73 127.56L189.13 128.52V129H183.21V128.52ZM189.162 121.64H196.17L192.65 113.224L189.162 121.64ZM213.28 112.04V127.56L215.84 128.52V129H209.76V128.52L212.32 127.56V107.72L210.08 107.08V106.6H213.44C214.571 106.6 215.456 106.803 216.096 107.208C216.736 107.613 217.344 108.157 217.92 108.84L228.16 120.84V108.04L225.6 107.08V106.6H231.68V107.08L229.12 108.04V129.48H228.16L213.28 112.04ZM236.975 128.52L238.895 128.04V107.56L236.975 107.08V106.6H245.135C248.954 106.6 251.876 107.581 253.903 109.544C255.951 111.507 256.975 114.259 256.975 117.8C256.975 121.341 255.951 124.093 253.903 126.056C251.876 128.019 248.954 129 245.135 129H236.975V128.52ZM245.135 128.2C247.119 128.2 248.655 127.4 249.743 125.8C250.831 124.179 251.375 121.512 251.375 117.8C251.375 114.088 250.831 111.432 249.743 109.832C248.655 108.211 247.119 107.4 245.135 107.4H244.175V128.2H245.135ZM270.89 129.48C269.375 129.48 267.957 129.139 266.634 128.456C266.037 128.157 265.535 127.805 265.13 127.4C264.831 127.891 264.458 128.328 264.01 128.712C263.626 128.989 263.413 129.139 263.37 129.16H262.57V123.08H263.85C264.17 124.125 264.618 125.064 265.194 125.896C266.495 127.752 268.181 128.68 270.25 128.68C271.466 128.68 272.437 128.317 273.162 127.592C273.887 126.867 274.25 125.896 274.25 124.68C274.25 123.976 274.037 123.347 273.61 122.792C273.205 122.237 272.693 121.747 272.074 121.32C271.455 120.893 270.591 120.36 269.482 119.72C268.074 118.931 266.933 118.216 266.058 117.576C265.183 116.936 264.437 116.136 263.818 115.176C263.199 114.195 262.89 113.043 262.89 111.72C262.89 110.675 263.178 109.736 263.754 108.904C264.351 108.051 265.237 107.379 266.41 106.888C267.583 106.376 269.023 106.12 270.73 106.12C271.967 106.12 273.205 106.472 274.442 107.176C274.911 107.432 275.381 107.773 275.85 108.2C276.213 107.645 276.586 107.208 276.97 106.888C277.354 106.611 277.567 106.461 277.61 106.44H278.41V112.52H277.13C276.853 111.496 276.437 110.568 275.882 109.736C275.37 108.925 274.73 108.253 273.962 107.72C273.215 107.187 272.351 106.92 271.37 106.92C270.538 106.92 269.823 107.251 269.226 107.912C268.629 108.573 268.33 109.416 268.33 110.44C268.33 111.229 268.554 111.944 269.002 112.584C269.471 113.203 270.037 113.747 270.698 114.216C271.381 114.685 272.298 115.251 273.45 115.912C274.794 116.68 275.882 117.363 276.714 117.96C277.546 118.557 278.25 119.304 278.826 120.2C279.402 121.075 279.69 122.088 279.69 123.24C279.69 124.392 279.359 125.448 278.698 126.408C278.037 127.347 277.045 128.093 275.722 128.648C274.399 129.203 272.789 129.48 270.89 129.48Z" fill="#FA8C16"/>
</svg>
