<svg width="300" height="300" viewBox="0 0 300 300" fill="none" xmlns="http://www.w3.org/2000/svg">
<path d="M193.862 212.407C196.346 213.536 202.404 213.391 202.411 213.391C202.418 213.391 201.107 209.253 200.989 209C199.663 206.105 195.437 201.309 192.037 201.764C191.47 201.861 190.93 202.08 190.45 202.409C189.971 202.737 189.563 203.167 189.253 203.671C188.944 204.175 188.739 204.741 188.653 205.332C188.567 205.923 188.602 206.527 188.754 207.104C189.323 209.607 191.752 211.445 193.862 212.407Z" fill="#263238"/>
<path d="M195.958 230.713C198.525 231.104 203.938 229.469 204.368 229.338C205.26 232.565 206.356 235.727 207.651 238.802C208.393 240.596 209.198 242.383 210.024 244.163C209.531 243.44 209.08 242.716 209.011 242.651C206.991 240.22 201.724 236.754 198.546 238.165C198.024 238.414 197.558 238.775 197.179 239.224C196.8 239.673 196.515 240.201 196.345 240.772C196.174 241.343 196.12 241.945 196.187 242.54C196.255 243.134 196.441 243.707 196.735 244.221C197.908 246.449 200.718 247.549 202.98 247.896C205.243 248.244 209.92 246.949 211.155 246.587C211.474 247.267 211.794 247.947 212.12 248.627C213.688 251.876 215.263 255.139 216.714 258.344C217.227 259.48 217.692 260.616 218.164 261.752C217.727 261.086 217.352 260.529 217.283 260.449C215.263 258.018 209.996 254.553 206.818 255.964C206.296 256.212 205.831 256.572 205.451 257.02C205.072 257.469 204.788 257.995 204.617 258.566C204.446 259.137 204.392 259.739 204.459 260.332C204.527 260.926 204.713 261.498 205.007 262.012C206.18 264.24 208.99 265.347 211.252 265.687C213.515 266.028 217.748 264.87 219.205 264.443C219.649 265.63 220.1 266.809 220.482 267.974C220.725 268.777 221.016 269.529 221.217 270.347C221.419 271.164 221.648 271.953 221.856 272.742C222.21 274.283 222.584 275.867 222.897 277.372C223.119 278.421 223.313 279.427 223.507 280.44C223.015 279.304 221.995 277.097 221.884 276.924C220.246 274.196 215.541 269.942 212.168 270.832C211.616 270.995 211.103 271.278 210.662 271.662C210.222 272.046 209.864 272.523 209.612 273.06C209.36 273.598 209.219 274.186 209.199 274.784C209.179 275.382 209.281 275.978 209.497 276.533C210.336 278.92 212.966 280.454 215.152 281.156C217.581 281.923 222.945 281.221 223.618 281.156C223.938 282.827 224.236 284.463 224.493 286.004C224.632 286.821 224.757 287.588 224.874 288.355H227.012C226.852 287.472 226.686 286.561 226.505 285.613C226.186 283.913 225.811 282.104 225.409 280.244C227.027 279.571 228.605 278.798 230.135 277.929C231.904 279.926 236.429 282.27 237.019 282.56C236.401 284.137 235.783 285.671 235.187 287.103C235.006 287.537 234.826 287.943 234.652 288.355H236.901L237.067 287.935C237.706 286.336 238.344 284.607 238.996 282.827C239.642 282.972 244.957 284.101 247.435 283.515C249.683 282.987 252.403 281.663 253.41 279.347C253.664 278.811 253.807 278.225 253.83 277.627C253.853 277.03 253.755 276.434 253.542 275.878C253.329 275.323 253.007 274.82 252.595 274.403C252.184 273.986 251.693 273.664 251.154 273.458C247.879 272.308 242.882 276.186 241.05 278.776C240.946 278.928 239.947 280.715 239.343 281.858C239.6 281.134 239.864 280.411 240.121 279.687C240.641 278.24 241.12 276.707 241.647 275.1C241.869 274.312 242.098 273.516 242.341 272.713C242.584 271.91 242.751 271.056 242.959 270.224C243.403 268.27 243.764 266.274 244.083 264.255C245.332 264.725 249.787 266.346 252.091 266.172C254.395 265.999 257.275 265.123 258.607 262.996C258.935 262.505 259.16 261.947 259.268 261.36C259.376 260.772 259.364 260.167 259.233 259.584C259.102 259.002 258.855 258.454 258.508 257.978C258.162 257.501 257.722 257.106 257.219 256.817C254.145 255.168 248.642 258.206 246.456 260.478C246.324 260.616 244.93 262.432 244.18 263.437C244.368 262.222 244.555 261.014 244.701 259.776C245.124 256.202 245.45 252.578 245.79 248.96C245.894 247.853 246.005 246.746 246.116 245.646C246.56 245.82 251.821 247.86 254.402 247.672C256.699 247.498 259.586 246.623 260.911 244.489C261.24 243.998 261.466 243.44 261.575 242.852C261.683 242.264 261.671 241.659 261.54 241.076C261.409 240.493 261.162 239.946 260.815 239.469C260.467 238.992 260.027 238.597 259.523 238.31C256.456 236.66 250.953 239.706 248.767 241.971C248.601 242.145 246.602 244.756 246.123 245.444C246.373 243.013 246.637 240.589 246.998 238.209C247.461 234.995 248.127 231.817 248.989 228.694C249.19 228.781 254.666 230.93 257.317 230.742C259.614 230.568 262.493 229.693 263.826 227.559C264.155 227.068 264.381 226.51 264.489 225.922C264.598 225.334 264.586 224.729 264.455 224.146C264.324 223.563 264.077 223.016 263.729 222.539C263.382 222.062 262.942 221.667 262.438 221.38C259.371 219.73 253.868 222.776 251.682 225.041C251.508 225.222 249.357 228.029 249.003 228.572C249.052 228.391 249.086 228.195 249.142 228.014C250.089 224.908 251.299 221.896 252.757 219.014C253.542 217.415 254.374 215.932 255.221 214.499C256.206 215.013 260.71 217.292 263.111 217.393C265.512 217.495 268.371 216.945 269.919 214.984C270.298 214.536 270.583 214.009 270.755 213.439C270.927 212.868 270.982 212.266 270.917 211.672C270.851 211.078 270.667 210.505 270.375 209.99C270.084 209.475 269.692 209.029 269.225 208.682C266.345 206.693 260.557 209.087 258.122 211.092C257.99 211.2 256.775 212.459 255.908 213.392C256.296 212.756 256.685 212.09 257.074 211.482C258.517 209.218 259.974 207.235 261.279 205.484C262.028 204.5 262.722 203.625 263.361 202.807C264.575 202.807 269.461 202.634 271.598 201.585C273.735 200.536 276.067 198.691 276.574 196.173C276.71 195.592 276.728 194.988 276.626 194.399C276.525 193.811 276.305 193.251 275.983 192.756C275.66 192.262 275.242 191.843 274.754 191.528C274.266 191.213 273.721 191.009 273.153 190.927C269.724 190.544 265.644 195.449 264.388 198.387C264.277 198.64 263 202.815 263.083 202.815H263.16C262.507 203.582 261.82 204.414 261.078 205.34C259.732 207.062 258.233 209.015 256.734 211.258C255.096 213.66 253.592 216.157 252.23 218.739C250.694 221.624 249.407 224.646 248.385 227.768C248.385 227.805 248.385 227.848 248.385 227.884C248.385 226.828 248.385 223.876 248.33 223.652C247.934 220.461 245.374 214.543 241.973 213.892C241.407 213.799 240.828 213.833 240.274 213.989C239.72 214.146 239.205 214.422 238.76 214.8C238.316 215.178 237.953 215.65 237.694 216.184C237.436 216.718 237.289 217.302 237.261 217.9C237.067 220.432 238.823 222.964 240.544 224.571C242.48 226.372 247.858 228.116 248.288 228.253C247.324 231.458 246.564 234.726 246.012 238.035C245.686 239.967 245.408 241.913 245.159 243.874C245.159 242.962 245.159 242.145 245.117 242.036C244.714 238.845 242.154 232.927 238.76 232.269C238.193 232.175 237.613 232.208 237.059 232.364C236.505 232.52 235.988 232.796 235.543 233.174C235.097 233.553 234.734 234.024 234.475 234.559C234.216 235.093 234.069 235.679 234.042 236.277C233.847 238.809 235.61 241.341 237.324 242.948C239.038 244.554 243.625 246.16 244.832 246.565C244.749 247.289 244.652 248.07 244.562 248.822C244.145 252.44 243.75 256.058 243.257 259.574C243.084 260.811 242.869 262.034 242.653 263.249C242.653 262.439 242.653 261.759 242.612 261.65C242.216 258.467 239.656 252.549 236.262 251.89C235.695 251.797 235.115 251.83 234.561 251.986C234.006 252.142 233.49 252.418 233.044 252.796C232.599 253.174 232.235 253.646 231.977 254.18C231.718 254.715 231.57 255.3 231.543 255.898C231.349 258.431 233.105 260.963 234.826 262.569C236.547 264.175 240.683 265.622 242.119 266.107C241.869 267.344 241.619 268.589 241.321 269.783C241.099 270.593 240.939 271.381 240.676 272.185C240.412 272.988 240.183 273.769 239.94 274.55C239.42 276.041 238.892 277.575 238.351 279.015C237.983 280.013 237.615 280.961 237.248 281.909C237.435 280.679 237.747 278.248 237.754 278.045C237.718 275.217 236.984 272.447 235.624 270C235.636 269.683 235.618 269.365 235.568 269.052C235.498 268.458 235.308 267.886 235.011 267.373C234.715 266.861 234.318 266.42 233.846 266.078C233.374 265.737 232.839 265.503 232.275 265.392C231.711 265.281 231.13 265.295 230.572 265.434C227.234 266.36 225.117 272.467 224.958 275.679C224.958 275.867 225.069 277.936 225.166 279.239C224.999 278.479 224.84 277.741 224.659 276.967C224.312 275.426 223.917 273.899 223.5 272.257C223.271 271.476 223.042 270.68 222.807 269.877C222.571 269.073 222.265 268.263 221.995 267.446C221.335 265.564 220.607 263.691 219.781 261.817C221.072 261.498 225.645 260.283 227.477 258.814C229.309 257.345 231.245 254.958 231.224 252.418C231.238 251.822 231.131 251.229 230.91 250.679C230.69 250.128 230.361 249.632 229.945 249.223C229.529 248.813 229.035 248.5 228.495 248.302C227.955 248.105 227.381 248.028 226.811 248.077C223.376 248.468 220.399 254.169 219.774 257.316C219.739 257.512 219.531 259.827 219.441 261.1C218.955 259.979 218.469 258.858 217.935 257.743C216.401 254.517 214.757 251.311 213.119 248.099C212.619 247.115 212.134 246.124 211.641 245.14C212.106 245.031 217.567 243.693 219.621 242.065C221.453 240.618 223.389 238.209 223.369 235.669C223.382 235.073 223.275 234.48 223.055 233.929C222.835 233.379 222.506 232.883 222.089 232.474C221.673 232.064 221.179 231.751 220.639 231.553C220.099 231.356 219.525 231.279 218.955 231.328C215.527 231.719 212.543 237.42 211.918 240.567C211.877 240.806 211.585 244.134 211.551 244.981C210.468 242.81 209.413 240.64 208.456 238.469C207.14 235.523 206.014 232.49 205.083 229.389C205.298 229.338 211.002 227.985 213.112 226.307C214.937 224.86 216.88 222.451 216.859 219.911C216.872 219.315 216.764 218.723 216.544 218.173C216.323 217.623 215.994 217.127 215.578 216.718C215.162 216.309 214.668 215.995 214.129 215.798C213.589 215.6 213.016 215.522 212.446 215.57C209.011 215.954 206.034 221.662 205.409 224.809C205.361 225.055 205.055 228.637 205.041 229.288C204.986 229.107 204.917 228.926 204.861 228.745C204.009 225.612 203.424 222.406 203.112 219.166C202.925 217.379 202.835 215.657 202.786 213.978C203.876 213.841 208.837 213.154 210.891 211.851C212.946 210.549 215.055 208.458 215.291 205.926C215.37 205.333 215.329 204.73 215.169 204.155C215.01 203.58 214.736 203.047 214.365 202.59C213.994 202.133 213.535 201.763 213.018 201.504C212.501 201.245 211.937 201.102 211.363 201.085C207.894 201.085 204.347 206.403 203.397 209.464C203.348 209.63 203.001 211.381 202.765 212.662C202.765 211.902 202.731 211.121 202.731 210.397C202.731 207.677 202.904 205.18 203.064 202.974C203.168 201.722 203.286 200.586 203.404 199.53C204.403 198.806 208.4 195.912 209.649 193.778C210.898 191.644 211.828 188.764 210.933 186.398C210.741 185.834 210.437 185.319 210.041 184.886C209.645 184.453 209.166 184.112 208.635 183.885C208.104 183.657 207.533 183.549 206.959 183.567C206.386 183.585 205.822 183.729 205.305 183.989C202.238 185.646 201.433 192.085 201.94 195.254C201.981 195.529 203.14 199.732 203.196 199.696L203.251 199.653C203.119 200.666 202.987 201.758 202.862 202.952C202.654 205.159 202.432 207.655 202.377 210.39C202.278 213.334 202.345 216.281 202.578 219.217C202.82 222.507 203.345 225.769 204.146 228.962C204.156 229.001 204.167 229.04 204.181 229.078C203.633 228.188 202.037 225.75 201.891 225.576C199.878 223.145 194.604 219.687 191.426 221.09C190.904 221.339 190.438 221.7 190.059 222.149C189.68 222.598 189.395 223.126 189.225 223.697C189.054 224.268 189 224.871 189.067 225.465C189.135 226.059 189.321 226.632 189.615 227.146C190.871 229.266 193.681 230.366 195.958 230.713Z" fill="#263238"/>
<path d="M255.179 213.782C255.235 213.818 256.283 209.578 256.317 209.303C256.748 206.12 255.769 199.702 252.66 198.139C252.137 197.896 251.571 197.77 250.999 197.769C250.426 197.768 249.86 197.893 249.336 198.135C248.813 198.378 248.344 198.732 247.96 199.175C247.577 199.618 247.286 200.14 247.109 200.708C246.276 203.095 247.331 206.026 248.58 208.044C250.044 210.424 255.179 213.782 255.179 213.782Z" fill="#263238"/>
<path d="M107.146 165.064H15.1838V40.8661H107.146V165.064ZM15.8778 164.34H106.452V41.5896H15.8778V164.34Z" fill="#263238"/>
<path d="M104.551 161.563H17.7515V44.3544H104.551V161.563ZM18.5009 160.839H103.857V45.0779H18.4454L18.5009 160.839Z" fill="#263238"/>
<path d="M82.9826 132.359H39.354V73.5744H82.9826V132.359ZM40.0618 131.636H82.2886V74.2979H40.048L40.0618 131.636Z" fill="#263238"/>
<path d="M206.353 112.495L191.371 110.288L193.452 94.7758L208.442 96.9464L206.353 112.495ZM192.155 109.673L205.763 111.677L207.671 97.5975L194.056 95.5934L192.155 109.673ZM208.74 89.241L195.035 87.2224L197.019 72.5641L197.151 72.4773C200.781 70.1571 204.234 67.5471 207.477 64.6707C210.511 62.0049 213.151 58.8867 215.312 55.417C217.355 52.1098 218.685 48.38 219.212 44.4848C219.621 41.4678 219.288 39.0006 218.219 37.134C217.151 35.2673 215.388 34.1893 212.952 33.8275C212.024 33.6365 211.068 33.6391 210.14 33.8353C209.212 34.0315 208.331 34.4174 207.547 34.9707C206.814 35.5619 206.207 36.305 205.764 37.153C205.321 38.0011 205.051 38.9356 204.972 39.8978C204.836 40.8413 204.812 41.7988 204.903 42.7484C204.993 43.6817 205.111 44.6874 205.256 45.7365L205.305 46.1199L190.989 47.2269L190.933 46.9158C190.637 45.3946 190.458 43.8509 190.399 42.2998C190.345 40.791 190.42 39.2802 190.621 37.7851C191.475 31.4834 194.049 26.6576 198.255 23.438C202.46 20.2184 208.109 19.0969 215 20.1243C222.036 21.1589 227.296 23.9951 230.648 28.5459C234 33.0968 235.2 39.1308 234.208 46.4672C233.635 51.0184 232.201 55.4056 229.989 59.3746C227.753 63.2676 224.927 66.7568 221.62 69.7063C218.069 72.8792 214.253 75.7146 210.218 78.1786L208.74 89.241ZM195.819 86.6074L208.15 88.4234L209.601 77.7011L209.746 77.6142C213.797 75.1515 217.624 72.3109 221.183 69.1275C224.432 66.2209 227.209 62.7857 229.406 58.955C231.584 55.0763 232.999 50.7845 233.57 46.3298C234.534 39.196 233.382 33.35 230.148 28.9656C226.915 24.5811 221.821 21.8318 214.951 20.8189C208.247 19.8349 202.779 20.9057 198.713 24.0023C194.646 27.0989 192.134 31.7511 191.308 37.8502C191.112 39.3022 191.04 40.7695 191.093 42.2347C191.146 43.6409 191.299 45.0412 191.551 46.4238L204.514 45.4181C204.396 44.4993 204.292 43.6166 204.209 42.7846C204.114 41.7771 204.14 40.7612 204.285 39.7603C204.376 38.7028 204.676 37.6764 205.167 36.7462C205.658 35.8159 206.329 35.0019 207.137 34.3557C207.992 33.7443 208.955 33.3163 209.97 33.0964C210.985 32.8766 212.032 32.8693 213.05 33.0751C215.707 33.4658 217.643 34.6957 218.809 36.6926C219.975 38.6895 220.329 41.3303 219.899 44.5137C219.364 48.5226 217.997 52.3617 215.895 55.7643C213.697 59.2909 211.013 62.4602 207.928 65.1699C204.698 68.0309 201.264 70.6334 197.658 72.9549L195.819 86.6074Z" fill="#3A94E7"/>
<path d="M119.006 147.946C119.006 147.946 74.461 148.561 73.0731 151.868C71.6852 155.174 65.3495 195.22 64.9539 209.025C64.5584 222.829 64.3641 231.938 65.745 233.588C67.126 235.238 88.7147 248.246 88.7147 248.246C88.7147 248.246 78.6178 285.196 81.7752 286.44C84.9327 287.685 104.349 292.836 116.82 293.046C129.29 293.256 141.573 293.248 142.565 293.248C143.557 293.248 175.431 294.486 186.52 291.801C197.609 289.117 200.968 288.907 200.968 284.371C200.968 279.835 198.192 274.242 197.998 273.229C197.803 272.216 205.527 193.954 201.169 174.76C196.811 155.565 191.072 148.127 186.714 146.89C182.356 145.653 151.274 146.478 151.274 146.478L119.006 147.946Z" fill="#3A94E7"/>
<path d="M159.657 293.935C154.799 293.935 149.38 293.856 143.537 293.682H142.572C140.351 293.682 128.693 293.682 116.827 293.479C104.148 293.27 84.7454 288.053 81.6642 286.845C80.9703 286.584 79.395 285.962 83.7461 266.869C85.6475 258.462 87.9098 250.091 88.3261 248.492C85.8626 247.008 66.8484 235.505 65.5091 233.898C64.0449 232.155 64.2114 223.769 64.6278 209.089C65.0303 195.104 71.4701 154.891 72.7747 151.773C74.1626 148.423 111.532 147.736 119.019 147.635L151.288 146.188C152.565 146.151 182.516 145.377 186.832 146.614C189.511 147.338 196.291 151.636 201.537 174.744C205.125 190.56 200.614 245.46 198.914 266.124C198.588 270.096 198.352 272.968 198.372 273.25C198.528 273.754 198.709 274.249 198.914 274.733C199.76 276.904 201.343 280.984 201.343 284.443C201.343 288.784 198.518 289.42 190.121 291.396L186.652 292.228C181.863 293.371 172.502 293.935 159.657 293.935ZM171.003 146.614C161.572 146.614 151.469 146.875 151.288 146.882L119.019 148.329C101.879 148.568 74.3431 149.776 73.3993 152.034C72.1016 155.123 65.7103 195.147 65.3079 209.082C64.9609 221.259 64.6555 231.779 66.0018 233.399C67.1052 234.716 82.8925 244.368 88.9021 247.978C88.969 248.018 89.021 248.081 89.0499 248.156C89.0788 248.23 89.083 248.313 89.0617 248.39C84.1277 266.398 80.1098 285.412 81.9071 286.136C84.9674 287.33 104.238 292.51 116.834 292.72C128.707 292.915 140.351 292.922 142.572 292.922H143.558C164.73 293.544 179.962 293.031 186.444 291.475C187.713 291.164 188.879 290.896 189.948 290.643C198.15 288.711 200.628 288.125 200.628 284.392C200.628 281.078 199.08 277.092 198.248 274.95C198.021 274.418 197.826 273.872 197.665 273.315C197.63 273.105 197.727 271.832 198.206 266.008C199.899 245.373 204.403 190.568 200.836 174.846C195.68 152.113 189.185 147.975 186.631 147.244C184.806 146.766 178.095 146.614 171.003 146.614Z" fill="#263238"/>
<path d="M138.103 167.366C138.035 167.367 137.968 167.347 137.912 167.308C137.855 167.269 137.81 167.214 137.784 167.149C137.765 167.105 137.756 167.058 137.755 167.01C137.754 166.962 137.762 166.915 137.779 166.871C137.796 166.826 137.821 166.786 137.852 166.752C137.884 166.717 137.922 166.69 137.964 166.671C139.542 165.968 141.076 165.164 142.558 164.262C142.598 164.238 142.642 164.223 142.687 164.217C142.732 164.21 142.778 164.214 142.822 164.226C142.867 164.238 142.908 164.26 142.944 164.289C142.98 164.318 143.011 164.354 143.034 164.396C143.056 164.437 143.071 164.483 143.077 164.53C143.083 164.577 143.08 164.625 143.068 164.671C143.056 164.717 143.035 164.76 143.008 164.798C142.98 164.836 142.945 164.867 142.905 164.891C141.399 165.807 139.839 166.623 138.235 167.337C138.194 167.357 138.149 167.367 138.103 167.366Z" fill="#263238"/>
<path d="M144.827 163.588C144.77 163.587 144.714 163.573 144.663 163.545C144.612 163.517 144.569 163.478 144.536 163.429C144.486 163.348 144.469 163.25 144.489 163.157C144.508 163.063 144.563 162.982 144.64 162.93C150.156 159.099 154.999 154.307 158.956 148.763C158.982 148.724 159.016 148.691 159.055 148.665C159.093 148.64 159.136 148.622 159.182 148.614C159.227 148.606 159.273 148.608 159.318 148.618C159.362 148.629 159.405 148.649 159.442 148.677C159.479 148.703 159.511 148.738 159.535 148.777C159.56 148.817 159.576 148.861 159.584 148.908C159.592 148.954 159.591 149.002 159.581 149.048C159.57 149.094 159.552 149.137 159.525 149.176C155.515 154.791 150.609 159.647 145.022 163.53C144.964 163.57 144.896 163.59 144.827 163.588Z" fill="#263238"/>
<path d="M148.908 165.615C148.846 165.614 148.785 165.597 148.731 165.564C148.677 165.531 148.633 165.483 148.603 165.427C148.581 165.385 148.567 165.339 148.562 165.292C148.557 165.244 148.561 165.197 148.574 165.151C148.587 165.105 148.608 165.062 148.637 165.025C148.666 164.988 148.701 164.958 148.741 164.935C152.211 162.996 156.271 157.085 156.312 157.027C156.337 156.984 156.37 156.946 156.409 156.917C156.448 156.888 156.492 156.868 156.539 156.857C156.587 156.847 156.635 156.847 156.682 156.857C156.729 156.868 156.774 156.888 156.813 156.917C156.852 156.946 156.885 156.984 156.909 157.027C156.934 157.07 156.95 157.118 156.955 157.168C156.961 157.218 156.957 157.268 156.943 157.316C156.929 157.364 156.906 157.409 156.874 157.447C156.708 157.693 152.711 163.553 149.068 165.572C149.019 165.6 148.964 165.615 148.908 165.615Z" fill="#263238"/>
<path d="M128.29 223.741C128.217 223.739 128.147 223.714 128.088 223.669C128.03 223.623 127.986 223.56 127.964 223.487L126.798 219.711C126.783 219.665 126.777 219.618 126.78 219.57C126.783 219.522 126.796 219.476 126.816 219.433C126.837 219.391 126.866 219.353 126.901 219.322C126.936 219.292 126.977 219.269 127.021 219.255C127.108 219.225 127.203 219.233 127.285 219.276C127.367 219.32 127.429 219.395 127.458 219.486L128.624 223.263C128.652 223.354 128.645 223.453 128.603 223.539C128.561 223.624 128.489 223.689 128.402 223.719C128.366 223.733 128.328 223.74 128.29 223.741Z" fill="#263238"/>
<path d="M134.647 244.319C134.574 244.319 134.502 244.294 134.444 244.249C134.385 244.203 134.342 244.139 134.321 244.066L129.158 227.36C129.129 227.264 129.139 227.16 129.183 227.071C129.228 226.982 129.305 226.916 129.397 226.886C129.489 226.856 129.589 226.866 129.674 226.913C129.759 226.96 129.823 227.04 129.852 227.136L135.015 243.849C135.041 243.94 135.033 244.038 134.992 244.123C134.95 244.208 134.879 244.273 134.793 244.305L134.647 244.319Z" fill="#263238"/>
<path d="M136.236 244.73C136.169 244.733 136.103 244.713 136.049 244.672C136.01 244.647 135.976 244.614 135.95 244.576C135.923 244.537 135.904 244.493 135.894 244.447C135.884 244.4 135.882 244.352 135.89 244.305C135.897 244.258 135.914 244.213 135.938 244.173L141.087 235.715C141.11 235.674 141.142 235.638 141.179 235.61C141.216 235.582 141.258 235.561 141.303 235.551C141.347 235.54 141.394 235.539 141.439 235.547C141.484 235.555 141.527 235.573 141.566 235.599C141.643 235.651 141.697 235.733 141.718 235.826C141.739 235.919 141.724 236.017 141.677 236.099L136.528 244.564C136.496 244.614 136.453 244.656 136.402 244.685C136.351 244.714 136.294 244.729 136.236 244.73Z" fill="#263238"/>
<path d="M147.915 239.774C147.848 239.776 147.781 239.758 147.723 239.72C147.666 239.683 147.62 239.629 147.593 239.564C147.565 239.499 147.557 239.428 147.568 239.358C147.58 239.289 147.612 239.224 147.659 239.173L160.15 224.515C160.211 224.443 160.298 224.4 160.39 224.394C160.483 224.389 160.573 224.422 160.642 224.486C160.711 224.551 160.753 224.641 160.758 224.737C160.764 224.833 160.732 224.928 160.67 225L148.179 239.658C148.146 239.696 148.105 239.726 148.059 239.746C148.014 239.766 147.965 239.776 147.915 239.774Z" fill="#263238"/>
<path d="M142.572 293.654H142.475L115.598 285.486C115.554 285.473 115.514 285.451 115.478 285.421C115.443 285.391 115.413 285.354 115.391 285.313C115.369 285.271 115.355 285.225 115.35 285.178C115.345 285.131 115.35 285.083 115.362 285.037C115.374 284.991 115.395 284.948 115.423 284.911C115.452 284.873 115.487 284.842 115.527 284.819C115.567 284.796 115.612 284.782 115.657 284.777C115.703 284.772 115.749 284.777 115.793 284.791L142.662 292.945C142.754 292.959 142.837 293.01 142.893 293.087C142.949 293.164 142.973 293.262 142.961 293.358C142.948 293.454 142.899 293.54 142.825 293.599C142.75 293.657 142.657 293.682 142.565 293.669L142.572 293.654Z" fill="#263238"/>
<path d="M112.531 284.53H112.434L107.826 283.127C107.734 283.1 107.656 283.036 107.609 282.949C107.562 282.862 107.55 282.759 107.576 282.664C107.602 282.568 107.663 282.486 107.746 282.437C107.83 282.389 107.928 282.376 108.02 282.403L112.628 283.807C112.672 283.82 112.713 283.842 112.748 283.872C112.784 283.902 112.813 283.938 112.835 283.98C112.857 284.022 112.871 284.067 112.876 284.115C112.881 284.162 112.877 284.21 112.864 284.255C112.846 284.333 112.803 284.402 112.743 284.452C112.682 284.502 112.608 284.529 112.531 284.53Z" fill="#263238"/>
<path d="M118.728 56.1553C118.728 56.1553 104.745 52.8055 102.073 56.5533C99.4015 60.301 104.724 63.8462 103.968 64.6348C103.211 65.4235 86.9521 74.0911 88.2706 82.5706C89.5891 91.0501 100.56 99.7177 100.942 102.105C101.324 104.493 88.2706 105.26 86.5704 108.805C84.8702 112.35 82.4067 129.107 96.591 134.627C110.775 140.147 128.513 130.879 133.454 130.879C138.394 130.879 143.287 140.936 148.956 140.343C152.41 139.931 155.586 138.17 157.846 135.416C157.846 135.416 163.703 143.895 172.211 140.343C180.718 136.79 190.552 124.375 186.395 120.634C182.238 116.894 177.505 115.707 180.531 112.357C183.557 109.008 189.795 100.137 188.858 92.4465C187.922 84.7556 179.213 84.1696 175.812 81.8037C172.412 79.4378 179.594 75.4947 179.407 68.9904C179.219 62.486 174.674 51.6262 151.614 44.3911C128.554 37.156 117.208 40.6433 116.07 46.757C115.714 48.43 115.772 50.1698 116.237 51.8135C116.701 53.4572 117.559 54.9511 118.728 56.1553Z" fill="#263238"/>
<path d="M168.102 141.543C162.696 141.543 158.88 137.253 157.86 135.965C155.565 138.62 152.418 140.308 149.012 140.711C145.854 141.044 142.995 138.302 140.24 135.647C137.881 133.375 135.646 131.233 133.474 131.233C132.149 131.233 129.769 131.957 126.757 132.883C118.811 135.307 106.799 138.967 96.4938 134.959C91.5668 133.042 88.1664 129.634 86.3344 124.83C83.9056 118.376 85.0992 111.083 86.2789 108.638C87.2504 106.619 91.3863 105.491 95.0365 104.5C97.5833 103.776 100.748 102.944 100.588 102.155C100.428 101.367 99.0198 99.804 97.3335 97.9084C93.9401 94.081 88.8048 88.3002 87.9235 82.6424C86.7646 75.2264 98.1593 67.9624 102.455 65.2275C103.052 64.8441 103.621 64.504 103.711 64.3883C103.485 63.9916 103.23 63.6142 102.948 63.2596C101.796 61.6968 99.8664 59.0705 101.789 56.3501C104.12 53.0509 114.28 54.9031 117.694 55.5759C116.751 54.335 116.086 52.8897 115.749 51.346C115.411 49.8023 115.41 48.1995 115.744 46.6551C115.952 45.7241 116.347 44.8501 116.905 44.0915C117.463 43.3329 118.169 42.7071 118.978 42.2561C124.758 38.6386 136.701 39.2608 151.725 44.0143C175.708 51.5966 179.587 62.9123 179.768 68.9898C179.858 72.26 178.178 74.8719 176.825 76.9484C175.902 78.3954 175.111 79.6109 175.278 80.5008C175.331 80.7088 175.424 80.9033 175.552 81.0725C175.68 81.2416 175.839 81.3819 176.02 81.4848C177.179 82.1823 178.404 82.7498 179.677 83.1778C183.612 84.6971 188.504 86.5927 189.212 92.388C190.142 99.9487 184.355 108.645 180.802 112.588C180.54 112.815 180.328 113.097 180.18 113.417C180.033 113.737 179.954 114.086 179.948 114.441C180.059 115.497 181.426 116.459 183.161 117.667C184.368 118.487 185.527 119.381 186.631 120.344C187.101 120.81 187.444 121.398 187.625 122.048C187.805 122.698 187.817 123.386 187.658 124.041C186.783 129.482 179.06 137.868 172.356 140.682C171.004 141.248 169.56 141.54 168.102 141.543ZM157.867 135.032C157.92 135.032 157.973 135.047 158.02 135.073C158.067 135.099 158.107 135.137 158.137 135.184C158.2 135.263 163.946 143.388 172.1 139.988C178.623 137.267 186.131 129.135 186.971 123.918C187.186 122.573 186.922 121.553 186.18 120.887C185.095 119.949 183.957 119.079 182.772 118.282C180.892 116.966 179.407 115.924 179.254 114.542C179.247 114.08 179.337 113.623 179.518 113.201C179.699 112.78 179.967 112.405 180.302 112.104C183.536 108.486 189.427 99.804 188.525 92.4893C187.866 87.1354 183.189 85.3266 179.435 83.8723C178.111 83.4256 176.836 82.8339 175.632 82.107C175.375 81.9509 175.151 81.7422 174.973 81.4935C174.795 81.2449 174.668 80.9613 174.598 80.66C174.376 79.4806 175.201 78.1928 176.249 76.5649C177.547 74.5535 179.157 72.0502 179.074 69.0115C178.9 63.1293 175.097 52.161 151.524 44.7088C136.687 40.0133 124.953 39.3476 119.339 42.8784C118.614 43.2774 117.979 43.8329 117.477 44.5078C116.974 45.1828 116.615 45.9617 116.424 46.7925C116.075 48.4115 116.125 50.0961 116.567 51.6898C117.01 53.2835 117.832 54.7348 118.957 55.9087C119.015 55.9631 119.054 56.0355 119.069 56.115C119.084 56.1945 119.074 56.277 119.04 56.3501C119.005 56.4223 118.948 56.48 118.877 56.5141C118.807 56.5483 118.727 56.5567 118.652 56.5382C114.821 55.6193 104.433 53.8829 102.372 56.7914C100.762 59.0777 102.372 61.2482 103.524 62.8399C104.217 63.7588 104.696 64.4317 104.217 64.9164C103.778 65.2677 103.314 65.5845 102.83 65.8642C99.0475 68.2735 87.5627 75.6026 88.6244 82.5411C89.471 87.9819 94.5161 93.6686 97.8609 97.4309C99.8386 99.6593 101.143 101.128 101.289 102.054C101.518 103.501 98.8671 104.225 95.2031 105.216C91.8652 106.12 87.7154 107.249 86.8757 108.978C85.7792 111.264 84.6273 118.42 86.952 124.577C87.7991 126.841 89.1116 128.884 90.7972 130.563C92.4829 132.242 94.5007 133.515 96.7089 134.294C106.799 138.222 118.672 134.597 126.549 132.203C129.616 131.269 132.031 130.524 133.488 130.524C135.931 130.524 138.263 132.76 140.726 135.126C143.37 137.665 146.104 140.284 148.956 139.988C152.312 139.577 155.398 137.868 157.603 135.198C157.632 135.151 157.671 135.112 157.716 135.083C157.762 135.054 157.813 135.037 157.867 135.032Z" fill="#263238"/>
<path d="M121.247 119.398C121.247 119.398 116.521 150.147 116.334 151.131C116.146 152.115 124.661 160.986 136.181 159.408C142.929 158.563 149.13 155.121 153.571 149.757L149.983 119.203C149.983 119.203 140.15 124.13 134.099 123.935C128.048 123.739 121.247 119.398 121.247 119.398Z" fill="white"/>
<path d="M133.46 159.958C127.269 159.853 121.356 157.261 116.951 152.723C115.89 151.544 115.966 151.168 115.994 151.023C116.174 150.061 120.851 119.616 120.9 119.304C120.91 119.246 120.933 119.191 120.968 119.144C121.003 119.097 121.048 119.059 121.1 119.034C121.152 119.009 121.209 118.998 121.266 119.001C121.323 119.004 121.378 119.021 121.427 119.051C121.497 119.095 128.228 123.342 134.113 123.537C139.997 123.732 149.733 118.892 149.831 118.841C149.88 118.815 149.935 118.801 149.99 118.801C150.046 118.801 150.101 118.815 150.15 118.841C150.197 118.87 150.238 118.91 150.268 118.958C150.298 119.005 150.317 119.06 150.323 119.116L153.918 149.663C153.924 149.71 153.921 149.758 153.909 149.804C153.897 149.85 153.876 149.893 153.849 149.931C149.336 155.35 143.06 158.839 136.229 159.727C135.312 159.867 134.387 159.945 133.46 159.958ZM121.511 119.977C120.865 124.166 116.847 150.285 116.653 151.204C116.799 152.101 124.862 160.61 136.084 159.054C142.681 158.186 148.75 154.842 153.155 149.648L149.699 119.731C147.7 120.694 139.505 124.463 134.092 124.289C128.839 124.123 123.127 120.947 121.511 119.977Z" fill="#263238"/>
<path d="M119.304 135.893L139.213 131.877L121.247 119.397L119.304 135.893Z" fill="#263238"/>
<path d="M119.304 136.256C119.217 136.253 119.134 136.22 119.068 136.162C119.029 136.122 119 136.073 118.982 136.019C118.964 135.965 118.957 135.908 118.964 135.851L120.9 119.355C120.907 119.294 120.929 119.235 120.965 119.186C121 119.136 121.047 119.097 121.101 119.073C121.154 119.044 121.212 119.029 121.271 119.029C121.33 119.029 121.389 119.044 121.441 119.073L139.401 131.56C139.459 131.599 139.505 131.654 139.532 131.72C139.559 131.786 139.567 131.859 139.553 131.929C139.539 132 139.505 132.064 139.456 132.115C139.406 132.165 139.344 132.199 139.276 132.212L119.373 136.227L119.304 136.256ZM121.525 120.028L119.706 135.446L138.311 131.691L121.525 120.028Z" fill="#263238"/>
<path d="M110.741 92.2861C110.741 92.2861 107.41 87.8872 105.883 93.4437C104.356 99.0003 110.99 105.743 110.99 105.743L110.741 92.2861Z" fill="white"/>
<path d="M110.963 106.075C110.88 106.071 110.802 106.038 110.741 105.981C110.463 105.699 103.947 99.0498 105.543 93.3485C106.049 91.5398 106.813 90.5196 107.812 90.3171C109.436 89.9915 110.97 91.9811 111.032 92.0679C111.08 92.1291 111.107 92.2057 111.108 92.285L111.33 105.713C111.33 105.785 111.311 105.855 111.274 105.915C111.237 105.975 111.184 106.023 111.122 106.053C111.07 106.069 111.017 106.076 110.963 106.075ZM108.187 90.9971C108.108 90.9897 108.029 90.9897 107.951 90.9971C107.257 91.1418 106.639 92.0173 106.216 93.5222C105.015 97.8198 109.047 102.971 110.63 104.773L110.421 92.3935C109.998 91.9305 109.04 90.9971 108.159 90.9971H108.187Z" fill="#263238"/>
<path d="M158.463 92.2861C158.463 92.2861 161.794 87.8872 163.321 93.4437C164.848 99.0003 158.214 105.743 158.214 105.743L158.463 92.2861Z" fill="white"/>
<path d="M158.241 106.077C158.195 106.085 158.148 106.085 158.102 106.077C158.039 106.049 157.985 106.002 157.947 105.941C157.91 105.88 157.892 105.809 157.894 105.737L158.116 92.3088C158.118 92.2308 158.142 92.1552 158.186 92.0917C158.255 92.0049 159.796 90.008 161.406 90.3408C162.412 90.5434 163.175 91.5635 163.682 93.3723C165.271 99.0736 158.755 105.723 158.477 106.005C158.41 106.059 158.326 106.085 158.241 106.077ZM158.803 92.4173L158.623 104.797C160.198 102.995 164.237 97.8436 163.036 93.5459C162.613 92.041 162.009 91.1656 161.295 91.0209C160.337 90.8328 159.241 91.8891 158.803 92.4173Z" fill="#263238"/>
<path d="M121.205 64.4906C121.205 64.4906 111.671 74.1495 110.29 77.0435C108.909 79.9375 109.464 112.915 110.984 116.113C112.503 119.311 127.701 131.676 130.185 132.681C132.669 133.687 138.339 134.7 142.759 132.392C147.18 130.084 157.818 118.276 158.928 115.252C160.039 112.228 158.651 77.6295 157.957 74.3376C157.263 71.0456 140.58 59.1584 133.502 58.5868C126.424 58.0152 121.205 64.4906 121.205 64.4906Z" fill="white"/>
<path d="M136.417 134.099C134.244 134.111 132.086 133.729 130.039 132.97C127.368 131.885 112.191 119.433 110.65 116.228C109.11 113.023 108.513 79.8717 109.956 76.862C111.344 73.9679 120.366 64.7866 120.928 64.244C121.275 63.8171 126.479 57.6456 133.509 58.2244C140.372 58.7887 157.499 70.4661 158.276 74.2067C158.921 77.3178 160.358 112.227 159.227 115.331C158.04 118.587 147.27 130.387 142.891 132.695C140.865 133.674 138.649 134.154 136.417 134.099ZM132.6 58.9117C126.243 58.9117 121.497 64.6636 121.448 64.6998C121.351 64.7938 111.941 74.3441 110.602 77.1369C109.262 79.9296 109.852 112.849 111.296 115.852C112.739 118.854 127.784 131.212 130.317 132.239C132.982 133.317 138.45 134.135 142.614 131.964C147.076 129.642 157.589 117.813 158.609 115.02C159.726 111.967 158.269 77.3973 157.624 74.3152C156.978 71.2331 140.442 59.5122 133.474 58.9551C133.19 58.9551 132.905 58.9117 132.621 58.9117H132.6Z" fill="#263238"/>
<path d="M128.7 58.5861C128.7 58.5861 142.981 72.1735 153.252 72.6945L163.529 73.2154C163.529 73.2154 140.976 70.0826 133.96 54.151C133.96 54.151 126.195 47.3789 128.7 58.5861Z" fill="#263238"/>
<path d="M163.529 73.5766L153.259 73.0557C142.982 72.5348 129.075 59.4175 128.485 58.8532C128.435 58.8042 128.399 58.7416 128.381 58.6723C127.555 54.968 127.736 52.7974 128.936 52.0305C130.713 50.8946 133.856 53.5644 134.203 53.8682C134.245 53.9031 134.278 53.9477 134.3 53.9985C141.156 69.5684 163.37 72.8097 163.592 72.8603C163.681 72.8713 163.763 72.9182 163.82 72.9911C163.877 73.0641 163.905 73.1573 163.897 73.251C163.887 73.3437 163.843 73.4289 163.775 73.4893C163.706 73.5497 163.619 73.5809 163.529 73.5766ZM129.012 58.3829C130.178 59.4682 143.634 71.8257 153.301 72.3177L159.102 72.6143C152.162 70.7911 138.832 65.8929 133.71 54.3602C132.808 53.5861 130.428 51.9148 129.304 52.631C128.665 53.0362 128.131 54.353 129.012 58.3974V58.3829Z" fill="#263238"/>
<path d="M137.804 100.434C137.717 100.434 137.633 100.4 137.568 100.338C137.504 100.276 137.465 100.192 137.458 100.101L136.354 85.5509C136.35 85.5034 136.356 85.4557 136.37 85.4103C136.384 85.365 136.406 85.323 136.436 85.2867C136.466 85.2504 136.502 85.2206 136.543 85.1989C136.583 85.1772 136.628 85.1641 136.673 85.1603C136.719 85.1565 136.765 85.162 136.808 85.1767C136.852 85.1914 136.892 85.2148 136.927 85.2457C136.962 85.2767 136.99 85.3144 137.011 85.3568C137.032 85.3993 137.044 85.4456 137.048 85.4931L138.151 100.043C138.155 100.09 138.15 100.138 138.136 100.184C138.122 100.229 138.099 100.271 138.07 100.307C138.04 100.344 138.004 100.374 137.963 100.395C137.922 100.417 137.878 100.43 137.832 100.434H137.804Z" fill="#263238"/>
<path d="M134.605 107.35C132.676 107.35 130.83 105.18 130.754 105.064C130.722 105.029 130.696 104.987 130.68 104.941C130.663 104.896 130.656 104.847 130.658 104.798C130.659 104.749 130.671 104.702 130.691 104.658C130.711 104.613 130.74 104.574 130.775 104.542C130.81 104.51 130.851 104.485 130.896 104.47C130.94 104.455 130.987 104.449 131.034 104.453C131.081 104.457 131.126 104.471 131.167 104.494C131.209 104.517 131.245 104.548 131.274 104.586C131.274 104.586 132.995 106.627 134.605 106.627C135.931 106.627 137.936 103.935 138.603 102.901C138.627 102.861 138.659 102.826 138.697 102.799C138.734 102.772 138.777 102.754 138.821 102.744C138.866 102.735 138.912 102.735 138.957 102.744C139.001 102.754 139.044 102.773 139.081 102.799C139.157 102.852 139.21 102.935 139.228 103.028C139.247 103.122 139.229 103.219 139.178 103.299C138.915 103.711 136.535 107.35 134.605 107.35Z" fill="#263238"/>
<path d="M132.413 114.019C131.989 114.019 131.559 114.019 131.129 113.976C126.854 113.679 123.669 108.268 123.53 108.036C123.506 107.995 123.491 107.95 123.484 107.903C123.477 107.855 123.479 107.807 123.49 107.761C123.501 107.715 123.52 107.671 123.548 107.632C123.575 107.594 123.609 107.561 123.648 107.537C123.687 107.512 123.731 107.496 123.776 107.488C123.821 107.481 123.867 107.483 123.912 107.495C123.956 107.506 123.998 107.527 124.035 107.555C124.072 107.583 124.103 107.619 124.127 107.66C124.127 107.718 127.263 112.978 131.177 113.252C134.024 113.353 136.87 113.017 139.623 112.254C139.715 112.227 139.813 112.24 139.897 112.288C139.98 112.337 140.041 112.419 140.067 112.514C140.093 112.61 140.081 112.713 140.034 112.8C139.987 112.887 139.909 112.951 139.817 112.978C137.398 113.634 134.912 113.984 132.413 114.019Z" fill="#263238"/>
<path d="M138.339 83.2197C138.339 83.2197 143.197 79.472 145.105 78.1552C147.013 76.8384 153.259 79.3056 153.259 79.3056C153.259 79.3056 148.561 76.5707 146.076 76.1366C143.592 75.7025 138.478 79.4503 138.061 81.2012C137.645 82.9521 136.417 82.4962 138.339 83.2197Z" fill="#263238"/>
<path d="M138.339 83.554C138.3 83.5609 138.26 83.5609 138.221 83.554C137.305 83.214 137.034 83.1127 136.951 82.8305C136.936 82.7179 136.948 82.6031 136.987 82.4968C137.026 82.3905 137.09 82.2963 137.173 82.2228C137.445 81.9198 137.636 81.5483 137.728 81.1447C138.179 79.2564 143.419 75.3567 146.132 75.8342C148.651 76.2683 153.238 78.9308 153.432 79.0393C153.508 79.0851 153.565 79.1584 153.592 79.2453C153.619 79.3321 153.614 79.4263 153.578 79.5096C153.541 79.5928 153.476 79.6585 153.395 79.6934C153.314 79.7283 153.223 79.7298 153.141 79.6977C151.454 79.0321 146.763 77.5272 145.299 78.5112C143.391 79.7846 138.596 83.5034 138.547 83.5396C138.48 83.5637 138.408 83.5687 138.339 83.554ZM137.749 82.5773L138.283 82.7871C139.109 82.1432 143.19 79.0032 144.917 77.8456C145.91 77.1799 147.804 77.3753 149.553 77.7732C148.428 77.2026 147.242 76.7704 146.021 76.4854C143.724 76.0947 138.769 79.7267 138.387 81.2605C138.289 81.7587 138.069 82.2222 137.749 82.6062V82.5773Z" fill="#263238"/>
<path d="M128.388 83.9086C128.134 83.2812 127.713 82.743 127.174 82.3581C126.635 81.9733 126.001 81.7581 125.348 81.7381C123.003 81.5934 112.635 84.4802 114.433 84.4802C116.23 84.4802 123.69 84.3355 125.626 84.3355C126.565 84.3963 127.506 84.2508 128.388 83.9086Z" fill="#263238"/>
<path d="M114.432 84.8483C114.336 84.8624 114.237 84.8482 114.148 84.8073C114.058 84.7665 113.981 84.7005 113.926 84.6168C113.894 84.5558 113.877 84.4874 113.877 84.4178C113.877 84.3482 113.894 84.2798 113.926 84.2188C114.349 83.4953 123.433 81.2597 125.355 81.3827C126.076 81.4029 126.775 81.6405 127.369 82.0669C127.963 82.4932 128.425 83.09 128.7 83.7847C128.728 83.8679 128.727 83.9589 128.696 84.0412C128.666 84.1235 128.608 84.1917 128.533 84.2333C127.601 84.5984 126.606 84.7585 125.612 84.7036C124.626 84.7036 122.212 84.7036 119.838 84.776C117.465 84.8483 115.314 84.8483 114.432 84.8483ZM125.147 82.1062C123.398 82.1062 118.527 83.3289 116.008 84.1103L119.845 84.0524C122.218 84.0163 124.64 83.9801 125.626 83.9801C126.395 83.9978 127.163 83.9053 127.909 83.7052C127.645 83.2282 127.267 82.8304 126.813 82.5503C126.358 82.2702 125.842 82.1172 125.313 82.1062H125.147Z" fill="#263238"/>
<path d="M152.155 92.1506C150.07 92.6437 147.937 92.8864 145.799 92.8741C143.023 92.7294 140.546 91.8612 141.635 93.1563C142.725 94.4514 144.952 95.609 148.401 94.8855C151.85 94.162 153.12 93.4457 152.155 92.1506Z" fill="#263238"/>
<path d="M127.146 92.1506C125.06 92.6437 122.927 92.8864 120.789 92.8741C118.013 92.7294 115.543 91.8612 116.625 93.1563C117.708 94.4514 119.942 95.609 123.398 94.8855C126.854 94.162 128.089 93.4457 127.146 92.1506Z" fill="#263238"/>
<path d="M81.1646 175.18C81.1646 175.18 85.3282 151.304 87.2158 148.967C89.1033 146.63 109.714 129.056 110.845 127.877C111.976 126.698 120.109 113.877 120.491 115.454C120.872 117.031 119.547 123.934 117.083 127.674C114.62 131.415 111.226 135.958 111.226 135.958C111.226 135.958 123.926 139.308 124.62 140.097C125.314 140.886 129.685 150.696 129.914 151.919C130.317 154.032 129.734 156.296 128.027 156.455C126.472 156.593 116.306 151.13 116.306 151.13L108.201 152.288C108.201 152.288 102.344 159.776 98.3675 161.158C96.5842 161.838 94.7508 162.366 92.8853 162.735L93.0796 177.321L81.1646 175.18Z" fill="white"/>
<path d="M93.0795 177.711H93.0171L81.1089 175.54C81.0165 175.522 80.9344 175.468 80.8799 175.388C80.8298 175.309 80.81 175.214 80.8244 175.12C80.9979 174.144 85.0228 151.151 86.952 148.741C88.215 147.157 97.4167 139.155 104.134 133.316C107.534 130.357 110.227 128.02 110.602 127.622C110.976 127.224 112.038 125.676 113.308 123.831C118.249 116.654 119.713 114.831 120.442 114.975C120.536 114.996 120.622 115.044 120.69 115.115C120.757 115.186 120.804 115.275 120.824 115.373C121.233 117.081 119.866 124.091 117.354 127.89C115.355 130.921 112.718 134.517 111.802 135.747C114.759 136.536 124.141 139.083 124.876 139.842C125.612 140.602 130.018 150.572 130.261 151.86C130.424 152.536 130.456 153.24 130.354 153.929C130.253 154.619 130.021 155.28 129.671 155.875C129.483 156.143 129.242 156.366 128.964 156.53C128.687 156.693 128.379 156.793 128.062 156.823C126.479 156.968 117.652 152.279 116.264 151.512L108.381 152.648C107.611 153.625 102.281 160.209 98.4785 161.526C96.7658 162.157 95.0157 162.672 93.2392 163.067L93.4265 177.342C93.4257 177.395 93.4142 177.448 93.3927 177.497C93.3712 177.545 93.3402 177.588 93.3016 177.624C93.2383 177.677 93.1605 177.707 93.0795 177.711ZM81.5947 174.882L92.6979 176.886L92.5105 162.734C92.5114 162.646 92.5427 162.56 92.5987 162.494C92.6548 162.428 92.7318 162.384 92.8158 162.372C94.6601 162.005 96.4726 161.483 98.2356 160.809C102.059 159.478 107.847 152.127 107.902 152.055C107.959 151.985 108.038 151.939 108.124 151.925L116.292 150.774C116.361 150.761 116.433 150.774 116.493 150.811C120.393 152.902 126.986 156.201 128.027 156.092C128.248 156.072 128.462 156.002 128.655 155.887C128.848 155.772 129.015 155.615 129.144 155.427C129.435 154.914 129.626 154.347 129.706 153.757C129.786 153.167 129.753 152.566 129.609 151.99C129.359 150.688 125.036 141 124.411 140.349C123.821 139.806 115.959 137.578 111.15 136.304C111.094 136.289 111.043 136.26 111.001 136.219C110.959 136.179 110.927 136.128 110.909 136.071C110.89 136.014 110.885 135.954 110.895 135.895C110.904 135.836 110.927 135.78 110.963 135.733C110.963 135.682 114.384 131.16 116.806 127.47C119.228 123.78 120.366 117.58 120.199 115.786C119.144 116.596 115.758 121.523 113.877 124.251C112.538 126.197 111.483 127.731 111.101 128.129C110.72 128.527 108.131 130.777 104.585 133.866C98.2633 139.357 88.7146 147.663 87.4863 149.197C86.0082 151.042 82.7744 168.023 81.5947 174.882Z" fill="#263238"/>
<path d="M129.942 152.288C129.885 152.289 129.829 152.275 129.78 152.248C129.73 152.22 129.688 152.179 129.658 152.129C127.458 148.75 123.794 143.237 123.329 142.853C122.864 142.47 117 141.551 111.788 140.82C111.696 140.807 111.613 140.756 111.557 140.678C111.501 140.601 111.477 140.504 111.49 140.408C111.503 140.312 111.552 140.225 111.626 140.167C111.7 140.109 111.793 140.083 111.886 140.097C114.495 140.466 123.072 141.703 123.766 142.267C124.46 142.832 129.644 150.797 130.227 151.673C130.253 151.712 130.271 151.757 130.281 151.803C130.291 151.85 130.291 151.899 130.283 151.946C130.275 151.993 130.257 152.038 130.232 152.078C130.207 152.118 130.174 152.152 130.136 152.179C130.083 152.234 130.015 152.272 129.942 152.288Z" fill="#263238"/>
<path d="M129.477 155.274C129.427 155.274 129.377 155.263 129.331 155.24C129.286 155.218 129.245 155.185 129.213 155.144C127.728 153.357 124.758 149.834 124.141 149.291C123.641 148.871 117.784 147.309 112.517 146.05C112.428 146.027 112.351 145.969 112.303 145.888C112.255 145.807 112.239 145.709 112.26 145.616C112.27 145.569 112.289 145.525 112.315 145.486C112.342 145.447 112.375 145.415 112.414 145.39C112.453 145.365 112.496 145.348 112.541 145.341C112.586 145.334 112.632 145.336 112.677 145.348C114.516 145.782 123.78 148.018 124.585 148.741C125.39 149.465 129.56 154.457 129.741 154.674C129.771 154.709 129.794 154.751 129.809 154.795C129.823 154.84 129.829 154.888 129.826 154.935C129.823 154.982 129.81 155.028 129.79 155.07C129.769 155.112 129.741 155.15 129.706 155.18C129.644 155.241 129.562 155.275 129.477 155.274Z" fill="#263238"/>
<path d="M129.699 246.228C129.699 246.228 114.849 243.334 114.259 243.132C113.669 242.929 103.156 239.623 101.768 239.001C100.38 238.378 83.5518 235.289 82.7607 236.526C81.9696 237.763 81.1785 244.991 80.9772 245.606C80.776 246.221 79.1938 249.115 79.5893 250.772C79.803 252.276 79.803 253.805 79.5893 255.308C79.5893 255.308 79.3881 265.011 81.7614 265.221C84.1347 265.43 86.3206 256.133 86.3206 256.133C86.3206 256.133 89.6863 258.202 96.6119 258.615C103.537 259.027 110.276 255.518 110.276 255.518L128.707 260.091L129.699 246.228Z" fill="white"/>
<path d="M81.8585 265.58H81.7544C79.1868 265.355 79.2284 256.977 79.2562 255.299C79.466 253.826 79.466 252.329 79.2562 250.856C78.9092 249.409 79.8738 247.239 80.3943 246.103C80.5122 245.828 80.6094 245.611 80.651 245.495C80.6927 245.379 80.8245 244.489 80.9494 243.592C81.4352 240.257 81.914 237.189 82.4692 236.321C83.5101 234.7 100.887 238.209 101.9 238.665C102.913 239.121 109.429 241.212 112.545 242.21L114.342 242.782C114.793 242.934 123.801 244.714 129.741 245.871C129.825 245.887 129.901 245.935 129.954 246.006C130.006 246.077 130.032 246.166 130.025 246.255L129.054 260.088C129.051 260.141 129.037 260.192 129.013 260.238C128.989 260.285 128.956 260.325 128.915 260.356C128.875 260.388 128.829 260.41 128.779 260.42C128.73 260.43 128.679 260.428 128.631 260.414L110.338 255.906C109.408 256.362 103.066 259.365 96.6118 258.981C90.9492 258.641 87.6599 257.23 86.5704 256.673C86.0152 258.909 84.1693 265.58 81.8585 265.58ZM84.1902 236.582C83.8012 236.539 83.4081 236.596 83.0451 236.748C82.5455 237.529 81.9626 241.545 81.6572 243.701C81.4838 244.924 81.3935 245.517 81.3311 245.719C81.2686 245.922 81.1784 246.096 81.0396 246.407C80.5955 247.405 79.6517 249.496 79.9501 250.683C80.175 252.232 80.175 253.807 79.9501 255.357C79.8738 259.206 80.4012 264.762 81.8169 264.856C83.3435 264.958 85.1894 259.524 85.9805 256.051C85.9944 255.996 86.0196 255.945 86.0544 255.901C86.0891 255.858 86.1326 255.822 86.1818 255.798C86.2304 255.773 86.2838 255.76 86.3379 255.76C86.3921 255.76 86.4455 255.773 86.4941 255.798C86.4941 255.798 89.8875 257.824 96.6327 258.229C103.378 258.634 110.054 255.205 110.123 255.168C110.197 255.143 110.278 255.143 110.352 255.168L128.395 259.611L129.332 246.53C126.833 246.045 114.717 243.679 114.148 243.477L112.364 242.905C108.992 241.827 102.726 239.823 101.643 239.338C100.29 238.723 88.104 236.582 84.1902 236.582Z" fill="#263238"/>
<path d="M78.3402 170.967L98.2496 174.765L97.5071 187.738C97.5071 187.738 101.914 189.908 103.253 202.721C104.592 215.535 108.43 245.213 107.472 247.413C106.515 249.612 100.574 259.206 86.7717 259.806C72.969 260.407 65.4952 247.217 64.1559 243.014C62.8166 238.81 69.9087 211.317 70.2904 208.922C70.6721 206.527 72.5874 190.111 74.3153 187.34C75.3803 185.627 76.6696 184.078 78.1459 182.738L78.3402 170.967Z" fill="#3A94E7"/>
<path d="M85.8556 260.198C72.1224 260.198 65.0371 246.821 63.8297 243.145C62.7471 239.766 66.7581 222.655 68.9094 213.481C69.4645 211.108 69.867 209.394 69.9503 208.887C70.0336 208.381 70.1307 207.621 70.2834 206.492C71.019 200.994 72.5596 189.548 74.0238 187.175C75.0771 185.477 76.3497 183.938 77.8058 182.602L77.9932 170.975C77.9931 170.923 78.0043 170.871 78.0259 170.823C78.0475 170.776 78.079 170.734 78.1181 170.7C78.1578 170.668 78.2038 170.645 78.2528 170.632C78.3019 170.62 78.353 170.618 78.4026 170.628L98.3328 174.419C98.4173 174.435 98.4932 174.483 98.5458 174.554C98.5983 174.625 98.6238 174.713 98.6173 174.803L97.8679 187.565C98.7908 188.188 102.406 191.306 103.6 202.716C103.933 205.914 104.433 210.226 104.988 214.791C107.021 232.387 108.52 245.981 107.819 247.595C107.764 247.711 102.441 259.518 86.8133 260.191L85.8556 260.198ZM78.6802 171.402L78.4928 182.761C78.4929 182.814 78.4817 182.866 78.4601 182.913C78.4385 182.961 78.407 183.003 78.3679 183.036C76.9204 184.353 75.6546 185.872 74.6067 187.551C73.2188 189.787 71.6435 201.558 70.9704 206.579C70.8177 207.715 70.6998 208.569 70.6304 208.996C70.5471 209.531 70.1446 211.253 69.5825 213.633C67.5978 222.106 63.4688 239.73 64.4889 242.921C65.6548 246.538 72.851 260.068 86.7577 259.453C99.3737 258.91 105.758 250.482 107.16 247.276C107.854 245.721 105.772 227.886 104.273 214.863C103.746 210.291 103.246 205.979 102.885 202.781C101.58 190.336 97.3682 188.101 97.3335 188.079C97.2724 188.047 97.2215 187.997 97.187 187.935C97.1525 187.874 97.1359 187.803 97.1392 187.732L97.8887 175.063L78.6802 171.402Z" fill="#263238"/>
<path d="M94.0859 186.516C92.9584 186.511 91.8323 186.436 90.7133 186.291C90.6224 186.28 90.5392 186.232 90.482 186.158C90.4248 186.083 90.3982 185.988 90.408 185.893C90.4201 185.798 90.4676 185.711 90.5402 185.652C90.6128 185.592 90.7048 185.565 90.7966 185.575C91.8881 185.714 92.9864 185.786 94.0859 185.792C94.1779 185.792 94.2662 185.83 94.3313 185.898C94.3963 185.966 94.4329 186.058 94.4329 186.154C94.4329 186.25 94.3963 186.342 94.3313 186.41C94.2662 186.477 94.1779 186.516 94.0859 186.516Z" fill="#263238"/>
<path d="M86.0707 185.459H85.9944C83.297 184.836 80.637 184.048 78.0279 183.101C77.9438 183.066 77.876 182.999 77.8389 182.913C77.8017 182.827 77.7981 182.73 77.8288 182.641C77.8595 182.553 77.9222 182.48 78.0034 182.439C78.0846 182.398 78.178 182.391 78.2638 182.421C80.843 183.358 83.473 184.136 86.1401 184.75C86.1849 184.761 86.2273 184.78 86.2648 184.807C86.3023 184.835 86.3342 184.87 86.3588 184.91C86.3833 184.95 86.3999 184.995 86.4076 185.043C86.4154 185.09 86.4141 185.138 86.4038 185.184C86.3865 185.263 86.3441 185.333 86.2835 185.383C86.223 185.433 86.148 185.46 86.0707 185.459Z" fill="#263238"/>
<path d="M187.908 177.487L185.93 230.745C185.93 230.745 183.751 230.954 182.96 231.982C182.433 232.694 181.968 233.454 181.572 234.254C181.572 234.254 161.579 235.078 152.072 237.972C146.616 239.59 141.314 241.731 136.236 244.368L127.52 244.173L125.737 268.114L137.423 268.526C137.423 268.526 143.162 272.035 169.296 274.517C195.43 276.998 207.512 277.613 210.281 274.307C213.049 271.001 214.243 265.842 214.639 263.165C215.034 260.488 219.788 243.963 219.788 220.015C219.788 196.067 198.206 161.411 193.452 153.546C188.699 145.682 183.737 146.311 180.385 147.15" fill="#3A94E7"/>
<path d="M199.198 276.927C192.571 276.927 182.87 276.16 169.268 274.872C144.661 272.535 138.124 269.323 137.347 268.881L125.751 268.469C125.703 268.469 125.656 268.459 125.613 268.439C125.569 268.419 125.531 268.389 125.499 268.352C125.468 268.315 125.444 268.272 125.43 268.224C125.416 268.177 125.412 268.127 125.418 268.078L127.173 244.173C127.179 244.081 127.219 243.994 127.285 243.932C127.351 243.869 127.438 243.837 127.527 243.841L136.153 244.043C141.232 241.423 146.527 239.287 151.975 237.662C160.899 234.949 179.233 234.044 181.357 233.936C181.739 233.173 182.185 232.446 182.689 231.765C183.383 230.861 184.938 230.535 185.597 230.434L187.561 177.48C187.561 177.432 187.57 177.385 187.588 177.34C187.607 177.296 187.634 177.257 187.668 177.224C187.702 177.191 187.742 177.166 187.786 177.151C187.829 177.135 187.876 177.129 187.922 177.133C187.967 177.135 188.012 177.146 188.053 177.166C188.095 177.186 188.132 177.214 188.163 177.249C188.194 177.284 188.218 177.325 188.234 177.37C188.249 177.414 188.257 177.462 188.255 177.509L186.277 230.767C186.274 230.854 186.241 230.938 186.183 231.001C186.126 231.065 186.048 231.105 185.965 231.114C185.396 231.165 183.806 231.469 183.231 232.214C182.722 232.908 182.271 233.646 181.884 234.42C181.857 234.48 181.815 234.53 181.763 234.566C181.71 234.602 181.649 234.621 181.586 234.623C181.392 234.623 161.524 235.477 152.169 238.327C146.738 239.947 141.458 242.078 136.396 244.694C136.342 244.722 136.283 244.737 136.222 244.738L127.84 244.542L126.112 267.767L137.43 268.165C137.488 268.17 137.545 268.187 137.596 268.216C137.652 268.216 143.662 271.725 169.331 274.156C195.354 276.623 207.401 277.194 210.024 274.069C213.015 270.509 214.049 264.779 214.299 263.108C214.361 262.652 214.541 261.87 214.805 260.677C217.878 247.36 219.434 233.712 219.441 220.015C219.441 204.72 210.773 182.711 193.688 154.603L193.161 153.742C188.227 145.595 182.981 146.883 180.469 147.498C180.378 147.52 180.284 147.504 180.205 147.454C180.125 147.404 180.068 147.324 180.045 147.231C180.035 147.184 180.034 147.136 180.042 147.089C180.049 147.042 180.066 146.997 180.09 146.956C180.115 146.916 180.147 146.881 180.184 146.853C180.222 146.826 180.264 146.807 180.309 146.796C184.382 145.798 189.171 145.798 193.751 153.351L194.271 154.22C211.433 182.436 220.135 204.583 220.135 220.015C220.126 233.768 218.566 247.471 215.485 260.843C215.228 261.972 215.048 262.789 214.986 263.216C214.729 264.938 213.66 270.835 210.544 274.546C209.149 276.203 205.617 276.927 199.198 276.927Z" fill="#263238"/>
<path d="M185.93 231.105C185.869 231.106 185.809 231.09 185.757 231.058C185.704 231.026 185.661 230.98 185.632 230.924C185.591 230.853 185.576 230.77 185.587 230.688C185.598 230.607 185.636 230.532 185.694 230.476L197.179 219.333C197.211 219.3 197.248 219.273 197.29 219.255C197.332 219.236 197.377 219.227 197.422 219.227C197.467 219.227 197.512 219.236 197.554 219.255C197.595 219.273 197.633 219.3 197.665 219.333C197.697 219.367 197.723 219.407 197.741 219.451C197.758 219.495 197.767 219.543 197.767 219.59C197.767 219.638 197.758 219.685 197.741 219.729C197.723 219.774 197.697 219.814 197.665 219.847L187.255 229.976L198.005 226.72C198.097 226.694 198.195 226.706 198.279 226.755C198.362 226.804 198.423 226.885 198.449 226.981C198.475 227.077 198.463 227.18 198.416 227.266C198.369 227.353 198.291 227.417 198.199 227.444L186.048 231.119L185.93 231.105Z" fill="#263238"/>
<path d="M201.884 226.281C201.792 226.294 201.699 226.268 201.625 226.209C201.552 226.15 201.504 226.062 201.492 225.966C201.48 225.871 201.505 225.774 201.561 225.697C201.618 225.62 201.702 225.57 201.794 225.558L205.631 224.4C205.675 224.386 205.721 224.381 205.766 224.386C205.812 224.39 205.856 224.404 205.897 224.427C205.937 224.45 205.972 224.482 206 224.519C206.029 224.557 206.049 224.6 206.061 224.646C206.087 224.738 206.077 224.837 206.032 224.921C205.988 225.005 205.914 225.068 205.825 225.095L201.981 226.252C201.951 226.27 201.918 226.279 201.884 226.281Z" fill="#263238"/>
<path d="M199.393 237.712H199.268C194.23 235.686 181.676 234.645 181.544 234.637C181.499 234.634 181.454 234.62 181.414 234.599C181.373 234.577 181.337 234.547 181.307 234.511C181.277 234.475 181.255 234.433 181.241 234.387C181.227 234.342 181.221 234.294 181.225 234.247C181.229 234.199 181.241 234.153 181.262 234.11C181.283 234.068 181.311 234.03 181.346 233.999C181.381 233.968 181.421 233.945 181.465 233.93C181.508 233.916 181.554 233.91 181.6 233.914C182.12 233.957 194.382 234.977 199.517 237.032C199.563 237.041 199.607 237.059 199.646 237.085C199.684 237.111 199.718 237.145 199.745 237.184C199.771 237.224 199.79 237.269 199.799 237.316C199.809 237.363 199.81 237.412 199.802 237.459C199.794 237.507 199.777 237.552 199.752 237.593C199.727 237.633 199.694 237.668 199.656 237.696C199.618 237.723 199.575 237.743 199.53 237.753C199.485 237.763 199.438 237.764 199.393 237.756V237.712Z" fill="#263238"/>
<path d="M202.959 248.448C202.906 248.448 202.853 248.434 202.805 248.409C202.756 248.384 202.714 248.348 202.682 248.303C202.161 247.58 201.592 246.922 200.989 246.263C200.933 246.193 200.905 246.103 200.91 246.012C200.915 245.921 200.953 245.835 201.016 245.772C201.079 245.709 201.163 245.673 201.251 245.671C201.338 245.67 201.423 245.703 201.488 245.764C202.102 246.432 202.684 247.132 203.23 247.862C203.287 247.937 203.313 248.032 203.302 248.127C203.292 248.222 203.246 248.309 203.174 248.369C203.113 248.418 203.037 248.446 202.959 248.448Z" fill="#263238"/>
<path d="M198.817 244.044C198.736 244.042 198.659 244.014 198.594 243.964C195.071 240.989 191.006 238.789 186.645 237.496C186.599 237.485 186.556 237.465 186.518 237.437C186.48 237.408 186.447 237.372 186.423 237.331C186.398 237.29 186.381 237.244 186.373 237.196C186.366 237.148 186.367 237.098 186.377 237.051C186.388 237.003 186.407 236.959 186.434 236.919C186.462 236.879 186.496 236.845 186.536 236.82C186.575 236.794 186.619 236.776 186.665 236.768C186.712 236.76 186.759 236.761 186.804 236.772C191.27 238.087 195.432 240.335 199.039 243.378C199.095 243.425 199.136 243.49 199.155 243.562C199.175 243.635 199.172 243.712 199.148 243.783C199.124 243.854 199.078 243.915 199.019 243.958C198.96 244.001 198.889 244.023 198.817 244.022V244.044Z" fill="#263238"/>
<path d="M136.236 267.03C136.144 267.03 136.056 266.992 135.991 266.924C135.926 266.856 135.889 266.764 135.889 266.668L135.723 246.648C135.722 246.601 135.73 246.554 135.746 246.509C135.763 246.465 135.788 246.425 135.819 246.391C135.851 246.356 135.889 246.329 135.931 246.31C135.972 246.291 136.017 246.28 136.063 246.279C136.155 246.279 136.243 246.318 136.308 246.385C136.373 246.453 136.41 246.545 136.41 246.641L136.611 266.661C136.611 266.757 136.575 266.85 136.51 266.919C136.445 266.988 136.357 267.028 136.264 267.03H136.236Z" fill="#263238"/>
<path d="M134.848 262.071H126.521C126.429 262.071 126.341 262.033 126.276 261.965C126.211 261.897 126.174 261.805 126.174 261.709C126.174 261.613 126.211 261.521 126.276 261.453C126.341 261.386 126.429 261.348 126.521 261.348H134.848C134.94 261.348 135.029 261.386 135.094 261.453C135.159 261.521 135.195 261.613 135.195 261.709C135.194 261.805 135.156 261.896 135.092 261.963C135.027 262.03 134.94 262.069 134.848 262.071Z" fill="#263238"/>
<path d="M128.513 250.3C128.424 250.3 128.339 250.265 128.274 250.202C128.21 250.138 128.171 250.052 128.166 249.96C128.163 249.913 128.169 249.865 128.184 249.821C128.199 249.776 128.222 249.735 128.253 249.7C128.283 249.665 128.32 249.637 128.361 249.617C128.402 249.597 128.447 249.585 128.492 249.584L131.857 249.374C131.903 249.371 131.949 249.377 131.992 249.393C132.035 249.408 132.075 249.433 132.109 249.464C132.143 249.496 132.171 249.534 132.191 249.577C132.211 249.62 132.223 249.666 132.225 249.714C132.229 249.809 132.197 249.903 132.136 249.974C132.076 250.046 131.991 250.09 131.899 250.097L128.533 250.3H128.513Z" fill="#263238"/>
</svg>
