<svg width="300" height="300" viewBox="0 0 300 300" fill="none" xmlns="http://www.w3.org/2000/svg">
<path d="M193.862 212.407C196.346 213.536 202.404 213.391 202.411 213.391C202.418 213.391 201.107 209.253 200.989 209C199.663 206.106 195.437 201.309 192.037 201.765C191.47 201.861 190.93 202.08 190.45 202.409C189.971 202.737 189.563 203.167 189.253 203.671C188.944 204.175 188.739 204.741 188.653 205.332C188.567 205.924 188.602 206.527 188.754 207.104C189.323 209.607 191.752 211.445 193.862 212.407Z" fill="#263238"/>
<path d="M195.958 230.712C198.525 231.103 203.938 229.468 204.368 229.338C205.259 232.565 206.356 235.726 207.651 238.801C208.393 240.596 209.198 242.383 210.024 244.162C209.531 243.439 209.08 242.715 209.011 242.65C206.991 240.219 201.724 236.754 198.546 238.165C198.024 238.414 197.558 238.774 197.179 239.223C196.8 239.672 196.515 240.2 196.344 240.771C196.174 241.342 196.12 241.945 196.187 242.539C196.255 243.133 196.441 243.706 196.735 244.22C197.908 246.449 200.718 247.548 202.98 247.896C205.243 248.243 209.92 246.948 211.155 246.586C211.474 247.266 211.793 247.946 212.12 248.626C213.688 251.875 215.263 255.138 216.714 258.343C217.227 259.479 217.692 260.615 218.164 261.751C217.727 261.085 217.352 260.528 217.283 260.449C215.263 258.018 209.996 254.552 206.818 255.963C206.296 256.211 205.83 256.571 205.451 257.02C205.072 257.468 204.788 257.995 204.617 258.565C204.446 259.136 204.392 259.738 204.459 260.332C204.527 260.925 204.713 261.498 205.007 262.011C206.179 264.24 208.99 265.347 211.252 265.687C213.514 266.027 217.748 264.869 219.205 264.442C219.649 265.629 220.1 266.808 220.482 267.973C220.725 268.776 221.016 269.529 221.217 270.346C221.419 271.164 221.648 271.952 221.856 272.741C222.21 274.282 222.584 275.867 222.897 277.371C223.119 278.421 223.313 279.426 223.507 280.439C223.015 279.303 221.995 277.097 221.883 276.923C220.246 274.195 215.541 269.941 212.168 270.831C211.616 270.994 211.103 271.277 210.662 271.661C210.222 272.045 209.864 272.522 209.612 273.06C209.36 273.598 209.219 274.185 209.199 274.783C209.179 275.381 209.281 275.977 209.497 276.532C210.336 278.92 212.966 280.454 215.152 281.155C217.581 281.922 222.945 281.221 223.618 281.155C223.938 282.827 224.236 284.462 224.493 286.003C224.632 286.82 224.756 287.587 224.874 288.354H227.012C226.852 287.472 226.686 286.56 226.505 285.612C226.186 283.912 225.811 282.103 225.409 280.244C227.027 279.571 228.605 278.797 230.135 277.929C231.904 279.925 236.429 282.27 237.019 282.559C236.401 284.136 235.783 285.67 235.186 287.103C235.006 287.537 234.826 287.942 234.652 288.354H236.901L237.067 287.935C237.706 286.336 238.344 284.607 238.996 282.827C239.642 282.971 244.957 284.1 247.435 283.514C249.683 282.986 252.403 281.662 253.41 279.347C253.664 278.81 253.807 278.224 253.83 277.627C253.853 277.029 253.754 276.433 253.542 275.878C253.329 275.322 253.006 274.819 252.595 274.402C252.184 273.985 251.693 273.663 251.154 273.457C247.879 272.307 242.882 276.185 241.05 278.775C240.946 278.927 239.947 280.714 239.343 281.857C239.6 281.134 239.864 280.41 240.12 279.687C240.641 278.24 241.12 276.706 241.647 275.1C241.869 274.311 242.098 273.515 242.341 272.712C242.584 271.909 242.751 271.055 242.959 270.223C243.403 268.27 243.764 266.273 244.083 264.254C245.332 264.725 249.787 266.345 252.091 266.172C254.395 265.998 257.275 265.122 258.607 262.995C258.935 262.504 259.16 261.947 259.268 261.359C259.376 260.771 259.364 260.166 259.233 259.584C259.102 259.001 258.855 258.454 258.508 257.977C258.161 257.5 257.722 257.105 257.219 256.817C254.145 255.167 248.642 258.206 246.456 260.478C246.324 260.615 244.93 262.431 244.18 263.437C244.367 262.221 244.555 261.013 244.701 259.776C245.124 256.202 245.45 252.577 245.79 248.959C245.894 247.852 246.005 246.745 246.116 245.646C246.56 245.819 251.82 247.86 254.402 247.671C256.699 247.498 259.586 246.622 260.911 244.488C261.24 243.997 261.466 243.44 261.574 242.852C261.683 242.264 261.671 241.659 261.54 241.076C261.409 240.493 261.162 239.945 260.814 239.468C260.467 238.992 260.027 238.597 259.523 238.309C256.456 236.66 250.953 239.706 248.767 241.97C248.601 242.144 246.602 244.756 246.123 245.443C246.373 243.012 246.637 240.588 246.997 238.208C247.461 234.995 248.127 231.816 248.989 228.694C249.19 228.781 254.666 230.929 257.317 230.741C259.613 230.568 262.493 229.692 263.826 227.558C264.155 227.067 264.381 226.51 264.489 225.922C264.597 225.334 264.586 224.728 264.455 224.145C264.324 223.563 264.077 223.015 263.729 222.538C263.382 222.062 262.942 221.667 262.438 221.379C259.371 219.73 253.868 222.776 251.682 225.04C251.508 225.221 249.357 228.028 249.003 228.571C249.052 228.39 249.086 228.195 249.142 228.014C250.089 224.908 251.299 221.896 252.757 219.013C253.541 217.414 254.374 215.931 255.221 214.499C256.206 215.012 260.71 217.291 263.111 217.393C265.512 217.494 268.371 216.944 269.919 214.983C270.298 214.535 270.583 214.009 270.755 213.438C270.927 212.867 270.982 212.266 270.917 211.671C270.851 211.077 270.667 210.504 270.375 209.989C270.084 209.474 269.692 209.029 269.225 208.682C266.345 206.692 260.557 209.087 258.121 211.091C257.99 211.199 256.775 212.458 255.908 213.392C256.296 212.755 256.685 212.089 257.074 211.482C258.517 209.217 259.974 207.235 261.279 205.484C262.028 204.5 262.722 203.624 263.361 202.807C264.575 202.807 269.461 202.633 271.598 201.584C273.735 200.535 276.067 198.69 276.574 196.172C276.71 195.591 276.728 194.987 276.626 194.398C276.524 193.81 276.305 193.25 275.983 192.756C275.66 192.261 275.242 191.843 274.754 191.528C274.266 191.213 273.721 191.008 273.152 190.927C269.724 190.543 265.644 195.449 264.388 198.386C264.277 198.639 263 202.814 263.083 202.814H263.16C262.507 203.581 261.82 204.413 261.078 205.339C259.731 207.061 258.233 209.014 256.734 211.257C255.096 213.659 253.592 216.157 252.23 218.738C250.694 221.623 249.407 224.645 248.385 227.768C248.385 227.804 248.385 227.847 248.385 227.883C248.385 226.827 248.385 223.875 248.33 223.651C247.934 220.46 245.374 214.542 241.973 213.891C241.407 213.799 240.828 213.832 240.274 213.989C239.72 214.145 239.205 214.422 238.76 214.8C238.316 215.178 237.953 215.649 237.694 216.183C237.436 216.717 237.289 217.302 237.261 217.899C237.067 220.431 238.823 222.964 240.544 224.57C242.48 226.371 247.858 228.115 248.288 228.252C247.324 231.457 246.563 234.725 246.012 238.034C245.686 239.966 245.408 241.912 245.159 243.873C245.159 242.961 245.159 242.144 245.117 242.035C244.714 238.845 242.154 232.926 238.76 232.268C238.193 232.175 237.613 232.207 237.059 232.363C236.504 232.519 235.988 232.796 235.543 233.174C235.097 233.552 234.734 234.024 234.475 234.558C234.216 235.093 234.069 235.678 234.041 236.276C233.847 238.808 235.61 241.341 237.324 242.947C239.038 244.553 243.625 246.159 244.832 246.564C244.749 247.288 244.652 248.069 244.562 248.822C244.145 252.439 243.75 256.057 243.257 259.573C243.084 260.81 242.868 262.033 242.653 263.249C242.653 262.438 242.653 261.758 242.612 261.65C242.216 258.466 239.656 252.548 236.262 251.89C235.695 251.796 235.115 251.829 234.561 251.985C234.006 252.141 233.49 252.417 233.044 252.795C232.599 253.173 232.235 253.645 231.977 254.18C231.718 254.714 231.57 255.3 231.543 255.898C231.349 258.43 233.105 260.962 234.826 262.568C236.547 264.175 240.683 265.622 242.119 266.106C241.869 267.344 241.619 268.588 241.321 269.782C241.099 270.592 240.939 271.381 240.676 272.184C240.412 272.987 240.183 273.768 239.94 274.55C239.42 276.04 238.892 277.574 238.351 279.014C237.983 280.012 237.615 280.96 237.247 281.908C237.435 280.678 237.747 278.247 237.754 278.044C237.717 275.216 236.984 272.446 235.624 269.999C235.636 269.682 235.618 269.364 235.568 269.051C235.498 268.457 235.308 267.885 235.011 267.373C234.715 266.86 234.317 266.419 233.846 266.077C233.374 265.736 232.839 265.502 232.275 265.391C231.711 265.28 231.13 265.295 230.572 265.434C227.234 266.36 225.117 272.466 224.958 275.678C224.958 275.867 225.069 277.936 225.166 279.238C224.999 278.478 224.84 277.74 224.659 276.966C224.312 275.425 223.917 273.899 223.5 272.256C223.271 271.475 223.042 270.679 222.806 269.876C222.57 269.073 222.265 268.263 221.995 267.445C221.335 265.564 220.607 263.69 219.781 261.816C221.072 261.498 225.645 260.282 227.477 258.813C229.309 257.345 231.245 254.957 231.224 252.418C231.238 251.821 231.131 251.229 230.91 250.678C230.69 250.127 230.361 249.631 229.945 249.222C229.529 248.813 229.034 248.499 228.495 248.302C227.955 248.104 227.381 248.028 226.811 248.077C223.375 248.467 220.398 254.169 219.774 257.316C219.739 257.511 219.531 259.826 219.441 261.1C218.955 259.978 218.469 258.857 217.935 257.743C216.401 254.516 214.757 251.311 213.119 248.098C212.619 247.114 212.134 246.123 211.641 245.139C212.106 245.031 217.567 243.692 219.621 242.064C221.453 240.617 223.389 238.208 223.369 235.668C223.382 235.072 223.275 234.479 223.055 233.929C222.835 233.378 222.506 232.882 222.089 232.473C221.673 232.063 221.179 231.75 220.639 231.553C220.099 231.355 219.525 231.279 218.955 231.327C215.527 231.718 212.543 237.419 211.918 240.567C211.877 240.805 211.585 244.133 211.551 244.98C210.468 242.809 209.413 240.639 208.456 238.468C207.14 235.523 206.014 232.489 205.083 229.388C205.298 229.338 211.002 227.985 213.112 226.306C214.937 224.859 216.88 222.45 216.859 219.91C216.872 219.314 216.764 218.722 216.543 218.172C216.323 217.622 215.994 217.127 215.578 216.717C215.162 216.308 214.668 215.995 214.129 215.797C213.589 215.599 213.016 215.522 212.446 215.569C209.011 215.953 206.034 221.661 205.409 224.809C205.361 225.055 205.055 228.636 205.041 229.287C204.986 229.106 204.916 228.925 204.861 228.744C204.009 225.611 203.424 222.406 203.112 219.165C202.925 217.378 202.835 215.656 202.786 213.978C203.876 213.84 208.837 213.153 210.891 211.851C212.945 210.548 215.055 208.457 215.291 205.925C215.37 205.332 215.329 204.729 215.169 204.154C215.01 203.58 214.735 203.046 214.365 202.59C213.994 202.133 213.535 201.763 213.018 201.503C212.501 201.244 211.937 201.101 211.363 201.085C207.893 201.085 204.347 206.403 203.397 209.463C203.348 209.629 203.001 211.38 202.765 212.661C202.765 211.901 202.731 211.12 202.731 210.396C202.731 207.676 202.904 205.18 203.064 202.973C203.168 201.721 203.286 200.586 203.404 199.529C204.403 198.806 208.4 195.912 209.649 193.777C210.898 191.643 211.828 188.763 210.933 186.398C210.741 185.834 210.437 185.319 210.041 184.886C209.645 184.452 209.165 184.111 208.635 183.884C208.104 183.657 207.533 183.548 206.959 183.566C206.385 183.584 205.822 183.728 205.305 183.988C202.238 185.645 201.433 192.084 201.939 195.253C201.981 195.528 203.14 199.732 203.195 199.696L203.251 199.652C203.119 200.665 202.987 201.758 202.862 202.951C202.654 205.158 202.432 207.654 202.377 210.389C202.278 213.333 202.345 216.28 202.578 219.216C202.82 222.507 203.345 225.768 204.146 228.962C204.156 229.001 204.167 229.039 204.181 229.077C203.633 228.187 202.037 225.749 201.891 225.576C199.878 223.145 194.604 219.686 191.426 221.09C190.904 221.339 190.438 221.7 190.059 222.149C189.68 222.598 189.395 223.125 189.225 223.696C189.054 224.268 189 224.87 189.067 225.464C189.135 226.059 189.321 226.631 189.615 227.146C190.871 229.265 193.681 230.365 195.958 230.712Z" fill="#263238"/>
<path d="M255.179 213.78C255.235 213.816 256.283 209.576 256.317 209.301C256.748 206.118 255.769 199.701 252.66 198.138C252.137 197.894 251.571 197.768 250.999 197.768C250.426 197.767 249.86 197.892 249.336 198.134C248.813 198.376 248.344 198.73 247.96 199.173C247.576 199.616 247.286 200.139 247.109 200.706C246.276 203.094 247.331 206.024 248.58 208.043C250.044 210.423 255.179 213.78 255.179 213.78Z" fill="#263238"/>
<path d="M107.146 165.063H15.1839V40.8652H107.146V165.063ZM15.8779 164.339H106.452V41.5887H15.8779V164.339Z" fill="#263238"/>
<path d="M104.551 161.562H17.7515V44.3535H104.551V161.562ZM18.501 160.838H103.857V45.077H18.4455L18.501 160.838Z" fill="#263238"/>
<path d="M82.9827 132.359H39.3542V73.5742H82.9827V132.359ZM40.062 131.636H82.2888V74.2977H40.0481L40.062 131.636Z" fill="#263238"/>
<path d="M206.353 112.495L191.371 110.289L193.452 94.7765L208.442 96.947L206.353 112.495ZM192.155 109.674L205.763 111.678L207.671 97.5982L194.056 95.5941L192.155 109.674ZM208.74 89.2417L195.035 87.2231L197.019 72.5648L197.151 72.478C200.781 70.1578 204.234 67.5478 207.477 64.6713C210.511 62.0055 213.151 58.8874 215.312 55.4177C217.355 52.1104 218.685 48.3807 219.212 44.4855C219.621 41.4684 219.288 39.0013 218.219 37.1346C217.151 35.268 215.388 34.1899 212.952 33.8282C212.024 33.6371 211.068 33.6398 210.14 33.836C209.212 34.0322 208.331 34.4181 207.547 34.9713C206.814 35.5626 206.207 36.3057 205.764 37.1537C205.321 38.0017 205.051 38.9363 204.972 39.8984C204.836 40.842 204.812 41.7995 204.903 42.7491C204.993 43.6824 205.111 44.6881 205.257 45.7371L205.305 46.1206L190.989 47.2276L190.933 46.9165C190.637 45.3952 190.458 43.8516 190.399 42.3005C190.345 40.7917 190.42 39.2809 190.621 37.7858C191.475 31.484 194.049 26.6582 198.255 23.4386C202.46 20.219 208.109 19.0976 215 20.125C222.036 21.1596 227.296 23.9957 230.648 28.5466C234 33.0975 235.2 39.1315 234.208 46.4679C233.635 51.019 232.201 55.4063 229.989 59.3753C227.753 63.2682 224.927 66.7574 221.62 69.707C218.069 72.8799 214.253 75.7152 210.218 78.1792L208.74 89.2417ZM195.819 86.6081L208.15 88.4241L209.601 77.7017L209.746 77.6149C213.797 75.1521 217.624 72.3116 221.183 69.1282C224.432 66.2216 227.209 62.7864 229.406 58.9556C231.584 55.0769 232.999 50.7852 233.57 46.3304C234.534 39.1966 233.382 33.3507 230.148 28.9662C226.915 24.5818 221.821 21.8324 214.951 20.8195C208.247 19.8356 202.779 20.9063 198.713 24.003C194.646 27.0996 192.134 31.7517 191.308 37.8509C191.112 39.3029 191.04 40.7701 191.093 42.2354C191.146 43.6416 191.299 45.0418 191.551 46.4245L204.514 45.4188C204.396 44.4999 204.292 43.6173 204.209 42.7852C204.114 41.7777 204.14 40.7619 204.285 39.761C204.376 38.7034 204.677 37.6771 205.167 36.7468C205.658 35.8166 206.329 35.0026 207.137 34.3564C207.992 33.745 208.955 33.317 209.97 33.0971C210.985 32.8773 212.032 32.87 213.05 33.0758C215.707 33.4664 217.644 34.6964 218.809 36.6933C219.975 38.6902 220.329 41.331 219.899 44.5144C219.364 48.5232 217.997 52.3624 215.895 55.765C213.697 59.2915 211.013 62.4609 207.928 65.1706C204.698 68.0316 201.264 70.634 197.658 72.9555L195.819 86.6081Z" fill="#FA8C16"/>
<path d="M119.006 147.947C119.006 147.947 74.461 148.562 73.0731 151.868C71.6852 155.175 65.3495 195.221 64.9539 209.026C64.5584 222.83 64.3641 231.939 65.745 233.589C67.126 235.238 88.7147 248.247 88.7147 248.247C88.7147 248.247 78.6178 285.197 81.7752 286.441C84.9327 287.685 104.349 292.837 116.82 293.047C129.29 293.256 141.573 293.249 142.565 293.249C143.557 293.249 175.431 294.486 186.52 291.802C197.609 289.118 200.968 288.908 200.968 284.372C200.968 279.835 198.192 274.243 197.998 273.23C197.803 272.217 205.527 193.955 201.169 174.76C196.811 155.566 191.072 148.128 186.714 146.891C182.356 145.654 151.274 146.478 151.274 146.478L119.006 147.947Z" fill="#FA8C16"/>
<path d="M159.657 293.936C154.799 293.936 149.38 293.856 143.537 293.683H142.572C140.351 293.683 128.693 293.683 116.827 293.48C104.148 293.27 84.7453 288.054 81.6642 286.845C80.9703 286.585 79.395 285.963 83.7461 266.869C85.6475 258.462 87.9097 250.091 88.3261 248.492C85.8626 247.009 66.8484 235.505 65.5091 233.899C64.0449 232.155 64.2114 223.77 64.6278 209.09C65.0303 195.105 71.4701 154.892 72.7747 151.774C74.1626 148.424 111.532 147.737 119.019 147.635L151.288 146.188C152.565 146.152 182.516 145.378 186.832 146.615C189.511 147.339 196.291 151.636 201.537 174.745C205.125 190.561 200.614 245.461 198.914 266.124C198.588 270.096 198.352 272.969 198.372 273.251C198.528 273.754 198.709 274.249 198.914 274.734C199.76 276.904 201.343 280.985 201.343 284.443C201.343 288.784 198.518 289.421 190.121 291.396L186.652 292.228C181.863 293.371 172.502 293.936 159.657 293.936ZM171.003 146.615C161.572 146.615 151.468 146.876 151.288 146.883L119.019 148.33C101.879 148.569 74.3431 149.777 73.3993 152.034C72.1016 155.124 65.7103 195.148 65.3078 209.083C64.9609 221.259 64.6555 231.779 66.0018 233.4C67.1052 234.717 82.8925 244.368 88.9021 247.979C88.9689 248.019 89.021 248.082 89.0499 248.156C89.0788 248.231 89.0829 248.314 89.0617 248.391C84.1277 266.399 80.1098 285.413 81.9071 286.136C84.9674 287.33 104.238 292.511 116.834 292.72C128.707 292.916 140.351 292.923 142.572 292.923H143.557C164.73 293.545 179.962 293.031 186.444 291.476C187.713 291.165 188.879 290.897 189.948 290.644C198.15 288.712 200.628 288.126 200.628 284.393C200.628 281.079 199.08 277.093 198.248 274.951C198.021 274.419 197.826 273.873 197.665 273.316C197.63 273.106 197.727 271.833 198.206 266.008C199.899 245.374 204.403 190.568 200.836 174.846C195.68 152.114 189.185 147.975 186.631 147.245C184.806 146.767 178.095 146.615 171.003 146.615Z" fill="#263238"/>
<path d="M138.103 167.367C138.035 167.368 137.968 167.348 137.912 167.309C137.855 167.271 137.81 167.215 137.784 167.15C137.765 167.106 137.756 167.059 137.755 167.012C137.754 166.964 137.762 166.916 137.779 166.872C137.796 166.828 137.821 166.787 137.852 166.753C137.884 166.719 137.922 166.691 137.964 166.672C139.542 165.97 141.076 165.165 142.558 164.263C142.598 164.239 142.642 164.224 142.687 164.218C142.732 164.212 142.778 164.215 142.822 164.227C142.867 164.24 142.908 164.261 142.944 164.29C142.98 164.319 143.011 164.356 143.034 164.397C143.056 164.438 143.071 164.484 143.077 164.531C143.083 164.578 143.08 164.626 143.068 164.672C143.056 164.719 143.035 164.762 143.007 164.799C142.98 164.837 142.945 164.869 142.905 164.893C141.399 165.808 139.839 166.625 138.235 167.338C138.194 167.358 138.149 167.368 138.103 167.367Z" fill="#263238"/>
<path d="M144.827 163.588C144.77 163.588 144.714 163.573 144.663 163.545C144.613 163.518 144.569 163.478 144.536 163.429C144.486 163.348 144.47 163.251 144.489 163.157C144.509 163.063 144.563 162.982 144.64 162.93C150.156 159.099 154.999 154.307 158.956 148.764C158.983 148.724 159.016 148.691 159.055 148.666C159.093 148.64 159.137 148.623 159.182 148.615C159.227 148.607 159.273 148.608 159.318 148.619C159.362 148.629 159.405 148.649 159.442 148.677C159.479 148.703 159.511 148.738 159.536 148.777C159.56 148.817 159.577 148.862 159.584 148.908C159.592 148.955 159.591 149.002 159.581 149.048C159.571 149.094 159.552 149.138 159.525 149.176C155.515 154.792 150.609 159.647 145.022 163.53C144.964 163.57 144.896 163.59 144.827 163.588Z" fill="#263238"/>
<path d="M148.908 165.615C148.846 165.614 148.785 165.597 148.731 165.564C148.677 165.531 148.633 165.484 148.603 165.427C148.581 165.385 148.567 165.339 148.562 165.292C148.557 165.245 148.561 165.197 148.574 165.151C148.587 165.105 148.608 165.063 148.637 165.026C148.666 164.988 148.701 164.958 148.741 164.935C152.211 162.996 156.271 157.085 156.312 157.027C156.337 156.984 156.37 156.947 156.409 156.917C156.448 156.888 156.492 156.868 156.539 156.857C156.586 156.847 156.635 156.847 156.682 156.857C156.729 156.868 156.774 156.888 156.813 156.917C156.852 156.946 156.885 156.984 156.909 157.027C156.934 157.07 156.95 157.118 156.955 157.168C156.961 157.218 156.957 157.268 156.943 157.316C156.929 157.364 156.906 157.409 156.874 157.447C156.708 157.693 152.711 163.553 149.067 165.572C149.019 165.6 148.964 165.615 148.908 165.615Z" fill="#263238"/>
<path d="M128.291 223.742C128.218 223.741 128.147 223.716 128.088 223.67C128.03 223.625 127.986 223.561 127.964 223.489L126.799 219.712C126.784 219.667 126.777 219.619 126.78 219.571C126.784 219.524 126.796 219.477 126.817 219.435C126.837 219.392 126.866 219.354 126.901 219.324C126.936 219.293 126.977 219.27 127.021 219.256C127.108 219.226 127.203 219.234 127.285 219.278C127.367 219.321 127.429 219.396 127.458 219.488L128.624 223.264C128.652 223.355 128.645 223.455 128.603 223.54C128.561 223.626 128.489 223.69 128.402 223.72C128.366 223.734 128.329 223.742 128.291 223.742Z" fill="#263238"/>
<path d="M134.647 244.319C134.574 244.319 134.503 244.294 134.444 244.249C134.385 244.203 134.342 244.139 134.321 244.066L129.158 227.36C129.13 227.264 129.139 227.16 129.184 227.071C129.229 226.983 129.305 226.916 129.397 226.886C129.489 226.856 129.589 226.866 129.674 226.913C129.76 226.96 129.823 227.04 129.852 227.136L135.015 243.849C135.042 243.94 135.033 244.038 134.992 244.123C134.951 244.208 134.879 244.273 134.793 244.305L134.647 244.319Z" fill="#263238"/>
<path d="M136.236 244.732C136.169 244.735 136.103 244.714 136.049 244.674C136.01 244.649 135.977 244.616 135.95 244.577C135.923 244.538 135.904 244.495 135.894 244.448C135.884 244.402 135.882 244.354 135.89 244.307C135.897 244.26 135.914 244.215 135.938 244.175L141.087 235.717C141.11 235.675 141.142 235.64 141.179 235.611C141.216 235.583 141.258 235.563 141.303 235.552C141.347 235.541 141.394 235.54 141.439 235.548C141.484 235.557 141.527 235.575 141.566 235.601C141.643 235.653 141.697 235.734 141.718 235.827C141.739 235.92 141.724 236.018 141.677 236.1L136.528 244.565C136.496 244.616 136.453 244.657 136.402 244.686C136.351 244.715 136.294 244.731 136.236 244.732Z" fill="#263238"/>
<path d="M147.915 239.775C147.848 239.777 147.781 239.759 147.723 239.721C147.666 239.684 147.62 239.629 147.593 239.565C147.565 239.5 147.557 239.429 147.568 239.359C147.58 239.289 147.612 239.225 147.659 239.174L160.15 224.516C160.211 224.444 160.298 224.401 160.39 224.395C160.483 224.39 160.573 224.423 160.643 224.487C160.712 224.551 160.753 224.642 160.758 224.738C160.764 224.834 160.732 224.929 160.67 225.001L148.179 239.659C148.146 239.697 148.105 239.727 148.06 239.747C148.014 239.767 147.965 239.777 147.915 239.775Z" fill="#263238"/>
<path d="M142.572 293.655H142.475L115.598 285.486C115.555 285.473 115.514 285.451 115.478 285.421C115.443 285.391 115.413 285.355 115.391 285.313C115.369 285.271 115.355 285.226 115.351 285.178C115.346 285.131 115.35 285.083 115.362 285.038C115.374 284.992 115.395 284.948 115.423 284.911C115.452 284.873 115.487 284.842 115.527 284.819C115.567 284.796 115.612 284.782 115.657 284.777C115.703 284.772 115.749 284.777 115.793 284.792L142.662 292.946C142.754 292.959 142.837 293.01 142.893 293.087C142.949 293.165 142.974 293.262 142.961 293.358C142.948 293.454 142.899 293.541 142.825 293.599C142.751 293.657 142.657 293.683 142.565 293.669L142.572 293.655Z" fill="#263238"/>
<path d="M112.531 284.532H112.434L107.826 283.128C107.734 283.101 107.656 283.037 107.609 282.95C107.562 282.864 107.55 282.761 107.576 282.665C107.602 282.569 107.663 282.488 107.747 282.439C107.83 282.39 107.928 282.378 108.02 282.405L112.628 283.808C112.672 283.821 112.713 283.844 112.748 283.873C112.784 283.903 112.813 283.94 112.835 283.981C112.857 284.023 112.871 284.069 112.876 284.116C112.881 284.163 112.877 284.211 112.864 284.257C112.846 284.335 112.803 284.404 112.743 284.454C112.682 284.503 112.608 284.531 112.531 284.532Z" fill="#263238"/>
<path d="M118.728 56.1559C118.728 56.1559 104.745 52.806 102.073 56.5538C99.4015 60.3016 104.724 63.8467 103.968 64.6354C103.211 65.424 86.9521 74.0916 88.2706 82.5711C89.5891 91.0506 100.56 99.7183 100.942 102.106C101.324 104.493 88.2706 105.26 86.5704 108.806C84.8703 112.351 82.4067 129.107 96.5911 134.628C110.775 140.148 128.513 130.88 133.454 130.88C138.395 130.88 143.287 140.937 148.956 140.343C152.41 139.931 155.586 138.171 157.846 135.416C157.846 135.416 163.703 143.896 172.211 140.343C180.718 136.791 190.552 124.375 186.395 120.635C182.238 116.894 177.505 115.708 180.531 112.358C183.557 109.008 189.795 100.138 188.858 92.447C187.922 84.7561 179.213 84.1701 175.812 81.8042C172.412 79.4383 179.594 75.4952 179.407 68.9909C179.22 62.4865 174.674 51.6267 151.614 44.3916C128.554 37.1565 117.208 40.6438 116.07 46.7575C115.714 48.4305 115.772 50.1703 116.237 51.814C116.701 53.4577 117.559 54.9516 118.728 56.1559Z" fill="#263238"/>
<path d="M168.102 141.544C162.697 141.544 158.88 137.254 157.86 135.966C155.565 138.621 152.418 140.309 149.012 140.712C145.854 141.045 142.995 138.303 140.24 135.647C137.881 133.376 135.646 131.234 133.474 131.234C132.149 131.234 129.769 131.958 126.757 132.884C118.811 135.307 106.799 138.968 96.4939 134.96C91.5668 133.043 88.1665 129.635 86.3345 124.831C83.9057 118.377 85.0992 111.084 86.279 108.639C87.2505 106.62 91.3864 105.492 95.0366 104.5C97.5834 103.777 100.748 102.945 100.588 102.156C100.429 101.368 99.0198 99.8049 97.3336 97.9093C93.9401 94.0819 88.8049 88.3011 87.9236 82.6433C86.7647 75.2273 98.1594 67.9633 102.455 65.2284C103.052 64.845 103.621 64.5049 103.711 64.3892C103.486 63.9925 103.23 63.6151 102.948 63.2605C101.796 61.6977 99.8665 59.0714 101.789 56.351C104.12 53.0518 114.28 54.904 117.694 55.5769C116.751 54.3359 116.086 52.8906 115.749 51.3469C115.412 49.8033 115.41 48.2004 115.744 46.656C115.952 45.725 116.348 44.851 116.905 44.0924C117.463 43.3338 118.17 42.7081 118.978 42.2571C124.758 38.6395 136.701 39.2617 151.725 44.0152C175.708 51.5976 179.587 62.9132 179.768 68.9907C179.858 72.2609 178.179 74.8728 176.825 76.9493C175.902 78.3963 175.111 79.6118 175.278 80.5017C175.331 80.7097 175.424 80.9042 175.552 81.0734C175.68 81.2426 175.839 81.3828 176.02 81.4857C177.179 82.1832 178.404 82.7507 179.677 83.1787C183.612 84.698 188.505 86.5936 189.212 92.3889C190.142 99.9496 184.355 108.646 180.802 112.589C180.54 112.816 180.328 113.098 180.181 113.418C180.033 113.738 179.954 114.087 179.948 114.441C180.059 115.498 181.426 116.46 183.161 117.668C184.368 118.488 185.527 119.381 186.631 120.345C187.101 120.811 187.444 121.399 187.625 122.049C187.805 122.699 187.817 123.387 187.658 124.042C186.784 129.483 179.06 137.869 172.356 140.683C171.004 141.249 169.56 141.541 168.102 141.544ZM157.867 135.032C157.92 135.033 157.973 135.048 158.02 135.074C158.067 135.1 158.107 135.138 158.137 135.184C158.2 135.264 163.946 143.389 172.1 139.989C178.623 137.268 186.131 129.136 186.971 123.919C187.186 122.574 186.922 121.554 186.18 120.888C185.095 119.95 183.957 119.08 182.772 118.283C180.892 116.967 179.407 115.925 179.254 114.543C179.247 114.081 179.337 113.624 179.518 113.202C179.699 112.781 179.967 112.406 180.302 112.105C183.536 108.487 189.427 99.8049 188.525 92.4902C187.866 87.1363 183.189 85.3275 179.435 83.8733C178.111 83.4266 176.836 82.8348 175.632 82.1079C175.375 81.9518 175.151 81.7431 174.973 81.4945C174.795 81.2458 174.668 80.9623 174.598 80.6609C174.376 79.4816 175.202 78.1937 176.249 76.5658C177.547 74.5545 179.157 72.0511 179.074 69.0124C178.9 63.1303 175.097 52.1619 151.524 44.7098C136.687 40.0142 124.953 39.3486 119.339 42.8793C118.614 43.2783 117.979 43.8338 117.477 44.5088C116.974 45.1837 116.615 45.9626 116.424 46.7935C116.075 48.4124 116.125 50.097 116.568 51.6907C117.01 53.2845 117.832 54.7357 118.957 55.9097C119.015 55.9641 119.054 56.0364 119.069 56.1159C119.084 56.1955 119.074 56.2779 119.04 56.351C119.005 56.4232 118.948 56.481 118.877 56.5151C118.807 56.5492 118.727 56.5576 118.652 56.5391C114.821 55.6203 104.433 53.8838 102.372 56.7923C100.762 59.0786 102.372 61.2492 103.524 62.8409C104.218 63.7597 104.696 64.4326 104.218 64.9173C103.778 65.2686 103.314 65.5854 102.83 65.8651C99.0476 68.2744 87.5628 75.6036 88.6245 82.542C89.4711 87.9828 94.5161 93.6695 97.861 97.4318C99.8387 99.6602 101.143 101.129 101.289 102.055C101.518 103.502 98.8672 104.226 95.2031 105.217C91.8652 106.121 87.7154 107.25 86.8758 108.979C85.7793 111.265 84.6274 118.421 86.9521 124.578C87.7992 126.842 89.1117 128.885 90.7973 130.564C92.4829 132.243 94.5008 133.516 96.709 134.295C106.799 138.223 118.672 134.598 126.549 132.204C129.616 131.27 132.031 130.525 133.488 130.525C135.931 130.525 138.263 132.761 140.726 135.127C143.37 137.666 146.104 140.285 148.956 139.989C152.312 139.578 155.398 137.869 157.603 135.199C157.632 135.152 157.671 135.113 157.717 135.084C157.762 135.055 157.814 135.038 157.867 135.032Z" fill="#263238"/>
<path d="M121.247 119.398C121.247 119.398 116.521 150.148 116.334 151.132C116.147 152.115 124.661 160.986 136.181 159.408C142.929 158.563 149.13 155.121 153.571 149.757L149.983 119.203C149.983 119.203 140.15 124.13 134.099 123.935C128.048 123.74 121.247 119.398 121.247 119.398Z" fill="white"/>
<path d="M133.461 159.96C127.269 159.855 121.356 157.263 116.951 152.725C115.89 151.546 115.966 151.17 115.994 151.025C116.174 150.063 120.851 119.617 120.9 119.306C120.91 119.248 120.934 119.193 120.968 119.146C121.003 119.099 121.049 119.061 121.1 119.036C121.152 119.011 121.209 119 121.266 119.003C121.323 119.006 121.378 119.023 121.427 119.053C121.497 119.097 128.228 123.343 134.113 123.539C139.998 123.734 149.734 118.894 149.831 118.843C149.88 118.817 149.935 118.803 149.99 118.803C150.046 118.803 150.101 118.817 150.15 118.843C150.197 118.872 150.238 118.912 150.268 118.959C150.298 119.007 150.317 119.062 150.323 119.118L153.918 149.665C153.924 149.712 153.921 149.76 153.909 149.806C153.897 149.852 153.877 149.895 153.849 149.932C149.336 155.352 143.06 158.841 136.229 159.729C135.312 159.869 134.387 159.947 133.461 159.96ZM121.511 119.979C120.865 124.168 116.847 150.287 116.653 151.206C116.799 152.103 124.863 160.611 136.084 159.056C142.681 158.188 148.75 154.844 153.155 149.65L149.699 119.733C147.7 120.695 139.505 124.465 134.092 124.291C128.839 124.125 123.128 120.949 121.511 119.979Z" fill="#263238"/>
<path d="M119.304 135.894L139.213 131.879L121.247 119.398L119.304 135.894Z" fill="#263238"/>
<path d="M119.304 136.256C119.217 136.254 119.134 136.22 119.068 136.162C119.029 136.122 119 136.073 118.982 136.019C118.964 135.965 118.958 135.908 118.964 135.851L120.9 119.355C120.907 119.294 120.929 119.235 120.965 119.186C121 119.136 121.047 119.097 121.101 119.073C121.154 119.044 121.212 119.029 121.271 119.029C121.331 119.029 121.389 119.044 121.441 119.073L139.401 131.56C139.459 131.599 139.505 131.654 139.532 131.72C139.559 131.786 139.567 131.859 139.553 131.929C139.539 132 139.505 132.064 139.456 132.115C139.406 132.165 139.344 132.199 139.276 132.212L119.373 136.227L119.304 136.256ZM121.525 120.028L119.706 135.446L138.311 131.691L121.525 120.028Z" fill="#263238"/>
<path d="M110.741 92.2872C110.741 92.2872 107.41 87.8883 105.883 93.4448C104.356 99.0014 110.99 105.744 110.99 105.744L110.741 92.2872Z" fill="white"/>
<path d="M110.963 106.075C110.881 106.071 110.802 106.038 110.741 105.981C110.463 105.699 103.947 99.05 105.543 93.3487C106.05 91.5399 106.813 90.5198 107.812 90.3172C109.436 89.9916 110.97 91.9813 111.032 92.0681C111.081 92.1292 111.108 92.2058 111.108 92.2852L111.33 105.713C111.33 105.785 111.311 105.855 111.274 105.915C111.237 105.975 111.184 106.023 111.122 106.054C111.07 106.069 111.017 106.076 110.963 106.075ZM108.187 90.9973C108.108 90.9898 108.029 90.9898 107.951 90.9973C107.257 91.142 106.639 92.0175 106.216 93.5224C105.016 97.82 109.047 102.971 110.63 104.773L110.421 92.3937C109.998 91.9306 109.04 90.9973 108.159 90.9973H108.187Z" fill="#263238"/>
<path d="M158.463 92.2872C158.463 92.2872 161.794 87.8883 163.321 93.4448C164.848 99.0014 158.214 105.744 158.214 105.744L158.463 92.2872Z" fill="white"/>
<path d="M158.241 106.078C158.195 106.086 158.149 106.086 158.103 106.078C158.039 106.05 157.985 106.003 157.948 105.942C157.91 105.881 157.892 105.81 157.894 105.738L158.116 92.31C158.118 92.2321 158.143 92.1565 158.186 92.093C158.255 92.0061 159.796 90.0093 161.406 90.3421C162.412 90.5446 163.175 91.5648 163.682 93.3736C165.271 99.0748 158.755 105.724 158.477 106.006C158.41 106.06 158.326 106.086 158.241 106.078ZM158.804 92.4185L158.623 104.798C160.198 102.996 164.237 97.8448 163.037 93.5472C162.613 92.0423 162.01 91.1669 161.295 91.0222C160.337 90.8341 159.241 91.8904 158.804 92.4185Z" fill="#263238"/>
<path d="M121.205 64.4923C121.205 64.4923 111.671 74.1511 110.29 77.0452C108.909 79.9392 109.464 112.917 110.984 116.115C112.503 119.312 127.701 131.677 130.185 132.683C132.669 133.689 138.339 134.702 142.759 132.394C147.18 130.086 157.818 118.278 158.928 115.254C160.039 112.229 158.651 77.6312 157.957 74.3392C157.263 71.0473 140.58 59.16 133.502 58.5885C126.424 58.0169 121.205 64.4923 121.205 64.4923Z" fill="white"/>
<path d="M136.417 134.1C134.244 134.112 132.086 133.73 130.039 132.971C127.368 131.886 112.191 119.435 110.65 116.229C109.11 113.024 108.513 79.8731 109.956 76.8633C111.344 73.9693 120.366 64.788 120.928 64.2454C121.275 63.8185 126.479 57.647 133.509 58.2258C140.372 58.7901 157.499 70.4675 158.276 74.2081C158.922 77.3192 160.358 112.228 159.227 115.332C158.04 118.588 147.27 130.388 142.891 132.696C140.865 133.675 138.65 134.156 136.417 134.1ZM132.6 58.9131C126.243 58.9131 121.497 64.665 121.448 64.7012C121.351 64.7952 111.941 74.3455 110.602 77.1383C109.263 79.931 109.852 112.851 111.296 115.853C112.739 118.856 127.784 131.213 130.317 132.241C132.982 133.319 138.45 134.136 142.614 131.966C147.076 129.643 157.589 117.814 158.609 115.021C159.727 111.968 158.269 77.3987 157.624 74.3166C156.978 71.2344 140.442 59.5136 133.474 58.9565C133.19 58.9565 132.905 58.9131 132.621 58.9131H132.6Z" fill="#263238"/>
<path d="M128.7 58.5879C128.7 58.5879 142.982 72.1754 153.252 72.6963L163.529 73.2172C163.529 73.2172 140.976 70.0844 133.96 54.1528C133.96 54.1528 126.195 47.3808 128.7 58.5879Z" fill="#263238"/>
<path d="M163.529 73.5778L153.259 73.0569C142.981 72.536 129.075 59.4188 128.485 58.8544C128.435 58.8055 128.399 58.7428 128.381 58.6736C127.555 54.9692 127.735 52.7987 128.936 52.0317C130.712 50.8958 133.856 53.5656 134.203 53.8695C134.245 53.9043 134.278 53.9489 134.3 53.9997C141.156 69.5696 163.37 72.8109 163.592 72.8615C163.681 72.8725 163.763 72.9194 163.82 72.9923C163.877 73.0653 163.905 73.1585 163.897 73.2522C163.887 73.3449 163.843 73.4301 163.775 73.4905C163.706 73.5509 163.619 73.5821 163.529 73.5778ZM129.012 58.3841C130.178 59.4694 143.634 71.8269 153.3 72.3189L159.102 72.6156C152.162 70.7923 138.832 65.8942 133.71 54.3614C132.808 53.5873 130.428 51.916 129.304 52.6323C128.665 53.0374 128.131 54.3542 129.012 58.3986V58.3841Z" fill="#263238"/>
<path d="M137.805 100.435C137.717 100.435 137.633 100.401 137.569 100.339C137.504 100.277 137.465 100.193 137.458 100.102L136.354 85.552C136.351 85.5045 136.356 85.4567 136.37 85.4114C136.384 85.366 136.407 85.324 136.436 85.2877C136.466 85.2515 136.502 85.2216 136.543 85.1999C136.584 85.1782 136.628 85.1651 136.673 85.1613C136.719 85.1575 136.765 85.1631 136.808 85.1778C136.852 85.1924 136.892 85.2159 136.927 85.2468C136.962 85.2777 136.99 85.3155 137.011 85.3579C137.032 85.4003 137.045 85.4466 137.048 85.4941L138.152 100.044C138.155 100.091 138.15 100.139 138.136 100.185C138.122 100.23 138.1 100.272 138.07 100.308C138.04 100.345 138.004 100.375 137.963 100.396C137.922 100.418 137.878 100.431 137.832 100.435H137.805Z" fill="#263238"/>
<path d="M134.606 107.351C132.676 107.351 130.83 105.181 130.754 105.065C130.722 105.03 130.696 104.988 130.68 104.942C130.663 104.897 130.656 104.848 130.658 104.799C130.66 104.75 130.671 104.703 130.691 104.659C130.711 104.614 130.74 104.575 130.775 104.543C130.81 104.511 130.851 104.486 130.896 104.471C130.94 104.456 130.987 104.45 131.034 104.454C131.081 104.458 131.126 104.472 131.167 104.495C131.209 104.518 131.245 104.55 131.275 104.588C131.275 104.588 132.996 106.628 134.606 106.628C135.931 106.628 137.936 103.936 138.603 102.902C138.627 102.862 138.659 102.827 138.697 102.8C138.734 102.774 138.777 102.755 138.822 102.745C138.866 102.736 138.912 102.736 138.957 102.745C139.002 102.755 139.044 102.774 139.081 102.8C139.158 102.854 139.21 102.936 139.229 103.029C139.247 103.123 139.229 103.22 139.179 103.3C138.915 103.712 136.535 107.351 134.606 107.351Z" fill="#263238"/>
<path d="M132.413 114.019C131.989 114.019 131.559 114.019 131.129 113.976C126.854 113.679 123.669 108.268 123.53 108.036C123.506 107.995 123.491 107.95 123.484 107.903C123.477 107.855 123.479 107.807 123.49 107.761C123.501 107.715 123.521 107.671 123.548 107.632C123.575 107.594 123.609 107.562 123.648 107.537C123.687 107.512 123.731 107.496 123.776 107.489C123.821 107.481 123.867 107.484 123.912 107.495C123.956 107.506 123.998 107.527 124.035 107.555C124.072 107.583 124.103 107.619 124.127 107.66C124.127 107.718 127.264 112.978 131.177 113.253C134.024 113.353 136.87 113.017 139.623 112.254C139.715 112.227 139.813 112.24 139.897 112.288C139.98 112.337 140.041 112.419 140.067 112.515C140.093 112.61 140.081 112.713 140.034 112.8C139.987 112.887 139.909 112.951 139.817 112.978C137.398 113.634 134.912 113.984 132.413 114.019Z" fill="#263238"/>
<path d="M138.339 83.2214C138.339 83.2214 143.197 79.4736 145.105 78.1568C147.013 76.84 153.259 79.3072 153.259 79.3072C153.259 79.3072 148.561 76.5723 146.077 76.1382C143.592 75.7041 138.478 79.4519 138.061 81.2028C137.645 82.9537 136.417 82.4979 138.339 83.2214Z" fill="#263238"/>
<path d="M138.339 83.5549C138.3 83.5618 138.26 83.5618 138.221 83.5549C137.305 83.2149 137.034 83.1136 136.951 82.8314C136.936 82.7188 136.948 82.604 136.987 82.4977C137.026 82.3914 137.09 82.2972 137.173 82.2237C137.445 81.9207 137.636 81.5492 137.728 81.1456C138.179 79.2573 143.419 75.3576 146.132 75.8351C148.651 76.2692 153.238 78.9317 153.432 79.0402C153.508 79.0859 153.565 79.1593 153.592 79.2462C153.619 79.333 153.614 79.4272 153.578 79.5105C153.542 79.5937 153.476 79.6594 153.395 79.6943C153.314 79.7292 153.223 79.7307 153.141 79.6986C151.455 79.033 146.764 77.5281 145.299 78.5121C143.391 79.7854 138.596 83.5043 138.547 83.5405C138.48 83.5646 138.408 83.5696 138.339 83.5549ZM137.749 82.5782L138.283 82.788C139.109 82.1441 143.19 79.0041 144.918 77.8464C145.91 77.1808 147.804 77.3762 149.553 77.7741C148.428 77.2035 147.242 76.7713 146.021 76.4862C143.724 76.0956 138.769 79.7276 138.388 81.2614C138.289 81.7596 138.069 82.2231 137.749 82.6071V82.5782Z" fill="#263238"/>
<path d="M128.388 83.9102C128.134 83.2827 127.713 82.7445 127.174 82.3597C126.635 81.9749 126.001 81.7596 125.348 81.7396C123.003 81.5949 112.635 84.4817 114.432 84.4817C116.23 84.4817 123.69 84.337 125.626 84.337C126.565 84.3978 127.506 84.2524 128.388 83.9102Z" fill="#263238"/>
<path d="M114.432 84.8494C114.336 84.8635 114.237 84.8493 114.148 84.8084C114.058 84.7675 113.981 84.7016 113.926 84.6179C113.894 84.5569 113.877 84.4885 113.877 84.4189C113.877 84.3493 113.894 84.2809 113.926 84.2199C114.349 83.4964 123.433 81.2608 125.355 81.3838C126.076 81.404 126.775 81.6416 127.369 82.068C127.963 82.4943 128.425 83.091 128.7 83.7858C128.728 83.869 128.727 83.96 128.696 84.0423C128.666 84.1246 128.608 84.1928 128.533 84.2344C127.601 84.5995 126.606 84.7596 125.612 84.7047C124.627 84.7047 122.212 84.7047 119.838 84.777C117.465 84.8494 115.314 84.8494 114.432 84.8494ZM125.147 82.1073C123.398 82.1073 118.527 83.33 116.008 84.1114L119.845 84.0535C122.219 84.0174 124.64 83.9812 125.626 83.9812C126.395 83.9989 127.164 83.9064 127.909 83.7063C127.645 83.2293 127.267 82.8315 126.813 82.5514C126.358 82.2713 125.842 82.1183 125.314 82.1073H125.147Z" fill="#263238"/>
<path d="M152.156 92.1523C150.07 92.6454 147.937 92.8882 145.799 92.8759C143.023 92.7312 140.546 91.8629 141.635 93.158C142.725 94.4531 144.952 95.6107 148.401 94.8872C151.85 94.1637 153.12 93.4474 152.156 92.1523Z" fill="#263238"/>
<path d="M127.146 92.1523C125.06 92.6454 122.927 92.8882 120.789 92.8759C118.013 92.7312 115.543 91.8629 116.625 93.158C117.708 94.4531 119.942 95.6107 123.398 94.8872C126.854 94.1637 128.089 93.4474 127.146 92.1523Z" fill="#263238"/>
<path d="M81.1646 175.18C81.1646 175.18 85.3283 151.304 87.2158 148.967C89.1033 146.631 109.714 129.056 110.845 127.877C111.976 126.698 120.109 113.877 120.491 115.455C120.872 117.032 119.547 123.934 117.083 127.675C114.62 131.415 111.226 135.959 111.226 135.959C111.226 135.959 123.926 139.309 124.62 140.097C125.314 140.886 129.685 150.697 129.914 151.919C130.317 154.032 129.734 156.297 128.027 156.456C126.472 156.593 116.306 151.131 116.306 151.131L108.201 152.288C108.201 152.288 102.344 159.777 98.3675 161.159C96.5842 161.839 94.7508 162.366 92.8854 162.736L93.0797 177.322L81.1646 175.18Z" fill="white"/>
<path d="M93.0797 177.712H93.0172L81.1091 175.541C81.0167 175.524 80.9345 175.469 80.8801 175.389C80.8299 175.311 80.8101 175.215 80.8245 175.122C80.998 174.145 85.0229 151.152 86.9521 148.743C88.2151 147.158 97.4168 139.156 104.134 133.318C107.535 130.358 110.227 128.021 110.602 127.623C110.977 127.226 112.038 125.677 113.308 123.832C118.249 116.655 119.713 114.832 120.442 114.977C120.536 114.997 120.622 115.046 120.69 115.116C120.758 115.187 120.804 115.277 120.824 115.375C121.233 117.082 119.866 124.093 117.354 127.891C115.355 130.923 112.718 134.519 111.802 135.748C114.759 136.537 124.141 139.084 124.876 139.844C125.612 140.603 130.019 150.573 130.261 151.861C130.424 152.538 130.456 153.241 130.354 153.931C130.253 154.62 130.021 155.282 129.672 155.876C129.483 156.144 129.242 156.367 128.964 156.531C128.687 156.694 128.379 156.794 128.062 156.824C126.479 156.969 117.652 152.281 116.264 151.514L108.381 152.65C107.611 153.626 102.281 160.21 98.4786 161.527C96.766 162.158 95.0158 162.673 93.2393 163.068L93.4266 177.343C93.4259 177.396 93.4143 177.449 93.3928 177.498C93.3713 177.546 93.3403 177.59 93.3017 177.625C93.2384 177.678 93.1607 177.708 93.0797 177.712ZM81.5948 174.883L92.698 176.887L92.5106 162.735C92.5115 162.647 92.5428 162.562 92.5988 162.495C92.6549 162.429 92.7319 162.386 92.816 162.374C94.6602 162.007 96.4728 161.484 98.2357 160.811C102.059 159.48 107.847 152.129 107.902 152.056C107.959 151.986 108.038 151.94 108.124 151.926L116.292 150.776C116.361 150.762 116.433 150.775 116.493 150.812C120.393 152.903 126.986 156.202 128.027 156.094C128.248 156.073 128.463 156.003 128.655 155.888C128.848 155.773 129.015 155.616 129.144 155.428C129.435 154.915 129.626 154.348 129.706 153.758C129.786 153.168 129.753 152.568 129.609 151.991C129.359 150.689 125.036 141.001 124.411 140.35C123.822 139.807 115.959 137.579 111.15 136.306C111.095 136.291 111.043 136.261 111.001 136.221C110.959 136.18 110.927 136.129 110.909 136.072C110.89 136.016 110.885 135.955 110.895 135.896C110.904 135.837 110.928 135.781 110.963 135.734C110.963 135.683 114.384 131.161 116.806 127.472C119.228 123.782 120.366 117.581 120.199 115.787C119.144 116.597 115.758 121.524 113.877 124.252C112.538 126.198 111.483 127.732 111.102 128.13C110.72 128.528 108.131 130.778 104.585 133.867C98.2635 139.359 88.7147 147.665 87.4864 149.198C86.0083 151.043 82.7745 168.024 81.5948 174.883Z" fill="#263238"/>
<path d="M129.942 152.288C129.886 152.29 129.83 152.276 129.78 152.248C129.73 152.22 129.688 152.179 129.658 152.129C127.458 148.75 123.794 143.237 123.329 142.854C122.864 142.47 117 141.552 111.788 140.821C111.696 140.807 111.613 140.756 111.557 140.679C111.501 140.602 111.477 140.504 111.49 140.408C111.503 140.312 111.552 140.226 111.626 140.167C111.7 140.109 111.794 140.084 111.886 140.097C114.495 140.466 123.072 141.703 123.766 142.268C124.46 142.832 129.644 150.798 130.227 151.673C130.253 151.713 130.272 151.757 130.281 151.804C130.291 151.851 130.292 151.899 130.283 151.946C130.275 151.993 130.257 152.038 130.232 152.078C130.207 152.119 130.175 152.153 130.136 152.18C130.083 152.235 130.016 152.272 129.942 152.288Z" fill="#263238"/>
<path d="M129.477 155.275C129.427 155.276 129.377 155.264 129.331 155.241C129.286 155.219 129.245 155.186 129.214 155.145C127.729 153.358 124.758 149.835 124.141 149.292C123.641 148.872 117.784 147.31 112.517 146.051C112.428 146.028 112.351 145.97 112.303 145.889C112.255 145.808 112.24 145.71 112.26 145.617C112.27 145.57 112.289 145.526 112.315 145.487C112.342 145.449 112.375 145.416 112.414 145.391C112.453 145.366 112.496 145.349 112.541 145.342C112.586 145.335 112.633 145.337 112.677 145.349C114.516 145.783 123.78 148.019 124.585 148.742C125.39 149.466 129.561 154.458 129.741 154.675C129.771 154.71 129.794 154.752 129.809 154.796C129.823 154.841 129.829 154.889 129.826 154.936C129.823 154.983 129.811 155.029 129.79 155.071C129.769 155.113 129.741 155.151 129.706 155.181C129.644 155.242 129.562 155.276 129.477 155.275Z" fill="#263238"/>
<path d="M129.699 246.23C129.699 246.23 114.849 243.336 114.259 243.133C113.669 242.931 103.156 239.624 101.768 239.002C100.38 238.38 83.5517 235.291 82.7606 236.528C81.9695 237.765 81.1784 244.993 80.9772 245.608C80.776 246.223 79.1938 249.117 79.5893 250.774C79.8029 252.278 79.8029 253.806 79.5893 255.31C79.5893 255.31 79.3881 265.012 81.7614 265.222C84.1347 265.432 86.3206 256.135 86.3206 256.135C86.3206 256.135 89.6863 258.204 96.6119 258.617C103.537 259.029 110.276 255.52 110.276 255.52L128.707 260.093L129.699 246.23Z" fill="white"/>
<path d="M81.8585 265.58H81.7544C79.1868 265.355 79.2285 256.977 79.2562 255.299C79.4661 253.826 79.4661 252.329 79.2562 250.856C78.9092 249.409 79.8738 247.239 80.3943 246.103C80.5123 245.828 80.6094 245.611 80.651 245.495C80.6927 245.379 80.8245 244.489 80.9495 243.592C81.4352 240.257 81.914 237.189 82.4692 236.321C83.5101 234.7 100.887 238.209 101.9 238.665C102.913 239.121 109.429 241.212 112.545 242.21L114.342 242.782C114.793 242.934 123.801 244.714 129.741 245.871C129.826 245.887 129.901 245.935 129.954 246.006C130.007 246.077 130.032 246.166 130.025 246.255L129.054 260.088C129.051 260.141 129.038 260.192 129.014 260.238C128.99 260.285 128.956 260.325 128.915 260.356C128.875 260.388 128.829 260.41 128.779 260.42C128.73 260.43 128.679 260.428 128.631 260.414L110.338 255.906C109.408 256.362 103.066 259.365 96.6119 258.981C90.9492 258.641 87.6599 257.23 86.5704 256.673C86.0153 258.909 84.1694 265.58 81.8585 265.58ZM84.1902 236.582C83.8012 236.539 83.4081 236.596 83.0452 236.748C82.5455 237.529 81.9626 241.545 81.6573 243.701C81.4838 244.924 81.3936 245.517 81.3311 245.719C81.2687 245.922 81.1784 246.096 81.0397 246.407C80.5955 247.405 79.6518 249.496 79.9502 250.683C80.175 252.232 80.175 253.807 79.9502 255.357C79.8738 259.206 80.4012 264.762 81.8169 264.856C83.3436 264.958 85.1895 259.524 85.9806 256.051C85.9945 255.996 86.0196 255.945 86.0544 255.901C86.0892 255.858 86.1326 255.822 86.1818 255.798C86.2304 255.773 86.2838 255.76 86.338 255.76C86.3921 255.76 86.4455 255.773 86.4941 255.798C86.4941 255.798 89.8875 257.824 96.6327 258.229C103.378 258.634 110.054 255.205 110.123 255.168C110.197 255.143 110.278 255.143 110.352 255.168L128.395 259.611L129.332 246.53C126.833 246.045 114.717 243.679 114.148 243.477L112.364 242.905C108.992 241.827 102.726 239.823 101.643 239.338C100.29 238.723 88.1041 236.582 84.1902 236.582Z" fill="#263238"/>
<path d="M78.3402 170.967L98.2496 174.765L97.507 187.738C97.507 187.738 101.914 189.908 103.253 202.722C104.592 215.535 108.43 245.213 107.472 247.413C106.514 249.612 100.574 259.206 86.7717 259.806C72.969 260.407 65.4952 247.217 64.1559 243.014C62.8166 238.81 69.9087 211.317 70.2904 208.922C70.6721 206.527 72.5874 190.111 74.3153 187.34C75.3803 185.627 76.6696 184.079 78.1459 182.738L78.3402 170.967Z" fill="#FA8C16"/>
<path d="M85.8557 260.2C72.1224 260.2 65.0372 246.822 63.8297 243.147C62.7472 239.768 66.7582 222.657 68.9094 213.483C69.4646 211.11 69.8671 209.395 69.9504 208.889C70.0336 208.382 70.1308 207.622 70.2834 206.494C71.019 200.995 72.5596 189.549 74.0238 187.176C75.0771 185.478 76.3497 183.939 77.8058 182.604L77.9932 170.977C77.9932 170.924 78.0043 170.872 78.0259 170.825C78.0476 170.777 78.079 170.735 78.1181 170.702C78.1579 170.669 78.2038 170.646 78.2529 170.634C78.302 170.621 78.353 170.62 78.4026 170.63L98.3329 174.421C98.4174 174.437 98.4933 174.485 98.5458 174.555C98.5984 174.626 98.6239 174.715 98.6174 174.804L97.8679 187.567C98.7909 188.189 102.406 191.307 103.6 202.717C103.933 205.915 104.433 210.227 104.988 214.792C107.021 232.388 108.52 245.983 107.819 247.596C107.764 247.712 102.441 259.52 86.8133 260.193L85.8557 260.2ZM78.6802 171.404L78.4929 182.763C78.4929 182.815 78.4817 182.867 78.4601 182.915C78.4385 182.962 78.407 183.004 78.368 183.038C76.9204 184.354 75.6547 185.874 74.6067 187.552C73.2188 189.788 71.6436 201.559 70.9705 206.581C70.8178 207.717 70.6998 208.57 70.6304 208.997C70.5471 209.533 70.1447 211.254 69.5826 213.635C67.5979 222.107 63.4689 239.732 64.489 242.922C65.6548 246.54 72.8511 260.07 86.7578 259.455C99.3738 258.912 105.758 250.483 107.16 247.278C107.854 245.722 105.772 227.888 104.273 214.865C103.746 210.292 103.246 205.98 102.885 202.782C101.581 190.338 97.3683 188.102 97.3336 188.081C97.2724 188.048 97.2216 187.999 97.1871 187.937C97.1526 187.875 97.136 187.805 97.1393 187.733L97.8887 175.065L78.6802 171.404Z" fill="#263238"/>
<path d="M94.0859 186.517C92.9584 186.512 91.8322 186.437 90.7133 186.293C90.6223 186.282 90.5392 186.234 90.482 186.159C90.4248 186.085 90.3982 185.99 90.408 185.895C90.4201 185.799 90.4675 185.713 90.5401 185.653C90.6127 185.594 90.7048 185.566 90.7966 185.576C91.8881 185.715 92.9863 185.787 94.0859 185.793C94.1779 185.793 94.2662 185.831 94.3312 185.899C94.3963 185.967 94.4329 186.059 94.4329 186.155C94.4329 186.251 94.3963 186.343 94.3312 186.411C94.2662 186.479 94.1779 186.517 94.0859 186.517Z" fill="#263238"/>
<path d="M86.0708 185.459H85.9944C83.297 184.836 80.637 184.048 78.0279 183.101C77.9439 183.066 77.8761 182.999 77.8389 182.913C77.8017 182.827 77.7981 182.73 77.8288 182.641C77.8595 182.552 77.9222 182.48 78.0034 182.439C78.0846 182.398 78.1781 182.391 78.2638 182.421C80.843 183.358 83.4731 184.136 86.1402 184.75C86.1849 184.761 86.2273 184.78 86.2648 184.807C86.3023 184.835 86.3343 184.87 86.3588 184.91C86.3833 184.95 86.3999 184.995 86.4076 185.042C86.4154 185.09 86.4141 185.138 86.4039 185.184C86.3865 185.263 86.3441 185.333 86.2836 185.383C86.223 185.433 86.148 185.46 86.0708 185.459Z" fill="#263238"/>
<path d="M187.908 177.488L185.93 230.745C185.93 230.745 183.751 230.955 182.96 231.982C182.433 232.695 181.968 233.455 181.572 234.254C181.572 234.254 161.579 235.079 152.072 237.973C146.616 239.591 141.314 241.732 136.236 244.369L127.52 244.174L125.737 268.114L137.423 268.527C137.423 268.527 143.162 272.036 169.296 274.517C195.43 276.999 207.512 277.614 210.281 274.308C213.049 271.001 214.243 265.843 214.639 263.166C215.034 260.489 219.788 243.964 219.788 220.016C219.788 196.067 198.206 161.411 193.452 153.547C188.699 145.682 183.737 146.312 180.385 147.151" fill="#FA8C16"/>
<path d="M199.198 276.928C192.571 276.928 182.87 276.161 169.268 274.873C144.661 272.536 138.124 269.323 137.347 268.882L125.751 268.47C125.703 268.47 125.656 268.46 125.613 268.44C125.569 268.42 125.531 268.39 125.499 268.353C125.468 268.316 125.444 268.273 125.43 268.225C125.416 268.178 125.412 268.128 125.418 268.079L127.173 244.174C127.179 244.082 127.219 243.995 127.285 243.932C127.351 243.87 127.438 243.838 127.527 243.842L136.153 244.044C141.232 241.424 146.527 239.288 151.975 237.663C160.899 234.95 179.233 234.045 181.357 233.937C181.739 233.174 182.185 232.447 182.689 231.766C183.383 230.862 184.938 230.536 185.597 230.435L187.561 177.481C187.561 177.433 187.57 177.386 187.588 177.341C187.607 177.297 187.634 177.258 187.668 177.225C187.702 177.192 187.742 177.167 187.786 177.152C187.829 177.136 187.876 177.13 187.922 177.134C187.967 177.136 188.012 177.147 188.053 177.167C188.095 177.187 188.132 177.215 188.163 177.25C188.194 177.285 188.218 177.326 188.234 177.371C188.249 177.415 188.257 177.463 188.255 177.51L186.277 230.768C186.274 230.855 186.241 230.939 186.183 231.002C186.126 231.066 186.048 231.106 185.965 231.115C185.396 231.166 183.806 231.47 183.231 232.215C182.722 232.909 182.271 233.647 181.884 234.421C181.857 234.481 181.815 234.531 181.763 234.567C181.71 234.602 181.649 234.622 181.586 234.624C181.392 234.624 161.524 235.478 152.169 238.328C146.738 239.948 141.458 242.079 136.396 244.695C136.342 244.723 136.283 244.738 136.222 244.739L127.84 244.543L126.112 267.768L137.43 268.166C137.488 268.171 137.545 268.188 137.596 268.217C137.652 268.217 143.662 271.726 169.331 274.157C195.354 276.624 207.401 277.195 210.024 274.07C213.015 270.51 214.049 264.78 214.299 263.109C214.361 262.653 214.541 261.871 214.805 260.678C217.878 247.361 219.434 233.713 219.441 220.016C219.441 204.721 210.773 182.712 193.688 154.604L193.161 153.743C188.227 145.596 182.981 146.884 180.469 147.499C180.378 147.521 180.284 147.505 180.205 147.455C180.125 147.405 180.068 147.325 180.045 147.231C180.035 147.185 180.034 147.137 180.042 147.09C180.049 147.043 180.066 146.998 180.09 146.957C180.115 146.917 180.147 146.882 180.184 146.854C180.222 146.827 180.264 146.808 180.309 146.797C184.382 145.799 189.171 145.799 193.751 153.352L194.271 154.221C211.433 182.437 220.135 204.584 220.135 220.016C220.126 233.769 218.566 247.472 215.485 260.844C215.228 261.973 215.048 262.79 214.986 263.217C214.729 264.939 213.66 270.836 210.544 274.547C209.149 276.204 205.617 276.928 199.198 276.928Z" fill="#263238"/>
<path d="M185.93 231.106C185.869 231.108 185.809 231.091 185.757 231.059C185.704 231.028 185.661 230.981 185.632 230.926C185.591 230.855 185.576 230.771 185.587 230.69C185.598 230.608 185.636 230.533 185.694 230.477L197.179 219.335C197.211 219.301 197.248 219.274 197.29 219.256C197.332 219.238 197.377 219.229 197.422 219.229C197.467 219.229 197.512 219.238 197.553 219.256C197.595 219.274 197.633 219.301 197.665 219.335C197.697 219.369 197.723 219.409 197.741 219.453C197.758 219.497 197.767 219.544 197.767 219.592C197.767 219.64 197.758 219.687 197.741 219.731C197.723 219.775 197.697 219.815 197.665 219.849L187.255 229.978L198.005 226.722C198.097 226.695 198.195 226.707 198.278 226.756C198.362 226.805 198.423 226.886 198.449 226.982C198.475 227.078 198.463 227.181 198.416 227.268C198.369 227.355 198.291 227.419 198.199 227.445L186.048 231.121L185.93 231.106Z" fill="#263238"/>
<path d="M201.884 226.282C201.792 226.295 201.699 226.269 201.625 226.209C201.552 226.15 201.504 226.063 201.492 225.967C201.48 225.872 201.505 225.775 201.562 225.698C201.618 225.621 201.702 225.571 201.794 225.559L205.631 224.401C205.675 224.387 205.721 224.382 205.767 224.386C205.812 224.391 205.856 224.405 205.897 224.428C205.937 224.451 205.972 224.483 206 224.52C206.029 224.558 206.05 224.601 206.061 224.647C206.087 224.739 206.077 224.838 206.033 224.922C205.988 225.006 205.914 225.069 205.826 225.096L201.981 226.253C201.951 226.271 201.918 226.28 201.884 226.282Z" fill="#263238"/>
<path d="M199.393 237.714H199.268C194.23 235.688 181.676 234.646 181.544 234.639C181.499 234.635 181.454 234.622 181.414 234.6C181.373 234.578 181.337 234.549 181.307 234.512C181.277 234.476 181.255 234.434 181.241 234.389C181.227 234.343 181.221 234.296 181.225 234.248C181.229 234.201 181.241 234.154 181.262 234.112C181.283 234.069 181.311 234.032 181.346 234.001C181.381 233.97 181.421 233.946 181.465 233.932C181.508 233.917 181.554 233.911 181.6 233.915C182.12 233.959 194.382 234.979 199.518 237.034C199.563 237.042 199.607 237.06 199.646 237.086C199.685 237.112 199.718 237.146 199.745 237.186C199.771 237.225 199.79 237.27 199.8 237.317C199.809 237.364 199.81 237.413 199.802 237.46C199.794 237.508 199.777 237.553 199.752 237.594C199.727 237.634 199.694 237.67 199.656 237.697C199.618 237.725 199.575 237.744 199.53 237.754C199.485 237.765 199.438 237.766 199.393 237.757V237.714Z" fill="#263238"/>
<path d="M202.959 248.449C202.906 248.448 202.853 248.435 202.805 248.41C202.757 248.385 202.715 248.349 202.682 248.304C202.161 247.581 201.592 246.922 200.989 246.264C200.933 246.193 200.905 246.104 200.91 246.013C200.915 245.921 200.953 245.836 201.016 245.772C201.079 245.709 201.163 245.673 201.251 245.672C201.338 245.67 201.423 245.704 201.488 245.765C202.103 246.433 202.684 247.133 203.23 247.863C203.287 247.938 203.313 248.033 203.302 248.128C203.292 248.223 203.246 248.31 203.175 248.369C203.113 248.419 203.037 248.447 202.959 248.449Z" fill="#263238"/>
<path d="M198.817 244.044C198.737 244.042 198.659 244.015 198.595 243.965C195.071 240.99 191.006 238.789 186.645 237.497C186.599 237.486 186.556 237.466 186.518 237.437C186.48 237.409 186.448 237.373 186.423 237.332C186.398 237.291 186.381 237.245 186.373 237.196C186.366 237.148 186.367 237.099 186.378 237.052C186.388 237.004 186.407 236.959 186.435 236.92C186.462 236.88 186.496 236.846 186.536 236.82C186.575 236.794 186.619 236.777 186.666 236.769C186.712 236.761 186.759 236.762 186.804 236.773C191.27 238.088 195.432 240.335 199.039 243.379C199.095 243.426 199.136 243.49 199.156 243.563C199.175 243.635 199.173 243.712 199.148 243.783C199.124 243.854 199.079 243.915 199.019 243.958C198.96 244.001 198.889 244.024 198.817 244.023V244.044Z" fill="#263238"/>
<path d="M136.236 267.031C136.144 267.031 136.056 266.993 135.991 266.925C135.926 266.858 135.889 266.766 135.889 266.67L135.723 246.65C135.722 246.603 135.73 246.555 135.747 246.511C135.763 246.467 135.788 246.427 135.82 246.392C135.851 246.358 135.889 246.331 135.931 246.312C135.972 246.292 136.017 246.282 136.063 246.281C136.155 246.281 136.243 246.319 136.308 246.387C136.373 246.455 136.41 246.547 136.41 246.643L136.611 266.662C136.611 266.759 136.575 266.852 136.51 266.921C136.445 266.99 136.357 267.03 136.264 267.031H136.236Z" fill="#263238"/>
<path d="M134.848 262.071H126.521C126.429 262.071 126.341 262.033 126.276 261.965C126.211 261.897 126.174 261.805 126.174 261.709C126.174 261.613 126.211 261.521 126.276 261.454C126.341 261.386 126.429 261.348 126.521 261.348H134.848C134.94 261.348 135.029 261.386 135.094 261.454C135.159 261.521 135.195 261.613 135.195 261.709C135.194 261.805 135.156 261.896 135.092 261.963C135.027 262.031 134.94 262.069 134.848 262.071Z" fill="#263238"/>
<path d="M128.513 250.3C128.424 250.3 128.339 250.265 128.274 250.202C128.21 250.138 128.171 250.052 128.166 249.96C128.163 249.913 128.169 249.865 128.184 249.821C128.199 249.776 128.222 249.735 128.253 249.7C128.283 249.665 128.32 249.637 128.361 249.617C128.402 249.597 128.447 249.585 128.492 249.584L131.857 249.374C131.903 249.371 131.949 249.377 131.992 249.393C132.035 249.408 132.075 249.433 132.109 249.464C132.143 249.496 132.171 249.534 132.191 249.577C132.211 249.62 132.223 249.666 132.225 249.714C132.229 249.809 132.197 249.903 132.136 249.974C132.076 250.046 131.991 250.09 131.899 250.097L128.533 250.3H128.513Z" fill="#263238"/>
</svg>
