<svg width="246" height="256" viewBox="0 0 246 256" fill="none" xmlns="http://www.w3.org/2000/svg">
<path d="M246 255.85C246 255.936 192.22 256.01 125.9 256.01C59.5809 256.01 5.77722 255.936 5.77722 255.85C5.77722 255.763 59.5499 255.689 125.9 255.689C192.251 255.689 246 255.77 246 255.85Z" fill="#263238"/>
<path d="M193.6 180.442C181.634 173.795 178.923 161.457 179.395 150.364C179.473 148.516 179.217 146.557 180.325 144.937C181.432 143.317 184.019 142.202 186.103 142.978C187.83 143.625 188.581 145.226 189.549 146.551C190.841 148.315 192.734 149.752 195.009 150.696C196.488 151.312 198.324 151.682 199.788 151.041C201.801 150.16 202.034 147.961 202.018 146.113C202.018 142.676 201.992 139.243 201.941 135.814C201.802 133.973 202.037 132.126 202.638 130.345C203.358 128.595 204.961 126.975 207.153 126.483C209.345 125.99 212.079 127.006 212.575 128.805C212.66 129.567 212.683 130.332 212.644 131.096C212.706 131.866 213.155 132.71 214.062 132.944C214.968 133.178 215.913 132.642 216.61 132.1C218.995 130.252 220.621 127.844 222.132 125.466C223.642 123.089 225.121 120.643 227.29 118.617C229.458 116.59 232.456 114.982 235.809 114.828C239.163 114.674 242.656 116.313 243.492 118.9C244.329 121.487 242.431 124.129 240.394 126.23C237.32 129.348 233.697 132.097 229.636 134.392C228.844 134.736 228.211 135.273 227.832 135.925C227.329 137.157 228.792 138.389 230.318 138.777C232.045 139.233 233.919 139.091 235.739 139.264C237.559 139.436 239.496 140.065 240.185 141.42C241.13 143.305 239.147 145.276 237.203 146.569C233.3 149.156 228.867 151.192 224.099 152.587C222.395 153.08 220.606 153.517 219.227 154.466C217.849 155.415 217.028 157.072 217.857 158.371C218.685 159.671 220.815 160.084 222.604 159.819C224.393 159.554 225.981 158.79 227.685 158.279C230.868 157.324 234.973 157.497 236.979 159.683C237.6 160.437 237.993 161.294 238.128 162.189C238.262 163.083 238.134 163.99 237.753 164.839C236.978 166.528 235.785 168.075 234.245 169.391C229.172 174.211 222.581 177.874 215.146 180.004C207.765 182.037 200.926 182.591 193.592 180.454" fill="#FA8C16"/>
<path d="M240.084 116.35C240.084 116.35 240.015 116.411 239.86 116.522L239.17 117.009C238.566 117.44 237.676 118.068 236.553 118.9C233.369 121.251 230.412 123.79 227.708 126.495C225.981 128.201 224.192 130.135 222.287 132.235C220.381 134.336 218.414 136.603 216.462 139.011C214.382 141.551 212.476 144.179 210.754 146.883C209.856 148.294 209.066 149.766 208.253 151.269L205.852 155.858C202.687 161.638 199.931 167.555 197.596 173.579C195.715 178.509 194.419 183.568 193.723 188.689C193.273 192.146 193.2 195.627 193.507 199.093C193.63 200.325 193.747 201.267 193.855 201.908C193.902 202.216 193.933 202.462 193.964 202.641V202.893C193.93 202.813 193.907 202.731 193.894 202.647C193.855 202.468 193.809 202.228 193.747 201.92C193.607 201.304 193.46 200.331 193.321 199.099C192.947 195.626 192.973 192.134 193.398 188.665C194.05 183.521 195.318 178.439 197.185 173.487C199.501 167.445 202.25 161.514 205.418 155.722L207.881 151.152C208.694 149.655 209.492 148.171 210.398 146.754C212.132 144.041 214.053 141.407 216.153 138.863C218.135 136.399 220.133 134.17 222.015 132.088C223.897 130.006 225.718 128.059 227.437 126.359C230.168 123.661 233.165 121.14 236.398 118.82C237.544 118 238.458 117.384 239.077 116.972L239.798 116.51C239.886 116.449 239.982 116.395 240.084 116.35Z" fill="#263238"/>
<path d="M210.498 146.742C210.388 146.488 210.313 146.226 210.273 145.959C210.149 145.448 210.01 144.727 209.847 143.791C209.514 141.943 209.173 139.412 208.809 136.609C208.445 133.806 208.035 131.269 207.694 129.439C207.516 128.527 207.361 127.794 207.252 127.283C207.168 127.022 207.124 126.753 207.121 126.482C207.254 126.729 207.35 126.988 207.407 127.252C207.578 127.757 207.771 128.484 207.988 129.402C208.43 131.25 208.863 133.763 209.227 136.572C209.591 139.381 209.901 141.845 210.141 143.76C210.258 144.623 210.358 145.356 210.436 145.941C210.496 146.205 210.517 146.474 210.498 146.742Z" fill="#263238"/>
<path d="M240.3 142.319C239.923 142.384 239.54 142.421 239.154 142.43C238.379 142.485 237.28 142.559 235.917 142.682C233.19 142.917 229.442 143.348 225.329 143.964C221.217 144.58 217.523 145.276 214.866 145.812C213.542 146.083 212.473 146.329 211.768 146.495C211.392 146.602 211.002 146.676 210.606 146.717C210.964 146.574 211.337 146.456 211.722 146.366C212.45 146.163 213.503 145.879 214.82 145.578C217.461 144.962 221.155 144.229 225.283 143.6C228.78 143.068 232.308 142.678 235.855 142.43C237.225 142.338 238.333 142.301 239.107 142.288C239.505 142.267 239.905 142.277 240.3 142.319Z" fill="#263238"/>
<path d="M197.564 173.057C197.481 172.967 197.414 172.87 197.363 172.767L196.851 171.911C196.41 171.166 195.814 170.063 195.101 168.714C193.661 166.004 191.825 162.209 189.873 157.996C187.922 153.783 186.125 149.989 184.762 147.247C184.096 145.917 183.546 144.827 183.135 144.014L182.702 143.133C182.641 143.031 182.6 142.923 182.578 142.812C182.66 142.902 182.728 142.999 182.779 143.102L183.29 143.958C183.724 144.704 184.328 145.806 185.041 147.155C186.481 149.865 188.317 153.66 190.268 157.873C192.22 162.086 194.017 165.881 195.38 168.622C196.046 169.952 196.596 171.042 196.999 171.855C197.177 172.207 197.324 172.471 197.44 172.736C197.5 172.838 197.542 172.946 197.564 173.057Z" fill="#263238"/>
<path d="M237.124 162.91C237 162.967 236.867 163.01 236.729 163.04L235.583 163.347L231.346 164.438C227.768 165.362 222.827 166.68 217.406 168.134C211.984 169.587 207.02 170.881 203.418 171.743C201.621 172.181 200.158 172.513 199.143 172.735L197.974 172.975C197.838 173.009 197.697 173.032 197.555 173.043C197.679 172.986 197.812 172.943 197.95 172.914L199.097 172.606L203.333 171.515C206.911 170.591 211.852 169.273 217.274 167.819C222.695 166.366 227.652 165.072 231.253 164.21C233.058 163.773 234.514 163.44 235.536 163.218L236.706 162.978C236.842 162.944 236.982 162.921 237.124 162.91Z" fill="#263238"/>
<path d="M220.984 13.495L216.995 14.6284L215.284 10.483C212.139 2.83876 202.117 -1.22048 192.909 1.36043C183.7 3.94135 178.797 12.3247 181.942 19.9689L183.653 24.1144L179.649 25.2539C178.122 25.7249 176.883 26.6458 176.187 27.8251C175.492 29.0043 175.395 30.3514 175.916 31.5861L187.015 58.5594C187.245 59.1707 187.628 59.7388 188.14 60.2302C188.651 60.7215 189.282 61.126 189.995 61.4197C190.707 61.7133 191.486 61.89 192.286 61.9394C193.086 61.9888 193.89 61.9097 194.651 61.707L235.986 49.9482C237.533 49.478 238.79 48.549 239.494 47.3565C240.197 46.1641 240.292 44.8012 239.757 43.5544L228.651 16.5811C228.415 15.9715 228.027 15.4061 227.509 14.9185C226.992 14.431 226.357 14.0313 225.641 13.7433C224.926 13.4552 224.145 13.2848 223.344 13.2422C222.544 13.1995 221.741 13.2855 220.984 13.495ZM189.478 17.8068C188.63 15.8192 188.782 13.6478 189.902 11.7475C191.023 9.84711 193.024 8.36532 195.488 7.61253C196.704 7.28153 197.992 7.14879 199.274 7.22224C200.556 7.2957 201.807 7.57383 202.951 8.04006C204.095 8.50628 205.11 9.15104 205.934 9.93586C206.758 10.7207 207.375 11.6295 207.748 12.6081L209.452 16.7535L191.181 21.9523L189.478 17.8068ZM212.712 41.7434L215.547 48.63C215.599 48.7681 215.582 48.9168 215.5 49.0453C215.418 49.1738 215.276 49.2721 215.105 49.3199L211.132 50.4471C210.974 50.482 210.805 50.4668 210.661 50.4048C210.516 50.3428 210.408 50.2388 210.358 50.1145L207.5 43.2587C205.924 43.1904 204.412 42.7409 203.166 41.9703C201.921 41.1997 201.001 40.1449 200.53 38.9469C199.856 37.3632 199.979 35.6337 200.872 34.1204C201.766 32.6071 203.361 31.4275 205.324 30.8285C206.293 30.5651 207.318 30.4597 208.34 30.5184C209.361 30.577 210.357 30.7986 211.268 31.1699C212.18 31.5413 212.988 32.0547 213.644 32.6797C214.301 33.3046 214.792 34.0283 215.09 34.8076C215.588 36.0245 215.629 37.3305 215.208 38.5658C214.788 39.801 213.923 40.9117 212.72 41.7619L212.712 41.7434Z" fill="#FA8C16"/>
<path d="M216.818 14.5549C216.818 14.6412 209.422 16.8525 200.221 19.4827C191.02 22.1129 183.515 24.2257 183.476 24.1641C183.438 24.1025 190.873 21.8727 200.082 19.2363C209.29 16.5999 216.779 14.4748 216.818 14.5549Z" fill="#263238"/>
<path d="M225.601 15.6875C225.635 15.741 225.664 15.7966 225.686 15.8538C225.748 15.977 225.818 16.1372 225.911 16.3343C226.112 16.7839 226.391 17.4061 226.739 18.1822L229.713 25.0687C230.953 27.9884 232.432 31.4502 234.074 35.2938C234.848 37.2218 235.762 39.2299 236.614 41.3427C237.07 42.4314 237.267 43.5782 237.195 44.7243C237.129 45.3204 236.916 45.9003 236.568 46.4306C236.195 46.9591 235.698 47.4255 235.104 47.8042C233.907 48.4989 232.579 49.0374 231.169 49.3996L227.181 50.5391L219.63 52.6888L206.843 56.3107L198.207 58.7253L195.884 59.3413L195.264 59.5015C195.198 59.5249 195.127 59.5395 195.055 59.5446C195.055 59.5446 195.117 59.5446 195.249 59.4707L195.853 59.2797L198.176 58.5837L206.765 56.0705L219.529 52.3747L227.065 50.2065L231.053 49.0608C232.423 48.7133 233.712 48.1912 234.872 47.5147C235.425 47.1633 235.888 46.7304 236.235 46.2396C236.563 45.7492 236.76 45.2103 236.815 44.6566C236.887 43.5523 236.698 42.4471 236.258 41.3981C235.421 39.3038 234.538 37.2773 233.741 35.3493C232.13 31.4995 230.643 28.0254 229.466 25.1057C228.288 22.186 227.297 19.8391 226.615 18.1883C226.29 17.3814 226.042 16.7531 225.841 16.2973L225.655 15.8045C225.632 15.7672 225.614 15.728 225.601 15.6875Z" fill="#263238"/>
<path d="M203.791 7.19407C203.791 7.19407 203.38 7.03391 202.621 6.78753C201.54 6.45692 200.395 6.27367 199.237 6.24547C197.52 6.19864 195.811 6.4553 194.234 6.99696C192.316 7.67142 190.675 8.76237 189.502 10.1446C188.32 11.5228 187.686 13.1516 187.682 14.8198C187.698 16.1871 187.958 17.5456 188.456 18.8544C188.859 19.9754 189.277 20.8686 189.556 21.4907C189.72 21.8067 189.855 22.132 189.959 22.464C189.739 22.1685 189.554 21.8571 189.409 21.5339C189.091 20.9179 188.634 20.0432 188.185 18.916C187.634 17.5934 187.333 16.2128 187.294 14.8198C187.274 13.0885 187.923 11.3941 189.153 9.96593C190.368 8.53325 192.075 7.40857 194.071 6.72593C195.698 6.18131 197.46 5.94106 199.221 6.02372C200.405 6.07169 201.568 6.29086 202.652 6.67049C202.942 6.7769 203.222 6.90044 203.489 7.04007C203.599 7.07857 203.701 7.13052 203.791 7.19407Z" fill="#263238"/>
<path d="M204.147 31.297C204.27 31.2374 204.4 31.1859 204.534 31.143C204.922 31.0039 205.323 30.8905 205.734 30.8042C206.387 30.651 207.061 30.56 207.74 30.5332C208.665 30.4937 209.59 30.6048 210.459 30.8597C212.441 31.414 214.261 33.0217 215.16 35.1714C215.591 36.3251 215.591 37.5535 215.16 38.7071C214.682 39.9592 213.826 41.0992 212.666 42.0272L212.712 41.8609C213.743 44.1092 214.866 46.5484 216.027 49.0924L216.097 49.2464L215.903 49.3018L214.13 49.7699L210.257 50.7986L210.064 50.8479L210.002 50.6939C208.941 48.1438 207.779 45.7661 206.904 43.4316L207.074 43.5363C205.56 43.4363 204.116 42.9843 202.923 42.2366C201.843 41.5752 200.958 40.7343 200.328 39.7727C199.761 38.92 199.478 37.9655 199.507 37.0009C199.543 36.015 199.853 35.0476 200.414 34.168C200.975 33.2884 201.774 32.5183 202.753 31.913C203.156 31.6528 203.608 31.4449 204.092 31.297C203.655 31.5034 203.231 31.7275 202.822 31.9684C201.747 32.6921 200.923 33.6231 200.429 34.6725C200.005 35.4638 199.807 36.3199 199.849 37.1793C199.89 38.0388 200.17 38.8803 200.669 39.6434C201.288 40.5684 202.152 41.3755 203.202 42.0087C204.34 42.7194 205.717 43.1479 207.159 43.2407H207.291L207.33 43.3331C208.182 45.6245 209.351 48.0206 210.428 50.583L210.172 50.4845L214.045 49.4558L215.81 48.9815L215.687 49.1909C214.533 46.647 213.417 44.2016 212.395 41.9533V41.8609L212.488 41.787C213.614 40.8974 214.453 39.805 214.935 38.6024C215.346 37.4988 215.346 36.3243 214.935 35.2207C214.091 33.1511 212.348 31.5803 210.459 31.026C209.622 30.7694 208.729 30.65 207.833 30.6749C207.164 30.687 206.499 30.7594 205.851 30.8904C204.697 31.1184 204.154 31.3278 204.147 31.297Z" fill="#263238"/>
<path d="M180.208 209.152L102.844 208.869C98.3762 208.849 94.101 207.42 90.9571 204.895C87.8132 202.371 86.0577 198.957 86.0763 195.404L86.8972 41.1585C86.9063 39.3981 87.3516 37.6564 88.2076 36.0329C89.0635 34.4094 90.3134 32.936 91.8858 31.697C93.4581 30.4579 95.3221 29.4774 97.3711 28.8116C99.4201 28.1458 101.614 27.8077 103.828 27.8166L181.183 28.0999C185.651 28.1179 189.927 29.5453 193.073 32.0689C196.218 34.5924 197.975 38.0056 197.959 41.5589L197.138 195.798C197.129 197.559 196.684 199.301 195.828 200.925C194.972 202.549 193.722 204.024 192.15 205.264C190.578 206.504 188.714 207.485 186.665 208.153C184.616 208.82 182.422 209.159 180.208 209.152Z" fill="#455A64"/>
<path d="M181.068 33.403H166.074C165.584 33.4102 165.102 33.494 164.653 33.6496C164.205 33.8052 163.799 34.0295 163.46 34.3098C163.12 34.5901 162.854 34.9208 162.675 35.2831C162.496 35.6454 162.409 36.0321 162.418 36.4212V38.5833C162.427 38.9721 162.34 39.3585 162.161 39.7204C161.982 40.0824 161.716 40.4127 161.376 40.6925C161.036 40.9723 160.631 41.196 160.182 41.351C159.734 41.5059 159.251 41.5889 158.762 41.5954L129.533 41.4906C128.545 41.4697 127.607 41.1374 126.926 40.5669C126.244 39.9964 125.876 39.2342 125.901 38.4478V36.2857C125.926 35.5003 125.559 34.739 124.879 34.1687C124.2 33.5983 123.264 33.2654 122.276 33.2428H117.002L103.875 33.1935C100.752 33.1787 97.7495 34.1486 95.5242 35.8907C93.2989 37.6328 92.0323 40.0052 92.0016 42.4885L91.2271 193.044C91.22 194.276 91.518 195.497 92.1042 196.637C92.6904 197.778 93.5533 198.815 94.6436 199.69C95.7338 200.565 97.0302 201.261 98.4585 201.738C99.8869 202.214 101.419 202.463 102.968 202.468L180.169 202.752C181.719 202.757 183.256 202.52 184.69 202.054C186.125 201.587 187.43 200.9 188.531 200.033C189.632 199.165 190.508 198.133 191.108 196.997C191.707 195.86 192.02 194.64 192.027 193.407L192.801 42.8519C192.82 40.3617 191.594 37.9674 189.394 36.1956C187.194 34.4237 184.199 33.4192 181.068 33.403Z" fill="white"/>
<path d="M170.681 182.665L113.276 182.467C112.68 182.467 112.199 181.95 112.207 181.322L112.269 169.378C112.269 168.762 112.757 168.232 113.353 168.232L170.759 168.442C171.089 168.487 171.385 168.632 171.584 168.847C171.783 169.062 171.87 169.329 171.827 169.594L171.773 181.525C171.773 182.16 171.277 182.671 170.681 182.665Z" fill="#FA8C16"/>
<path d="M132.809 175.346C132.775 175.053 132.634 174.826 132.388 174.665C132.141 174.503 131.839 174.422 131.481 174.422C131.219 174.422 130.99 174.464 130.794 174.549C130.599 174.634 130.447 174.75 130.337 174.898C130.23 175.047 130.176 175.215 130.176 175.404C130.176 175.562 130.213 175.697 130.288 175.811C130.365 175.923 130.464 176.016 130.583 176.091C130.702 176.164 130.827 176.225 130.958 176.273C131.089 176.319 131.209 176.357 131.319 176.386L131.92 176.547C132.074 176.588 132.245 176.643 132.434 176.715C132.624 176.786 132.806 176.883 132.98 177.006C133.155 177.128 133.299 177.284 133.413 177.474C133.526 177.665 133.583 177.899 133.583 178.176C133.583 178.495 133.499 178.784 133.332 179.042C133.166 179.3 132.924 179.505 132.604 179.657C132.287 179.809 131.901 179.885 131.446 179.885C131.023 179.885 130.656 179.817 130.346 179.68C130.038 179.544 129.796 179.353 129.618 179.108C129.443 178.864 129.344 178.58 129.321 178.257H130.06C130.079 178.48 130.155 178.665 130.285 178.811C130.418 178.955 130.586 179.063 130.788 179.134C130.992 179.204 131.211 179.238 131.446 179.238C131.72 179.238 131.965 179.194 132.183 179.106C132.4 179.015 132.572 178.89 132.699 178.73C132.826 178.568 132.89 178.38 132.89 178.164C132.89 177.968 132.835 177.808 132.725 177.685C132.616 177.562 132.471 177.462 132.292 177.385C132.113 177.308 131.92 177.24 131.712 177.182L130.984 176.975C130.522 176.842 130.156 176.652 129.887 176.406C129.617 176.159 129.483 175.837 129.483 175.438C129.483 175.107 129.572 174.819 129.751 174.572C129.932 174.324 130.175 174.131 130.479 173.995C130.785 173.856 131.127 173.787 131.504 173.787C131.885 173.787 132.224 173.855 132.52 173.992C132.817 174.127 133.052 174.311 133.225 174.546C133.4 174.781 133.493 175.048 133.502 175.346H132.809ZM135.477 173.868V179.781H134.76V173.868H135.477ZM140.955 175.716C140.891 175.521 140.808 175.347 140.704 175.193C140.602 175.037 140.479 174.904 140.337 174.794C140.196 174.685 140.037 174.601 139.858 174.543C139.679 174.486 139.482 174.457 139.269 174.457C138.918 174.457 138.6 174.547 138.313 174.728C138.026 174.909 137.798 175.176 137.628 175.528C137.459 175.88 137.374 176.312 137.374 176.824C137.374 177.336 137.46 177.769 137.631 178.121C137.803 178.473 138.035 178.74 138.327 178.921C138.62 179.102 138.949 179.192 139.315 179.192C139.654 179.192 139.952 179.12 140.21 178.976C140.47 178.829 140.672 178.623 140.816 178.358C140.963 178.09 141.036 177.775 141.036 177.413L141.255 177.46H139.476V176.824H141.729V177.46C141.729 177.947 141.625 178.37 141.417 178.73C141.211 179.09 140.926 179.369 140.562 179.568C140.2 179.764 139.784 179.862 139.315 179.862C138.791 179.862 138.331 179.739 137.935 179.492C137.54 179.246 137.232 178.896 137.011 178.441C136.791 177.987 136.681 177.448 136.681 176.824C136.681 176.357 136.744 175.936 136.869 175.563C136.996 175.187 137.175 174.868 137.406 174.604C137.637 174.34 137.91 174.138 138.226 173.998C138.542 173.857 138.889 173.787 139.269 173.787C139.58 173.787 139.871 173.834 140.141 173.928C140.412 174.021 140.654 174.152 140.865 174.324C141.079 174.493 141.257 174.696 141.4 174.933C141.542 175.168 141.64 175.429 141.694 175.716H140.955ZM147.645 173.868V179.781H146.952L143.729 175.138H143.671V179.781H142.955V173.868H143.648L146.882 178.522H146.94V173.868H147.645Z" fill="#E8E8E3"/>
<path d="M124.726 77.6617L104.807 77.5898L104.79 80.4972L124.71 80.5691L124.726 77.6617Z" fill="#FA8C16"/>
<path opacity="0.1" d="M124.726 77.6617L104.807 77.5898L104.79 80.4972L124.71 80.5691L124.726 77.6617Z" fill="black"/>
<path d="M183.119 95.5117C183.276 95.4991 183.429 95.4701 183.576 95.4254C183.79 95.3588 183.977 95.2454 184.114 95.0983C184.251 94.9512 184.333 94.7764 184.351 94.5939C184.351 93.6145 184.351 92.1854 184.351 90.3499C184.351 89.4321 184.351 88.4034 184.351 87.27C184.351 86.9928 184.351 86.7033 184.351 86.4138C184.401 86.1329 184.324 85.8468 184.134 85.6069C184.027 85.4918 183.888 85.398 183.729 85.3328C183.569 85.2676 183.392 85.2328 183.212 85.2311H182.004H170.813L106.034 85.0402C105.869 85.0379 105.705 85.0676 105.556 85.1266C105.408 85.1855 105.28 85.2721 105.182 85.379C104.995 85.6199 104.924 85.9064 104.981 86.1859C104.981 86.8019 104.981 87.4178 104.981 88.0338C104.981 89.2657 104.981 90.4977 104.981 91.7296C104.981 92.3456 104.981 92.9616 104.981 93.5775C104.949 93.8644 104.949 94.153 104.981 94.4399C105.022 94.5629 105.097 94.6768 105.202 94.7729C105.307 94.869 105.438 94.9448 105.585 94.9943C105.738 95.0426 105.901 95.0656 106.065 95.062H110.007L127.209 95.1359L156.33 95.2776L175.963 95.4008L181.299 95.4501H182.685C183.003 95.4501 183.158 95.4501 183.158 95.4501H182.685H181.299H175.963H156.33L127.209 95.3762L110.007 95.3207H106.065C105.848 95.3277 105.632 95.2983 105.43 95.2345C105.226 95.1653 105.045 95.0599 104.9 94.9265C104.755 94.7931 104.65 94.6351 104.594 94.4645C104.549 94.3029 104.533 94.1369 104.547 93.9718V93.5159C104.547 92.9 104.547 92.284 104.547 91.668C104.547 90.4361 104.547 89.2041 104.547 87.9722C104.547 87.3562 104.547 86.7403 104.547 86.1243C104.533 85.9602 104.533 85.7956 104.547 85.6315C104.576 85.4503 104.664 85.2783 104.803 85.1326C104.937 84.9839 105.113 84.8631 105.318 84.7805C105.523 84.6979 105.75 84.656 105.98 84.6583L170.758 84.9416L181.95 85.0032H183.158C183.371 85.0034 183.58 85.0443 183.769 85.1226C183.958 85.2008 184.12 85.3142 184.242 85.4529C184.461 85.7207 184.549 86.0426 184.49 86.3584C184.49 86.6479 184.49 86.9374 184.49 87.2146C184.49 88.3356 184.49 89.3643 184.49 90.2944C184.49 92.1423 184.436 93.5591 184.42 94.5446C184.401 94.7341 184.315 94.9154 184.171 95.067C184.027 95.2187 183.831 95.3345 183.607 95.4008C183.461 95.473 183.292 95.5114 183.119 95.5117Z" fill="#E0E0E0"/>
<path d="M147.223 88.1328H110.791V90.8492H147.223V88.1328Z" fill="#FA8C16"/>
<path opacity="0.2" d="M147.223 88.1328H110.791V90.8492H147.223V88.1328Z" fill="white"/>
<path d="M124.59 104.183L104.671 104.111L104.654 107.019L124.574 107.091L124.59 104.183Z" fill="#FA8C16"/>
<path opacity="0.1" d="M124.59 104.183L104.671 104.111L104.654 107.019L124.574 107.091L124.59 104.183Z" fill="black"/>
<path d="M182.616 122.036C182.773 122.02 182.928 121.998 183.081 121.968C183.297 121.913 183.496 121.822 183.665 121.701C183.833 121.58 183.967 121.431 184.057 121.266C184.179 121.017 184.227 120.749 184.196 120.483C184.196 120.188 184.196 119.867 184.196 119.51C184.196 118.796 184.196 117.983 184.196 117.046V113.135C184.233 112.852 184.155 112.567 183.972 112.322C183.781 112.071 183.48 111.884 183.128 111.798C182.742 111.743 182.349 111.727 181.958 111.749H170.813L106.26 111.558C105.912 111.559 105.577 111.66 105.317 111.842C105.056 112.024 104.887 112.276 104.842 112.55C104.842 113.135 104.842 113.782 104.842 114.398C104.842 115.63 104.842 116.861 104.842 118.093C104.842 118.709 104.842 119.325 104.842 119.941C104.813 120.229 104.829 120.519 104.889 120.804C104.985 121.053 105.184 121.27 105.454 121.42C105.74 121.564 106.076 121.633 106.414 121.617H107.491H109.729L126.869 121.685L155.889 121.826L175.452 121.949L180.773 121.999H175.452H155.889L126.853 121.974L109.714 121.925H106.345C105.926 121.945 105.51 121.856 105.16 121.672C104.807 121.478 104.55 121.193 104.432 120.865C104.362 120.552 104.342 120.234 104.37 119.917C104.37 119.301 104.37 118.685 104.37 118.069C104.37 116.837 104.37 115.605 104.37 114.373C104.37 113.757 104.37 113.141 104.37 112.525C104.426 112.173 104.642 111.849 104.977 111.614C105.312 111.38 105.743 111.25 106.19 111.25L170.743 111.533L181.888 111.601C182.303 111.581 182.72 111.604 183.128 111.669C183.53 111.773 183.869 111.993 184.08 112.285C184.281 112.556 184.367 112.871 184.328 113.184C184.328 113.474 184.328 113.757 184.328 114.04C184.328 115.155 184.328 116.178 184.328 117.12C184.328 118.063 184.328 118.857 184.328 119.584C184.328 119.935 184.328 120.262 184.328 120.563C184.356 120.839 184.3 121.116 184.165 121.37C184.065 121.54 183.919 121.691 183.739 121.812C183.559 121.933 183.347 122.022 183.12 122.073C182.951 122.084 182.78 122.071 182.616 122.036Z" fill="#E0E0E0"/>
<path d="M124.441 131.859L104.521 131.787L104.505 134.694L124.424 134.766L124.441 131.859Z" fill="#FA8C16"/>
<path opacity="0.1" d="M124.441 131.859L104.521 131.787L104.505 134.694L124.424 134.766L124.441 131.859Z" fill="black"/>
<path d="M182.461 149.698C182.618 149.683 182.773 149.66 182.926 149.63C183.141 149.576 183.34 149.485 183.508 149.365C183.676 149.245 183.81 149.098 183.902 148.934C184.023 148.685 184.071 148.417 184.041 148.152C184.041 147.85 184.041 147.536 184.041 147.172C184.041 146.464 184.041 145.645 184.041 144.708V140.797C184.078 140.514 184 140.229 183.817 139.984C183.621 139.737 183.322 139.554 182.973 139.466C182.587 139.41 182.194 139.391 181.803 139.411H170.658L106.105 139.22C105.757 139.221 105.422 139.322 105.162 139.504C104.901 139.686 104.732 139.938 104.687 140.212C104.687 140.828 104.687 141.444 104.687 142.06C104.687 143.292 104.687 144.524 104.687 145.756C104.687 146.372 104.687 146.987 104.687 147.603C104.658 147.889 104.674 148.177 104.734 148.46C104.826 148.711 105.026 148.929 105.299 149.076C105.583 149.223 105.921 149.293 106.259 149.273H109.628L126.768 149.347L155.788 149.488L175.352 149.612L180.672 149.661H175.352H155.788L126.768 149.593L109.628 149.538H106.259C105.84 149.56 105.423 149.471 105.074 149.285C104.722 149.091 104.465 148.806 104.346 148.478C104.277 148.165 104.256 147.847 104.284 147.53C104.284 146.914 104.284 146.298 104.284 145.682C104.284 144.45 104.284 143.218 104.284 141.986C104.284 141.37 104.284 140.754 104.284 140.107C104.339 139.755 104.554 139.432 104.887 139.197C105.221 138.962 105.651 138.832 106.097 138.832L170.65 139.115L181.795 139.183C182.21 139.163 182.627 139.186 183.034 139.251C183.437 139.355 183.776 139.575 183.987 139.867C184.187 140.138 184.274 140.453 184.235 140.766C184.235 141.056 184.235 141.345 184.235 141.622C184.235 142.737 184.235 143.76 184.235 144.702C184.235 145.645 184.235 146.439 184.235 147.166C184.235 147.517 184.235 147.844 184.235 148.145C184.265 148.421 184.209 148.698 184.072 148.952C183.972 149.122 183.826 149.273 183.646 149.394C183.465 149.515 183.254 149.604 183.027 149.655C182.845 149.704 182.651 149.719 182.461 149.698Z" fill="#E0E0E0"/>
<path d="M146.445 115.424L110.013 115.293L109.998 118.009L146.429 118.141L146.445 115.424Z" fill="#FA8C16"/>
<path opacity="0.2" d="M146.445 115.424L110.013 115.293L109.998 118.009L146.429 118.141L146.445 115.424Z" fill="white"/>
<path d="M113.307 144.672C113.284 144.92 113.17 145.157 112.979 145.354C112.789 145.551 112.53 145.699 112.234 145.779C111.939 145.86 111.62 145.87 111.318 145.808C111.015 145.746 110.742 145.615 110.533 145.431C110.323 145.247 110.186 145.018 110.139 144.772C110.091 144.526 110.136 144.275 110.266 144.05C110.396 143.824 110.607 143.633 110.873 143.502C111.138 143.371 111.446 143.304 111.758 143.311C112.189 143.33 112.594 143.484 112.884 143.739C113.174 143.993 113.326 144.329 113.307 144.672Z" fill="#FA8C16"/>
<path d="M118.241 144.691C118.256 144.865 118.226 145.039 118.153 145.203C118.08 145.367 117.966 145.518 117.816 145.645C117.667 145.772 117.486 145.874 117.286 145.943C117.085 146.013 116.868 146.048 116.65 146.048C116.431 146.048 116.214 146.013 116.013 145.943C115.813 145.874 115.632 145.772 115.483 145.645C115.333 145.518 115.219 145.367 115.146 145.203C115.073 145.039 115.043 144.865 115.058 144.691C115.043 144.518 115.073 144.343 115.146 144.179C115.219 144.015 115.333 143.865 115.483 143.737C115.632 143.61 115.813 143.509 116.013 143.439C116.214 143.37 116.431 143.334 116.65 143.334C116.868 143.334 117.085 143.37 117.286 143.439C117.486 143.509 117.667 143.61 117.816 143.737C117.966 143.865 118.08 144.015 118.153 144.179C118.226 144.343 118.256 144.518 118.241 144.691Z" fill="#FA8C16"/>
<path d="M123.182 144.709C123.159 144.957 123.046 145.194 122.855 145.391C122.664 145.588 122.405 145.736 122.11 145.817C121.814 145.897 121.496 145.907 121.193 145.845C120.891 145.783 120.618 145.652 120.408 145.468C120.198 145.284 120.061 145.055 120.014 144.809C119.967 144.564 120.011 144.312 120.141 144.087C120.272 143.861 120.483 143.671 120.748 143.539C121.013 143.408 121.321 143.342 121.633 143.348C122.064 143.369 122.467 143.523 122.757 143.777C123.047 144.032 123.199 144.366 123.182 144.709Z" fill="#FA8C16"/>
<path d="M128.117 144.727C128.094 144.975 127.98 145.212 127.789 145.409C127.599 145.605 127.34 145.753 127.044 145.834C126.749 145.915 126.43 145.925 126.128 145.863C125.825 145.801 125.552 145.67 125.342 145.486C125.133 145.301 124.996 145.072 124.948 144.827C124.901 144.581 124.945 144.33 125.076 144.104C125.206 143.878 125.417 143.688 125.682 143.557C125.947 143.426 126.255 143.359 126.568 143.366C126.998 143.386 127.402 143.54 127.691 143.795C127.981 144.049 128.134 144.384 128.117 144.727Z" fill="#FA8C16"/>
<path d="M133.05 144.74C133.029 144.989 132.916 145.226 132.726 145.424C132.536 145.622 132.278 145.77 131.982 145.852C131.687 145.934 131.368 145.945 131.065 145.883C130.762 145.822 130.488 145.691 130.278 145.507C130.067 145.323 129.93 145.094 129.882 144.848C129.834 144.602 129.878 144.351 130.008 144.125C130.138 143.899 130.349 143.708 130.615 143.577C130.88 143.445 131.188 143.379 131.501 143.385C131.93 143.406 132.333 143.559 132.622 143.812C132.911 144.065 133.065 144.398 133.05 144.74Z" fill="#FA8C16"/>
<path d="M137.99 144.759C137.969 145.006 137.858 145.243 137.67 145.44C137.482 145.637 137.226 145.786 136.932 145.869C136.639 145.952 136.322 145.965 136.02 145.906C135.718 145.847 135.444 145.719 135.231 145.538C135.019 145.357 134.878 145.131 134.826 144.887C134.774 144.643 134.812 144.392 134.936 144.166C135.061 143.939 135.266 143.746 135.527 143.611C135.787 143.475 136.092 143.404 136.403 143.404C136.839 143.417 137.251 143.567 137.549 143.821C137.846 144.075 138.005 144.412 137.99 144.759Z" fill="#FA8C16"/>
<path d="M142.923 144.777C142.938 144.951 142.908 145.125 142.835 145.289C142.762 145.453 142.647 145.604 142.498 145.731C142.349 145.858 142.168 145.96 141.967 146.029C141.766 146.099 141.55 146.134 141.331 146.134C141.112 146.134 140.896 146.099 140.695 146.029C140.494 145.96 140.314 145.858 140.164 145.731C140.015 145.604 139.9 145.453 139.827 145.289C139.754 145.125 139.724 144.951 139.739 144.777C139.724 144.604 139.754 144.429 139.827 144.265C139.9 144.101 140.015 143.951 140.164 143.823C140.314 143.696 140.494 143.595 140.695 143.525C140.896 143.456 141.112 143.42 141.331 143.42C141.55 143.42 141.766 143.456 141.967 143.525C142.168 143.595 142.349 143.696 142.498 143.823C142.647 143.951 142.762 144.101 142.835 144.265C142.908 144.429 142.938 144.604 142.923 144.777Z" fill="#FA8C16"/>
<path d="M147.857 144.795C147.836 145.041 147.724 145.278 147.536 145.475C147.348 145.672 147.092 145.821 146.799 145.904C146.505 145.987 146.188 146 145.886 145.941C145.584 145.882 145.31 145.754 145.098 145.573C144.886 145.392 144.745 145.166 144.692 144.922C144.64 144.678 144.678 144.427 144.803 144.201C144.927 143.974 145.132 143.781 145.393 143.646C145.653 143.511 145.958 143.439 146.269 143.439C146.705 143.452 147.117 143.602 147.415 143.856C147.713 144.11 147.871 144.448 147.857 144.795Z" fill="#FA8C16"/>
<path d="M152.79 144.815C152.769 145.063 152.656 145.3 152.466 145.498C152.276 145.696 152.018 145.845 151.722 145.926C151.427 146.008 151.108 146.019 150.805 145.958C150.502 145.896 150.228 145.765 150.018 145.581C149.807 145.397 149.67 145.168 149.622 144.922C149.574 144.677 149.618 144.425 149.748 144.199C149.878 143.973 150.089 143.782 150.355 143.651C150.62 143.519 150.928 143.453 151.241 143.459C151.67 143.48 152.073 143.633 152.362 143.886C152.651 144.14 152.805 144.473 152.79 144.815Z" fill="#FA8C16"/>
<g opacity="0.2">
<path d="M113.307 144.672C113.284 144.92 113.17 145.157 112.979 145.354C112.789 145.551 112.53 145.699 112.234 145.779C111.939 145.86 111.62 145.87 111.318 145.808C111.015 145.746 110.742 145.615 110.533 145.431C110.323 145.247 110.186 145.018 110.139 144.772C110.091 144.526 110.136 144.275 110.266 144.05C110.396 143.824 110.607 143.633 110.873 143.502C111.138 143.371 111.446 143.304 111.758 143.311C112.189 143.33 112.594 143.484 112.884 143.739C113.174 143.993 113.326 144.329 113.307 144.672Z" fill="white"/>
<path d="M118.241 144.691C118.256 144.865 118.227 145.039 118.154 145.203C118.08 145.367 117.966 145.518 117.816 145.645C117.667 145.772 117.487 145.874 117.286 145.943C117.085 146.013 116.869 146.048 116.65 146.048C116.431 146.048 116.214 146.013 116.014 145.943C115.813 145.874 115.632 145.772 115.483 145.645C115.334 145.518 115.219 145.367 115.146 145.203C115.073 145.039 115.043 144.865 115.058 144.691C115.043 144.518 115.073 144.343 115.146 144.179C115.219 144.015 115.334 143.865 115.483 143.737C115.632 143.61 115.813 143.509 116.014 143.439C116.214 143.37 116.431 143.334 116.65 143.334C116.869 143.334 117.085 143.37 117.286 143.439C117.487 143.509 117.667 143.61 117.816 143.737C117.966 143.865 118.08 144.015 118.154 144.179C118.227 144.343 118.256 144.518 118.241 144.691Z" fill="white"/>
<path d="M123.182 144.709C123.159 144.957 123.046 145.194 122.855 145.391C122.664 145.588 122.405 145.736 122.11 145.817C121.815 145.897 121.496 145.907 121.193 145.845C120.891 145.783 120.618 145.652 120.408 145.468C120.199 145.284 120.062 145.055 120.014 144.809C119.967 144.564 120.011 144.312 120.142 144.087C120.272 143.861 120.483 143.671 120.748 143.539C121.013 143.408 121.321 143.342 121.633 143.348C122.064 143.369 122.468 143.523 122.757 143.777C123.047 144.032 123.199 144.366 123.182 144.709Z" fill="white"/>
<path d="M128.117 144.727C128.094 144.975 127.98 145.212 127.789 145.409C127.599 145.605 127.34 145.753 127.044 145.834C126.749 145.915 126.43 145.925 126.128 145.863C125.825 145.801 125.552 145.67 125.343 145.486C125.133 145.301 124.996 145.072 124.949 144.827C124.901 144.581 124.945 144.33 125.076 144.104C125.206 143.878 125.417 143.688 125.682 143.557C125.948 143.426 126.255 143.359 126.568 143.366C126.998 143.386 127.402 143.54 127.691 143.795C127.981 144.049 128.134 144.384 128.117 144.727Z" fill="white"/>
<path d="M133.05 144.74C133.029 144.989 132.916 145.226 132.726 145.424C132.537 145.622 132.278 145.77 131.982 145.852C131.687 145.934 131.368 145.945 131.065 145.883C130.762 145.822 130.488 145.691 130.278 145.507C130.067 145.323 129.93 145.094 129.882 144.848C129.834 144.602 129.878 144.351 130.008 144.125C130.138 143.899 130.349 143.708 130.615 143.577C130.88 143.445 131.188 143.379 131.501 143.385C131.93 143.406 132.333 143.559 132.622 143.812C132.911 144.065 133.065 144.398 133.05 144.74Z" fill="white"/>
<path d="M137.991 144.759C137.97 145.006 137.859 145.243 137.671 145.44C137.483 145.637 137.226 145.786 136.933 145.869C136.64 145.952 136.323 145.965 136.02 145.906C135.718 145.847 135.444 145.719 135.232 145.538C135.02 145.357 134.879 145.131 134.827 144.887C134.774 144.643 134.813 144.392 134.937 144.166C135.062 143.939 135.267 143.746 135.527 143.611C135.788 143.475 136.092 143.404 136.403 143.404C136.84 143.417 137.252 143.567 137.549 143.821C137.847 144.075 138.006 144.412 137.991 144.759Z" fill="white"/>
<path d="M142.923 144.777C142.938 144.951 142.908 145.125 142.835 145.289C142.762 145.453 142.647 145.604 142.498 145.731C142.349 145.858 142.168 145.96 141.967 146.029C141.767 146.099 141.55 146.134 141.331 146.134C141.112 146.134 140.896 146.099 140.695 146.029C140.494 145.96 140.314 145.858 140.165 145.731C140.015 145.604 139.9 145.453 139.827 145.289C139.754 145.125 139.724 144.951 139.74 144.777C139.724 144.604 139.754 144.429 139.827 144.265C139.9 144.101 140.015 143.951 140.165 143.823C140.314 143.696 140.494 143.595 140.695 143.525C140.896 143.456 141.112 143.42 141.331 143.42C141.55 143.42 141.767 143.456 141.967 143.525C142.168 143.595 142.349 143.696 142.498 143.823C142.647 143.951 142.762 144.101 142.835 144.265C142.908 144.429 142.938 144.604 142.923 144.777Z" fill="white"/>
<path d="M147.857 144.795C147.836 145.041 147.724 145.278 147.536 145.475C147.348 145.672 147.092 145.821 146.799 145.904C146.506 145.987 146.188 146 145.886 145.941C145.584 145.882 145.31 145.754 145.098 145.573C144.886 145.392 144.745 145.166 144.692 144.922C144.64 144.678 144.678 144.427 144.803 144.201C144.927 143.974 145.132 143.781 145.393 143.646C145.654 143.511 145.958 143.439 146.269 143.439C146.705 143.452 147.117 143.602 147.415 143.856C147.713 144.11 147.872 144.448 147.857 144.795Z" fill="white"/>
<path d="M152.791 144.815C152.77 145.063 152.657 145.3 152.467 145.498C152.278 145.696 152.019 145.845 151.724 145.926C151.428 146.008 151.109 146.019 150.806 145.958C150.503 145.896 150.229 145.765 150.019 145.581C149.809 145.397 149.671 145.168 149.623 144.922C149.575 144.677 149.619 144.425 149.749 144.199C149.88 143.973 150.091 143.782 150.356 143.651C150.621 143.519 150.93 143.453 151.242 143.459C151.672 143.48 152.074 143.633 152.363 143.886C152.653 144.14 152.806 144.473 152.791 144.815Z" fill="white"/>
</g>
<path d="M145.782 55.8932C146.32 55.7048 146.776 55.3947 147.094 55.0015C147.412 54.6083 147.578 54.1494 147.571 53.6819C147.591 53.378 147.533 53.074 147.4 52.7885C147.268 52.5029 147.064 52.2418 146.801 52.0211C146.537 51.8003 146.22 51.6245 145.868 51.5044C145.517 51.3842 145.138 51.3223 144.756 51.3223C144.373 51.3223 143.994 51.3842 143.643 51.5044C143.291 51.6245 142.974 51.8003 142.711 52.0211C142.447 52.2418 142.243 52.5029 142.111 52.7885C141.978 53.074 141.92 53.378 141.94 53.6819C141.928 54.1541 142.093 54.6185 142.413 55.0164C142.732 55.4144 143.193 55.7281 143.737 55.9179C139.4 56.4353 139.594 60.1804 139.594 60.1804L149.848 60.2173C149.848 60.2173 150.088 56.4045 145.782 55.8932Z" fill="#FA8C16"/>
<path opacity="0.1" d="M145.782 55.8932C146.32 55.7048 146.776 55.3947 147.094 55.0015C147.412 54.6083 147.578 54.1494 147.571 53.6819C147.591 53.378 147.533 53.074 147.4 52.7885C147.268 52.5029 147.064 52.2418 146.801 52.0211C146.537 51.8003 146.22 51.6245 145.868 51.5044C145.517 51.3842 145.138 51.3223 144.756 51.3223C144.373 51.3223 143.994 51.3842 143.643 51.5044C143.291 51.6245 142.974 51.8003 142.711 52.0211C142.447 52.2418 142.243 52.5029 142.111 52.7885C141.978 53.074 141.92 53.378 141.94 53.6819C141.928 54.1541 142.093 54.6185 142.413 55.0164C142.732 55.4144 143.193 55.7281 143.737 55.9179C139.4 56.4353 139.594 60.1804 139.594 60.1804L149.848 60.2173C149.848 60.2173 150.088 56.4045 145.782 55.8932Z" fill="black"/>
<path d="M162.444 62.6319L125.896 62.5L125.877 65.974L162.424 66.1059L162.444 62.6319Z" fill="#FA8C16"/>
<path opacity="0.2" d="M162.444 62.6319L125.896 62.5L125.877 65.974L162.424 66.1059L162.444 62.6319Z" fill="white"/>
<path d="M28.0827 80.6368H27.7187L26.6654 80.6984C26.0953 80.7256 25.5285 80.7853 24.9692 80.877C24.607 80.9175 24.2476 80.973 23.8927 81.0433L22.6922 81.3082C20.649 81.8067 18.7212 82.5661 16.9843 83.5565C14.6894 84.8813 12.7731 86.5775 11.3615 88.5335C10.5318 89.661 9.87152 90.8622 9.39427 92.1123C8.89278 93.471 8.60404 94.8737 8.53459 96.2886C8.48843 97.0318 8.50395 97.7767 8.58106 98.5184C8.58106 98.8941 8.71272 99.2699 8.77468 99.6518C8.82679 100.037 8.91744 100.418 9.04575 100.791C9.74219 103.263 11.1553 105.571 13.1723 107.531C15.1893 109.492 17.7545 111.05 20.6631 112.082C22.7682 112.804 25.0246 113.208 27.3159 113.271C29.6826 113.374 32.0515 113.104 34.2863 112.476L34.9679 112.273H35.0608L35.1383 112.31L44.9046 116.252L44.618 116.449C43.5724 113.875 42.5656 111.38 41.5897 108.984V108.891L41.6749 108.824C44.0441 106.926 45.8028 104.601 46.8021 102.048C47.7071 99.7134 47.9712 97.2515 47.5765 94.8287C47.2255 92.6756 46.3551 90.5966 45.013 88.706C43.8561 87.0819 42.3637 85.6242 40.5984 84.3942C39.142 83.4206 37.5299 82.6045 35.8043 81.9673C34.4986 81.5194 33.1388 81.1788 31.746 80.9509L30.197 80.7476L29.074 80.6799L28.3925 80.6429H28.1601C28.2373 80.6361 28.3153 80.6361 28.3925 80.6429H29.0818L30.2048 80.6799L31.7537 80.8585C33.1639 81.0697 34.5423 81.398 35.8663 81.8379C37.6215 82.4676 39.2626 83.2818 40.7456 84.2587C42.5433 85.4833 44.0674 86.9411 45.2531 88.5705C46.6333 90.4814 47.5304 92.5886 47.8941 94.7733C48.3215 97.2334 48.0758 99.738 47.1738 102.116C46.1681 104.722 44.3821 107.096 41.9692 109.033L42.0157 108.873C42.9916 111.269 44.0061 113.764 45.0595 116.332L45.2066 116.708L44.7651 116.529L34.9988 112.593H35.1692L34.4722 112.797C32.1944 113.434 29.7816 113.71 27.3701 113.61C25.0294 113.539 22.7258 113.121 20.5779 112.378C16.4806 110.982 13.0717 108.557 10.8735 105.473C9.86199 104.048 9.12326 102.512 8.68174 100.915C8.56083 100.531 8.4703 100.143 8.41067 99.7503C8.34871 99.3623 8.24803 98.9804 8.22479 98.5985C8.01518 96.4067 8.30645 94.203 9.08448 92.0938C9.57361 90.8265 10.2523 89.6105 11.1059 88.4719C12.5512 86.4981 14.5074 84.7911 16.8448 83.4641C18.6104 82.4711 20.5706 81.7177 22.6458 81.2343L23.8617 80.9879C24.2196 80.9218 24.5815 80.8704 24.946 80.8339C25.5111 80.7507 26.0832 80.7012 26.6576 80.686L27.7187 80.6552C27.8393 80.6423 27.9609 80.6361 28.0827 80.6368Z" fill="#FA8C16"/>
<path d="M32.4962 95.0008H31.0634L27.9655 91.5391V89.2662C27.9655 89.2662 25.7505 89.1553 26.0138 92.1304C26.2771 95.1056 26.0138 94.3479 26.0138 94.3479C26.0138 94.3479 21.3126 94.3479 20.9254 94.6867C20.5381 95.0255 20.5149 98.6351 20.4607 100.649C20.431 101.135 20.6062 101.614 20.9584 102.012C21.3106 102.409 21.8197 102.701 22.4047 102.842C22.5686 102.878 22.7379 102.897 22.9081 102.898C24.0853 102.898 30.0721 102.14 30.0721 102.14H32.5427L32.4962 95.0008Z" fill="#FA8C16"/>
<path d="M36.5939 94.3906L35.7109 102.176H33.2635V94.5508L36.5939 94.3906Z" fill="#FA8C16"/>
<path d="M65.784 252.897V247.63L53.9111 247.562L53.8104 255.527L54.5462 255.57C57.8223 255.736 71.2132 255.983 73.4127 255.441C75.8601 254.837 65.784 252.897 65.784 252.897Z" fill="#FA8C16"/>
<path d="M73.6937 254.949C73.6937 255.035 69.2481 255.109 63.7725 255.109C58.2969 255.109 53.8513 255.035 53.8513 254.949C53.8513 254.863 58.2969 254.789 63.7725 254.789C69.2481 254.789 73.6937 254.863 73.6937 254.949Z" fill="#263238"/>
<path d="M65.9942 253.975C65.8935 253.932 65.9942 253.655 66.2343 253.359C66.4743 253.063 66.7996 252.94 66.8771 253.002C66.9545 253.063 66.7919 253.297 66.5595 253.55C66.3272 253.803 66.0949 254.018 65.9942 253.975Z" fill="#263238"/>
<path d="M66.7535 254.321C66.6451 254.321 66.6993 253.976 66.9316 253.65C67.164 253.323 67.4738 253.126 67.559 253.175C67.6441 253.225 67.5047 253.502 67.2879 253.791C67.071 254.081 66.8542 254.352 66.7535 254.321Z" fill="#263238"/>
<path d="M57.4276 254.925C57.3812 254.925 57.203 254.814 56.9474 254.58C56.6355 254.279 56.2879 254.002 55.9096 253.754C55.5376 253.518 55.0944 253.363 54.624 253.305C54.26 253.268 54.0276 253.305 54.0044 253.268C53.9812 253.231 54.2058 253.101 54.6317 253.077C55.1939 253.067 55.7423 253.215 56.1807 253.495C56.5915 253.762 56.9379 254.085 57.203 254.45C57.3812 254.721 57.4741 254.9 57.4276 254.925Z" fill="#263238"/>
<path d="M66.0324 252.983C66.0866 253.057 65.8852 253.241 65.5445 253.34C65.2037 253.439 64.9016 253.402 64.8861 253.34C64.8707 253.278 65.1107 253.149 65.4051 253.063C65.6994 252.977 65.9704 252.909 66.0324 252.983Z" fill="#263238"/>
<path d="M65.8473 252.473C65.8473 252.565 65.5375 252.639 65.1348 252.645C64.7321 252.651 64.4145 252.577 64.4223 252.491C64.43 252.405 64.7475 252.325 65.1348 252.319C65.522 252.313 65.8318 252.386 65.8473 252.473Z" fill="#263238"/>
<path d="M95.022 252.897V247.63L83.1491 247.562L83.0484 255.447L83.7842 255.49C87.0602 255.656 100.459 255.983 102.651 255.441C105.098 254.837 95.022 252.897 95.022 252.897Z" fill="#FA8C16"/>
<path d="M102.929 254.961C102.929 255.047 98.4911 255.121 93.0078 255.121C87.5244 255.121 83.0943 255.047 83.0943 254.961C83.0943 254.875 87.5321 254.801 93.0078 254.801C98.4834 254.801 102.929 254.875 102.929 254.961Z" fill="#263238"/>
<path d="M95.2313 253.975C95.1384 253.932 95.2313 253.655 95.4714 253.359C95.7115 253.063 96.0368 252.94 96.1143 253.002C96.1917 253.063 96.0291 253.297 95.7967 253.55C95.5644 253.803 95.332 254.018 95.2313 253.975Z" fill="#263238"/>
<path d="M95.9907 254.321C95.8901 254.321 95.9365 253.976 96.1766 253.65C96.4167 253.323 96.7188 253.126 96.804 253.175C96.8891 253.225 96.742 253.502 96.5251 253.791C96.3083 254.081 96.0992 254.352 95.9907 254.321Z" fill="#263238"/>
<path d="M86.665 254.925C86.6186 254.925 86.4482 254.814 86.1849 254.58C85.8729 254.279 85.5253 254.002 85.147 253.754C84.775 253.518 84.3319 253.363 83.8614 253.305C83.5051 253.268 83.265 253.305 83.2418 253.268C83.2186 253.231 83.4432 253.101 83.8691 253.077C84.4313 253.067 84.9797 253.215 85.4181 253.495C85.831 253.76 86.1778 254.084 86.4405 254.45C86.6186 254.721 86.7115 254.9 86.665 254.925Z" fill="#263238"/>
<path d="M95.2709 252.983C95.3251 253.057 95.1237 253.241 94.7829 253.34C94.4421 253.439 94.1401 253.402 94.1246 253.34C94.1091 253.278 94.3492 253.149 94.6435 253.063C94.9378 252.977 95.2089 252.909 95.2709 252.983Z" fill="#263238"/>
<path d="M95.0998 252.473C95.0998 252.565 94.79 252.639 94.3872 252.645C93.9845 252.651 93.6747 252.577 93.6825 252.491C93.6902 252.405 94 252.325 94.3872 252.319C94.7745 252.313 95.0998 252.386 95.0998 252.473Z" fill="#263238"/>
<path d="M138.765 96.5025C138.456 96.2499 137.689 96.3731 137.689 96.3731C137.766 96.0185 137.766 95.656 137.689 95.3014C137.549 94.9564 136.574 95.0242 136.574 95.0242C136.529 94.7337 136.529 94.4399 136.574 94.1495C136.581 94.0851 136.564 94.0204 136.524 93.9642C136.484 93.9079 136.423 93.8629 136.349 93.8353C135.887 93.6856 135.391 93.6143 134.893 93.6259C134.297 93.2871 136.713 90.5953 137.611 89.733C138.51 88.8706 138.347 88.1992 137.549 88.1992C137 88.1992 134.18 90.7863 133.313 91.6548C132.446 92.5233 130.145 94.9379 130.068 93.0099C129.99 91.082 129.015 89.6283 128.403 89.3819C127.791 89.1355 127.14 89.7145 127.473 90.2504C127.766 90.8592 127.949 91.498 128.016 92.1476C128.1 92.665 128.071 93.1902 127.93 93.6998C127.674 94.6481 127.324 95.579 126.885 96.484H126.823C126.823 96.484 109.923 109.376 108.7 110.294C107.608 111.119 85.6433 109.315 81.2364 108.945C79.7389 108.771 78.2268 108.688 76.7134 108.699C74.8004 108.766 74.4597 108.982 72.5544 109.001C67.7429 109.043 62.9425 109.379 58.1954 110.005C56.0459 110.295 54.0381 111.05 52.391 112.186C50.7439 113.322 49.5207 114.796 48.8551 116.448C44.4173 127.473 34.3644 153.572 32.5908 168.232C31.2506 170.165 30.0407 172.153 28.9662 174.189C27.7193 176.887 28.0213 176.979 28.4396 177.041C29.5703 177.207 30.856 172.365 31.3361 173.536C31.8163 174.706 28.8965 179.307 30.0815 179.443C31.6305 179.615 32.8619 174.515 33.009 174.109C33.1562 173.702 33.9229 173.831 33.7835 174.213C33.5589 174.755 31.3826 180.502 32.9006 180.687C33.7371 180.786 33.83 179.572 33.83 179.572C33.83 179.572 35.379 174.072 36.0838 174.183C36.7886 174.293 36.0373 177.54 35.681 178.624C35.3248 179.708 35.8204 180.256 36.5485 179.991C37.0441 179.806 38.2291 176.511 38.5544 175.439C38.8797 174.367 39.6929 171.398 40.7849 173.117C41.8769 174.835 43.5343 175.833 44.2159 175.858C44.3695 175.844 44.5142 175.794 44.6315 175.713C44.7489 175.633 44.8334 175.527 44.8742 175.409C44.915 175.29 44.9103 175.164 44.8606 175.048C44.8109 174.932 44.7185 174.83 44.5954 174.755C44.0092 174.3 43.506 173.782 43.1006 173.215C42.7393 172.774 42.4773 172.287 42.3261 171.774C42.014 170.752 41.8324 169.708 41.784 168.657L41.6601 168.041C43.3949 161.21 48.3904 141.16 55.6009 128.354L58.5594 133.196L59.8451 136.781L51.9608 152.26L85.5891 151.909L80.5704 136.547L86.6656 120.531C93.2565 120.649 110.179 120.846 112.998 119.829C116.545 118.597 134.893 100.168 134.893 100.168C136.089 99.4284 137.234 98.6388 138.324 97.8022C138.324 97.8022 139.439 97.0569 138.765 96.5025Z" fill="#FFBE9D"/>
<path d="M50.4816 140.821C51.4575 138.173 56.4684 125.077 56.4684 125.077C56.4684 125.077 58.9313 135.752 58.2807 137.039C57.6823 138.141 56.9753 139.204 56.1664 140.218C50.4816 147.098 51.2252 150.541 51.2252 150.541L85.5737 149.71C85.6512 145.891 82.8088 137.009 82.2202 135.592C81.6316 134.175 83.591 129.537 83.591 129.537C83.591 129.537 87.4635 126.402 87.3241 124.788C87.2505 123.338 87.0251 121.896 86.6502 120.476L107.561 121.092L106.903 109.82L76.8685 107.43C75.8229 109.777 66.3664 108.625 66.3664 108.625C56.1586 108.896 55.5236 110.386 51.2794 113.01C47.0352 115.634 40.0106 138.154 40.0106 138.154L50.4816 140.821Z" fill="#FA8C16"/>
<path d="M70.7881 138.155C70.1929 138.24 69.5866 138.265 68.9836 138.229C67.8605 138.229 66.3193 138.167 64.6232 138.032C62.9271 137.896 61.3936 137.706 60.3015 137.533C59.6994 137.471 59.109 137.351 58.5435 137.176C59.149 137.176 59.7531 137.221 60.348 137.311C61.4478 137.422 62.9735 137.576 64.6619 137.712C66.3503 137.847 67.8838 137.94 68.9913 138.001C69.595 138.007 70.1966 138.059 70.7881 138.155Z" fill="#263238"/>
<path d="M73.1429 135.832C72.5474 136.064 71.9177 136.236 71.2686 136.343C68.1786 136.989 64.9907 137.29 61.7966 137.236C61.1356 137.254 60.4746 137.204 59.8294 137.089C60.4817 137.023 61.1393 136.996 61.7966 137.009C63.0125 136.978 64.6854 136.91 66.5287 136.738C68.372 136.565 70.0139 136.319 71.1757 136.122C71.8209 135.984 72.4787 135.888 73.1429 135.832Z" fill="#263238"/>
<path d="M84.6977 125.471C84.682 125.94 84.6015 126.407 84.4576 126.863C84.2562 127.719 83.9464 128.889 83.5515 130.171C83.1565 131.452 82.777 132.634 82.4362 133.435C82.2992 133.894 82.0965 134.338 81.8321 134.76C81.8752 134.291 81.9844 133.829 82.1574 133.38C82.4517 132.419 82.7847 131.31 83.1565 130.097C83.5282 128.883 83.8845 127.774 84.1788 126.814C84.2836 126.351 84.4578 125.9 84.6977 125.471Z" fill="#263238"/>
<path d="M50.8442 139.251C49.0525 139.031 47.2842 138.704 45.5545 138.272C43.787 137.943 42.0526 137.511 40.3654 136.979C42.1563 137.202 43.9242 137.529 45.6552 137.958C47.423 138.285 49.1576 138.718 50.8442 139.251Z" fill="#263238"/>
<path d="M87.0211 120.34C86.729 120.38 86.4304 120.38 86.1382 120.34C85.3292 120.274 84.5349 120.123 83.776 119.891C82.509 119.512 81.3557 118.927 80.39 118.172C79.4243 117.418 78.6677 116.512 78.1687 115.511C77.6172 114.41 77.3817 113.226 77.4794 112.043C77.514 111.068 77.8807 110.118 78.5405 109.296C79.0046 108.742 79.6978 108.334 80.4999 108.144C80.7143 108.097 80.9359 108.074 81.1582 108.076C81.3131 108.076 81.3906 108.076 81.3906 108.076C81.3906 108.076 81.0653 108.076 80.5464 108.243C79.8105 108.459 79.1863 108.864 78.7728 109.394C77.7195 110.713 77.4252 113.121 78.5482 115.369C79.0709 116.429 79.8892 117.381 80.9414 118.154C81.8036 118.785 82.7966 119.294 83.8767 119.657C84.8903 119.975 85.9447 120.204 87.0211 120.34Z" fill="#263238"/>
<path d="M105.074 120.87C104.881 118.981 104.819 117.085 104.889 115.191C104.828 113.298 104.9 111.404 105.105 109.518C105.299 111.404 105.361 113.298 105.291 115.191C105.356 117.085 105.284 118.982 105.074 120.87Z" fill="#263238"/>
<path d="M76.6663 108.12C76.7515 106.747 76.9296 105.195 76.9296 105.195C76.9296 105.195 81.2048 104.819 81.4604 101.308C81.7159 97.7967 81.4604 89.6967 81.4604 89.6967L73.7155 86.543L65.1187 91.9204L66.443 109.476L74.3273 109.876C74.93 109.889 75.5147 109.712 75.9531 109.383C76.3916 109.054 76.6481 108.6 76.6663 108.12Z" fill="#FFBE9D"/>
<path d="M77.4334 98.5283C77.4334 98.5283 77.4334 98.5961 77.3637 98.6762C77.306 98.7342 77.2315 98.7803 77.1465 98.8103C77.0615 98.8404 76.9686 98.8535 76.8757 98.8486C76.3801 98.8486 75.8999 98.3928 75.7295 97.8631C75.6485 97.6063 75.6485 97.3376 75.7295 97.0808C75.7454 96.9687 75.7962 96.8616 75.8774 96.769C75.9585 96.6765 76.0674 96.6016 76.1942 96.5511C76.2983 96.5168 76.4153 96.5168 76.5195 96.5511C76.5967 96.5816 76.6593 96.6313 76.6976 96.6927C76.7518 96.7974 76.6976 96.8652 76.6976 96.859C76.6976 96.8529 76.6976 96.7974 76.6202 96.7359C76.5797 96.6917 76.5201 96.661 76.453 96.6497C76.3858 96.6383 76.3157 96.6471 76.2561 96.6742C76.1611 96.7199 76.0822 96.784 76.0267 96.8605C75.9712 96.9369 75.9409 97.0233 75.9386 97.1116C75.8734 97.3407 75.8734 97.5785 75.9386 97.8076C76.0935 98.2881 76.5117 98.6762 76.8835 98.7131C76.9562 98.721 77.0302 98.7168 77.1008 98.7009C77.1714 98.685 77.2372 98.6577 77.294 98.6207C77.3869 98.5714 77.4179 98.5222 77.4334 98.5283Z" fill="#EB996E"/>
<path d="M84.1166 87.7988C83.5202 86.185 81.3594 85.3842 79.3922 84.9407C76.3949 84.2632 73.1576 83.9675 70.23 84.8237C67.3024 85.6799 63.7863 87.1829 63.7863 89.7515C62.0591 89.6406 61.0678 90.8417 60.3862 92.3324C59.9505 93.2406 59.6894 94.1958 59.6117 95.1659C59.3949 98.5291 58.2099 103.173 55.4682 105.637C53.9193 107.011 51.7739 107.96 50.891 109.672C50.1165 111.156 50.5193 112.918 49.799 114.421C49.1562 115.745 47.7388 116.688 46.701 117.84C45.6437 119.146 45.0215 120.645 44.8928 122.196C44.7641 123.747 45.1331 125.298 45.9653 126.704C46.8034 128.073 47.9834 129.293 49.4334 130.289C50.8834 131.284 52.5731 132.034 54.3994 132.494C58.0171 133.369 61.8749 133.399 65.5134 132.58C68.244 132.061 70.7913 131.056 72.9639 129.642C75.187 128.198 76.7138 126.187 77.2856 123.95C77.8355 121.437 76.9525 118.881 76.2942 116.38C74.2341 108.477 74.8227 108.064 77.425 100.728C77.4869 100.599 77.5179 100.463 77.5644 100.334C77.6109 100.204 77.6341 100.143 77.6651 100.044C77.739 99.7543 77.7779 99.4594 77.7812 99.1635C77.4012 99.2759 76.9886 99.2997 76.5921 99.232C76.1956 99.1644 75.8316 99.0081 75.543 98.7816C75.2536 98.5401 75.0519 98.2408 74.9592 97.9154C74.8665 97.5901 74.8862 97.2508 75.0163 96.9337C75.1991 96.5868 75.4713 96.2744 75.8156 96.0165C76.1598 95.7587 76.5682 95.5612 77.0145 95.4369C77.8742 95.1535 78.7958 95.0057 79.64 94.6916C81.4291 94.014 82.6683 92.6096 83.5125 91.1374C84.2065 90.1171 84.4207 88.9334 84.1166 87.7988Z" fill="#263238"/>
<path d="M77.7427 98.6953C77.9063 98.8876 78.0415 99.0943 78.1454 99.3113C78.3778 99.6993 78.6876 100.248 79.0283 100.882L79.0903 100.999H78.9277L78.1532 101.054C77.6188 101.054 77.1696 101.135 76.6429 101.128C76.5971 101.12 76.5546 101.103 76.5193 101.078C76.4841 101.053 76.4574 101.022 76.4416 100.987C76.4185 100.931 76.4185 100.87 76.4416 100.814C76.4595 100.731 76.4827 100.649 76.5113 100.568L76.6507 100.131C76.7207 99.8388 76.8298 99.5538 76.976 99.2805C76.9615 99.5779 76.907 99.8732 76.8133 100.161L76.7049 100.599C76.6661 100.746 76.5964 100.974 76.7049 100.956C77.0921 100.956 77.642 100.888 78.1532 100.864L78.9277 100.808L78.827 100.944C78.4939 100.328 78.2151 99.7486 78.0525 99.3482C77.9098 99.1437 77.8054 98.9238 77.7427 98.6953Z" fill="#FA8C16"/>
<path d="M51.2243 150.543L85.5728 149.711L100.52 196.118L97.771 249.35H79.6093L81.8321 197.252L68.5496 164.944L70.5942 251.414L52.2389 251.629L50.3104 170.352C50.2252 168.091 49.2958 162.997 49.6443 160.755L51.2243 150.543Z" fill="#263238"/>
<path d="M73.1194 165.601C72.5572 165.629 71.9928 165.602 71.4388 165.521C70.401 165.422 68.9837 165.25 67.427 165.004C65.8702 164.757 64.4762 164.474 63.4693 164.246C62.9311 164.152 62.4105 164.003 61.9203 163.803C61.9203 163.71 64.4452 164.191 67.5431 164.69C70.6411 165.188 73.1349 165.509 73.1194 165.601Z" fill="#455A64"/>
<path d="M97.5848 246.43C97.5848 246.516 93.4723 246.59 88.3994 246.59C83.3265 246.59 79.2062 246.516 79.2062 246.43C79.2062 246.343 83.3187 246.27 88.3994 246.27C93.48 246.27 97.5848 246.337 97.5848 246.43Z" fill="#455A64"/>
<path d="M70.4321 249.164C70.4321 249.256 66.4358 249.324 61.51 249.324C56.5843 249.324 52.5956 249.256 52.5956 249.164C52.5956 249.072 56.592 249.004 61.51 249.004C66.428 249.004 70.4321 249.078 70.4321 249.164Z" fill="#455A64"/>
<path d="M68.0625 248.943C67.954 248.943 67.4738 230.051 66.9859 206.749C66.498 183.447 66.2114 164.543 66.3121 164.543C66.4128 164.543 66.9085 183.429 67.3887 206.743C67.8688 230.058 68.1786 248.943 68.0625 248.943Z" fill="#455A64"/>
<path d="M95.1453 246.429C95.1368 246.345 95.1368 246.261 95.1453 246.177V245.437C95.1453 244.772 95.2073 243.817 95.2537 242.604C95.3621 240.14 95.517 236.561 95.7107 232.176C96.1289 223.355 96.7175 211.196 97.3603 197.774C97.3603 197.644 97.3603 197.521 97.3603 197.41V197.453C93.2943 184.518 89.6154 172.778 86.9435 164.283L83.8455 154.237C83.4892 153.06 83.2182 152.143 83.0246 151.502C82.9316 151.2 82.8697 150.966 82.8154 150.787C82.7853 150.707 82.7671 150.625 82.7612 150.541C82.8015 150.619 82.8326 150.699 82.8542 150.781C82.9161 150.954 82.9936 151.188 83.102 151.483C83.3111 152.099 83.6132 153.036 84.0004 154.206C84.7749 156.584 85.8669 160.008 87.23 164.228C89.9252 172.716 93.6428 184.426 97.7631 197.379V197.423C97.7631 197.533 97.7631 197.663 97.7631 197.786C97.0738 211.208 96.4464 223.361 95.9895 232.182C95.7494 236.574 95.548 240.128 95.4086 242.604C95.3312 243.836 95.2692 244.772 95.2305 245.437C95.2305 245.752 95.184 245.998 95.1763 246.177C95.1774 246.261 95.167 246.346 95.1453 246.429Z" fill="#455A64"/>
<path d="M89.2209 196.326C87.9164 196.667 86.5725 196.905 85.209 197.035C83.5362 197.262 82.1111 197.423 81.4683 197.447V197.324C81.6774 197.373 81.7858 197.404 81.7858 197.429C81.7858 197.453 81.6541 197.429 81.4373 197.429H80.9726L81.4373 197.318C82.0414 197.176 83.4665 196.942 85.1393 196.702C86.4811 196.47 87.8482 196.345 89.2209 196.326Z" fill="#455A64"/>
<path d="M88.904 198.094C87.6959 198.138 86.4853 198.094 85.2871 197.964C84.0773 197.945 82.8721 197.84 81.6857 197.65C84.1062 197.493 86.5426 197.643 88.904 198.094Z" fill="#455A64"/>
<path opacity="0.2" d="M51.0786 151.522C51.4853 151.937 51.9977 152.28 52.5822 152.527C53.1668 152.774 53.8103 152.921 54.4708 152.957C55.8542 153.087 57.2535 153.067 58.6298 152.895C67.4977 152.113 76.8922 151.393 85.5743 149.711C74.3364 150.21 62.4635 150.044 51.2257 150.543L51.1095 151.306" fill="black"/>
<g opacity="0.2">
<path d="M62.6562 164.117L68.9916 183.668L68.5501 164.943L62.6562 164.117Z" fill="black"/>
</g>
</svg>
