<svg width="246" height="256" viewBox="0 0 246 256" fill="none" xmlns="http://www.w3.org/2000/svg">
<path d="M246 255.848C246 255.934 192.22 256.008 125.9 256.008C59.5809 256.008 5.77722 255.934 5.77722 255.848C5.77722 255.762 59.5499 255.688 125.9 255.688C192.251 255.688 246 255.768 246 255.848Z" fill="#263238"/>
<path d="M193.6 180.441C181.634 173.795 178.923 161.457 179.395 150.363C179.473 148.515 179.217 146.556 180.325 144.936C181.432 143.316 184.019 142.201 186.103 142.978C187.83 143.624 188.581 145.226 189.549 146.55C190.841 148.314 192.734 149.751 195.009 150.696C196.488 151.312 198.324 151.681 199.788 151.041C201.801 150.16 202.034 147.961 202.018 146.113C202.018 142.676 201.992 139.243 201.941 135.814C201.802 133.973 202.037 132.126 202.638 130.344C203.358 128.595 204.961 126.975 207.153 126.482C209.345 125.989 212.079 127.005 212.575 128.804C212.66 129.566 212.683 130.331 212.644 131.095C212.706 131.865 213.155 132.709 214.062 132.943C214.968 133.177 215.913 132.642 216.61 132.099C218.995 130.252 220.621 127.843 222.132 125.466C223.642 123.088 225.121 120.642 227.29 118.616C229.458 116.589 232.456 114.982 235.809 114.828C239.163 114.674 242.656 116.312 243.492 118.899C244.329 121.486 242.431 124.129 240.394 126.229C237.32 129.347 233.697 132.096 229.636 134.391C228.844 134.735 228.211 135.273 227.832 135.925C227.329 137.157 228.792 138.389 230.318 138.777C232.045 139.232 233.919 139.091 235.739 139.263C237.559 139.436 239.496 140.064 240.185 141.419C241.13 143.304 239.147 145.275 237.203 146.569C233.3 149.156 228.867 151.191 224.099 152.587C222.395 153.079 220.606 153.517 219.227 154.465C217.849 155.414 217.028 157.071 217.857 158.371C218.685 159.67 220.815 160.083 222.604 159.818C224.393 159.553 225.981 158.79 227.685 158.278C230.868 157.323 234.973 157.496 236.979 159.683C237.6 160.436 237.993 161.294 238.128 162.188C238.262 163.083 238.134 163.99 237.753 164.838C236.978 166.527 235.785 168.075 234.245 169.39C229.172 174.211 222.581 177.873 215.146 180.004C207.765 182.036 200.926 182.591 193.592 180.453" fill="#3A94E7"/>
<path d="M240.084 116.349C240.084 116.349 240.015 116.411 239.86 116.522L239.17 117.008C238.566 117.439 237.676 118.068 236.553 118.899C233.369 121.25 230.412 123.789 227.708 126.494C225.981 128.2 224.192 130.135 222.287 132.235C220.381 134.335 218.414 136.602 216.462 139.011C214.382 141.55 212.476 144.178 210.754 146.883C209.856 148.293 209.066 149.766 208.253 151.268L205.852 155.857C202.687 161.638 199.931 167.554 197.596 173.579C195.715 178.508 194.419 183.567 193.723 188.689C193.273 192.145 193.2 195.626 193.507 199.092C193.63 200.324 193.747 201.267 193.855 201.907C193.902 202.215 193.933 202.462 193.964 202.64V202.893C193.93 202.813 193.907 202.73 193.894 202.647C193.855 202.468 193.809 202.228 193.747 201.92C193.607 201.304 193.46 200.331 193.321 199.099C192.947 195.626 192.973 192.133 193.398 188.664C194.05 183.521 195.318 178.438 197.185 173.487C199.501 167.445 202.25 161.514 205.418 155.722L207.881 151.151C208.694 149.655 209.492 148.17 210.398 146.753C212.132 144.041 214.053 141.407 216.153 138.863C218.135 136.399 220.133 134.169 222.015 132.087C223.897 130.005 225.718 128.059 227.437 126.359C230.168 123.661 233.165 121.14 236.398 118.819C237.544 118 238.458 117.384 239.077 116.971L239.798 116.509C239.886 116.448 239.982 116.394 240.084 116.349Z" fill="#263238"/>
<path d="M210.498 146.741C210.388 146.487 210.313 146.225 210.273 145.959C210.149 145.448 210.01 144.727 209.847 143.791C209.514 141.943 209.173 139.411 208.809 136.608C208.445 133.806 208.035 131.268 207.694 129.438C207.516 128.527 207.361 127.794 207.252 127.283C207.168 127.021 207.124 126.752 207.121 126.482C207.254 126.729 207.35 126.987 207.407 127.252C207.578 127.757 207.771 128.484 207.988 129.402C208.43 131.249 208.863 133.763 209.227 136.571C209.591 139.38 209.901 141.844 210.141 143.76C210.258 144.622 210.358 145.355 210.436 145.94C210.496 146.204 210.517 146.473 210.498 146.741Z" fill="#263238"/>
<path d="M240.3 142.318C239.923 142.384 239.54 142.421 239.154 142.429C238.379 142.485 237.28 142.559 235.917 142.682C233.19 142.916 229.442 143.347 225.329 143.963C221.217 144.579 217.523 145.275 214.866 145.811C213.542 146.082 212.473 146.328 211.768 146.495C211.392 146.601 211.002 146.675 210.606 146.716C210.964 146.573 211.337 146.456 211.722 146.365C212.45 146.162 213.503 145.879 214.82 145.577C217.461 144.961 221.155 144.228 225.283 143.6C228.78 143.068 232.308 142.677 235.855 142.429C237.225 142.337 238.333 142.3 239.107 142.288C239.505 142.266 239.905 142.276 240.3 142.318Z" fill="#263238"/>
<path d="M197.564 173.055C197.481 172.966 197.414 172.869 197.363 172.766L196.851 171.91C196.41 171.164 195.814 170.062 195.101 168.713C193.661 166.002 191.825 162.208 189.873 157.995C187.922 153.782 186.125 149.987 184.762 147.246C184.096 145.916 183.546 144.825 183.135 144.012L182.702 143.131C182.641 143.03 182.6 142.922 182.578 142.811C182.66 142.9 182.728 142.998 182.779 143.101L183.29 143.957C183.724 144.702 184.328 145.805 185.041 147.154C186.481 149.864 188.317 153.658 190.268 157.872C192.22 162.085 194.017 165.879 195.38 168.62C196.046 169.951 196.596 171.041 196.999 171.854C197.177 172.205 197.324 172.47 197.44 172.735C197.5 172.837 197.542 172.944 197.564 173.055Z" fill="#263238"/>
<path d="M237.124 162.91C237 162.967 236.867 163.01 236.729 163.04L235.583 163.348L231.346 164.438C227.768 165.362 222.827 166.68 217.406 168.134C211.984 169.587 207.02 170.881 203.418 171.743C201.621 172.181 200.158 172.513 199.143 172.735L197.974 172.975C197.838 173.01 197.697 173.032 197.555 173.043C197.679 172.986 197.812 172.943 197.95 172.914L199.097 172.606L203.333 171.515C206.911 170.591 211.852 169.273 217.274 167.82C222.695 166.366 227.652 165.072 231.253 164.21C233.058 163.773 234.514 163.44 235.536 163.218L236.706 162.978C236.842 162.944 236.982 162.921 237.124 162.91Z" fill="#263238"/>
<path d="M220.984 13.4944L216.995 14.6278L215.284 10.4823C212.139 2.83812 202.117 -1.22112 192.909 1.35979C183.7 3.94071 178.797 12.3241 181.942 19.9683L183.653 24.1137L179.649 25.2533C178.122 25.7243 176.883 26.6451 176.187 27.8244C175.492 29.0037 175.395 30.3507 175.916 31.5855L187.015 58.5588C187.245 59.17 187.628 59.7382 188.14 60.2296C188.651 60.7209 189.282 61.1254 189.995 61.419C190.707 61.7126 191.486 61.8894 192.286 61.9388C193.086 61.9881 193.89 61.9091 194.651 61.7064L235.986 49.9475C237.533 49.4773 238.79 48.5483 239.494 47.3559C240.197 46.1635 240.292 44.8005 239.757 43.5538L228.651 16.5804C228.415 15.9709 228.027 15.4055 227.509 14.9179C226.992 14.4303 226.357 14.0306 225.641 13.7426C224.926 13.4546 224.145 13.2842 223.344 13.2415C222.544 13.1989 221.741 13.2849 220.984 13.4944ZM189.478 17.8062C188.63 15.8186 188.782 13.6472 189.902 11.7468C191.023 9.84647 193.024 8.36468 195.488 7.61189C196.704 7.28089 197.992 7.14815 199.274 7.2216C200.556 7.29506 201.807 7.57319 202.951 8.03942C204.095 8.50564 205.11 9.1504 205.934 9.93522C206.758 10.72 207.375 11.6288 207.748 12.6074L209.452 16.7529L191.181 21.9517L189.478 17.8062ZM212.712 41.7428L215.547 48.6294C215.599 48.7674 215.582 48.9162 215.5 49.0446C215.418 49.1731 215.276 49.2715 215.105 49.3192L211.132 50.4465C210.974 50.4813 210.805 50.4662 210.661 50.4042C210.516 50.3422 210.408 50.2381 210.358 50.1138L207.5 43.2581C205.924 43.1898 204.412 42.7403 203.166 41.9697C201.921 41.1991 201.001 40.1442 200.53 38.9463C199.856 37.3626 199.979 35.633 200.872 34.1198C201.766 32.6065 203.361 31.4268 205.324 30.8278C206.293 30.5645 207.318 30.459 208.34 30.5177C209.361 30.5764 210.357 30.798 211.268 31.1693C212.18 31.5406 212.988 32.0541 213.644 32.679C214.301 33.304 214.792 34.0277 215.09 34.807C215.588 36.0239 215.629 37.3299 215.208 38.5651C214.788 39.8003 213.923 40.9111 212.72 41.7613L212.712 41.7428Z" fill="#3A94E7"/>
<path d="M216.818 14.5539C216.818 14.6401 209.422 16.8515 200.221 19.4817C191.02 22.1118 183.515 24.2246 183.476 24.163C183.438 24.1014 190.873 21.8716 200.082 19.2353C209.29 16.5989 216.779 14.4738 216.818 14.5539Z" fill="#263238"/>
<path d="M225.601 15.6873C225.635 15.7407 225.664 15.7964 225.686 15.8536C225.748 15.9768 225.818 16.1369 225.911 16.334C226.112 16.7837 226.391 17.4058 226.739 18.182L229.713 25.0685C230.953 27.9882 232.432 31.45 234.074 35.2936C234.848 37.2216 235.762 39.2297 236.614 41.3424C237.07 42.4312 237.267 43.578 237.195 44.7241C237.129 45.3202 236.916 45.9 236.568 46.4303C236.195 46.9589 235.698 47.4253 235.104 47.804C233.907 48.4986 232.579 49.0372 231.169 49.3993L227.181 50.5389L219.63 52.6886L206.843 56.3105L198.207 58.7251L195.884 59.3411L195.264 59.5012C195.198 59.5247 195.127 59.5392 195.055 59.5444C195.055 59.5444 195.117 59.5444 195.249 59.4704L195.853 59.2795L198.176 58.5834L206.765 56.0703L219.529 52.3745L227.065 50.2062L231.053 49.0605C232.423 48.7131 233.712 48.1909 234.872 47.5145C235.425 47.1631 235.888 46.7302 236.235 46.2394C236.563 45.7489 236.76 45.2101 236.815 44.6564C236.887 43.552 236.698 42.4469 236.258 41.3979C235.421 39.3036 234.538 37.277 233.741 35.349C232.13 31.4992 230.643 28.0252 229.466 25.1055C228.288 22.1858 227.297 19.8389 226.615 18.1881C226.29 17.3812 226.042 16.7529 225.841 16.2971L225.655 15.8043C225.632 15.767 225.614 15.7277 225.601 15.6873Z" fill="#263238"/>
<path d="M203.791 7.19303C203.791 7.19303 203.38 7.03288 202.621 6.78649C201.54 6.45588 200.395 6.27263 199.237 6.24443C197.52 6.19761 195.811 6.45426 194.234 6.99592C192.316 7.67039 190.675 8.76133 189.502 10.1435C188.32 11.5218 187.686 13.1505 187.682 14.8187C187.698 16.186 187.958 17.5445 188.456 18.8533C188.859 19.9744 189.277 20.8676 189.556 21.4897C189.72 21.8057 189.855 22.131 189.959 22.4629C189.739 22.1675 189.554 21.856 189.409 21.5328C189.091 20.9168 188.634 20.0422 188.185 18.9149C187.634 17.5924 187.333 16.2118 187.294 14.8187C187.274 13.0875 187.923 11.3931 189.153 9.96489C190.368 8.53221 192.075 7.40753 194.071 6.72489C195.698 6.18027 197.46 5.94003 199.221 6.02268C200.405 6.07066 201.568 6.28983 202.652 6.66945C202.942 6.77587 203.222 6.89941 203.489 7.03904C203.599 7.07753 203.701 7.12949 203.791 7.19303Z" fill="#263238"/>
<path d="M204.147 31.296C204.27 31.2364 204.4 31.1849 204.534 31.142C204.922 31.0028 205.323 30.8895 205.734 30.8032C206.387 30.65 207.061 30.559 207.74 30.5322C208.665 30.4926 209.59 30.6037 210.459 30.8586C212.441 31.413 214.261 33.0207 215.16 35.1704C215.591 36.3241 215.591 37.5524 215.16 38.7061C214.682 39.9582 213.826 41.0982 212.666 42.0262L212.712 41.8599C213.743 44.1082 214.866 46.5474 216.027 49.0914L216.097 49.2453L215.903 49.3008L214.13 49.7689L210.257 50.7976L210.064 50.8469L210.002 50.6929C208.941 48.1428 207.779 45.7651 206.904 43.4306L207.074 43.5353C205.56 43.4353 204.116 42.9833 202.923 42.2356C201.843 41.5741 200.958 40.7333 200.328 39.7717C199.761 38.919 199.478 37.9645 199.507 36.9998C199.543 36.014 199.853 35.0466 200.414 34.167C200.975 33.2874 201.774 32.5173 202.753 31.9119C203.156 31.6517 203.608 31.4439 204.092 31.296C203.655 31.5024 203.231 31.7265 202.822 31.9674C201.747 32.6911 200.923 33.6221 200.429 34.6715C200.005 35.4628 199.807 36.3189 199.849 37.1783C199.89 38.0378 200.17 38.8792 200.669 39.6424C201.288 40.5674 202.152 41.3745 203.202 42.0077C204.34 42.7184 205.717 43.1468 207.159 43.2396H207.291L207.33 43.332C208.182 45.6234 209.351 48.0196 210.428 50.582L210.172 50.4834L214.045 49.4548L215.81 48.9805L215.687 49.1899C214.533 46.6459 213.417 44.2005 212.395 41.9523V41.8599L212.488 41.7859C213.614 40.8964 214.453 39.804 214.935 38.6014C215.346 37.4978 215.346 36.3232 214.935 35.2197C214.091 33.15 212.348 31.5793 210.459 31.0249C209.622 30.7684 208.729 30.649 207.833 30.6738C207.164 30.686 206.499 30.7583 205.851 30.8894C204.697 31.1173 204.154 31.3268 204.147 31.296Z" fill="#263238"/>
<path d="M180.208 209.151L102.844 208.868C98.3763 208.848 94.101 207.419 90.9571 204.895C87.8132 202.37 86.0578 198.956 86.0763 195.403L86.8973 41.1576C86.9064 39.3972 87.3517 37.6555 88.2076 36.032C89.0636 34.4085 90.3135 32.9352 91.8858 31.6961C93.4582 30.457 95.3221 29.4765 97.3712 28.8107C99.4202 28.1449 101.614 27.8068 103.828 27.8157L181.183 28.099C185.651 28.117 189.927 29.5444 193.073 32.068C196.218 34.5915 197.975 38.0047 197.959 41.558L197.138 195.797C197.129 197.558 196.684 199.3 195.828 200.924C194.972 202.549 193.722 204.023 192.15 205.263C190.578 206.503 188.714 207.485 186.665 208.152C184.616 208.819 182.422 209.158 180.208 209.151Z" fill="#455A64"/>
<path d="M181.068 33.4025H166.074C165.584 33.4098 165.102 33.4936 164.653 33.6492C164.205 33.8047 163.799 34.0291 163.46 34.3094C163.12 34.5897 162.854 34.9204 162.675 35.2827C162.496 35.645 162.409 36.0317 162.418 36.4208V38.5829C162.427 38.9717 162.34 39.3581 162.161 39.72C161.982 40.0819 161.716 40.4123 161.376 40.6921C161.036 40.9719 160.631 41.1956 160.182 41.3506C159.734 41.5055 159.251 41.5885 158.763 41.5949L129.533 41.4902C128.545 41.4693 127.607 41.137 126.926 40.5665C126.245 39.996 125.876 39.2338 125.901 38.4473V36.2853C125.926 35.4999 125.559 34.7386 124.879 34.1682C124.2 33.5979 123.264 33.265 122.276 33.2424H117.002L103.875 33.1931C100.752 33.1783 97.7496 34.1482 95.5243 35.8903C93.299 37.6324 92.0323 40.0048 92.0017 42.4881L91.2272 193.044C91.22 194.276 91.5181 195.497 92.1043 196.637C92.6905 197.777 93.5533 198.815 94.6436 199.69C95.7339 200.565 97.0302 201.261 98.4586 201.737C99.887 202.214 101.419 202.462 102.968 202.468L180.169 202.751C181.719 202.757 183.256 202.52 184.69 202.053C186.125 201.587 187.43 200.9 188.531 200.032C189.633 199.165 190.508 198.133 191.108 196.996C191.707 195.859 192.02 194.64 192.027 193.407L192.801 42.8515C192.82 40.3612 191.594 37.967 189.394 36.1952C187.194 34.4233 184.199 33.4188 181.068 33.4025Z" fill="white"/>
<path d="M170.681 182.664L113.276 182.467C112.68 182.467 112.2 181.95 112.207 181.322L112.269 169.378C112.269 168.762 112.757 168.232 113.353 168.232L170.759 168.442C171.089 168.487 171.385 168.632 171.584 168.847C171.783 169.062 171.87 169.329 171.827 169.594L171.773 181.525C171.773 182.159 171.277 182.671 170.681 182.664Z" fill="#3A94E7"/>
<path d="M132.809 175.346C132.775 175.053 132.634 174.826 132.388 174.664C132.141 174.502 131.839 174.422 131.481 174.422C131.219 174.422 130.99 174.464 130.794 174.549C130.599 174.633 130.447 174.75 130.337 174.898C130.23 175.046 130.176 175.215 130.176 175.403C130.176 175.561 130.213 175.697 130.288 175.811C130.365 175.922 130.464 176.016 130.583 176.091C130.702 176.164 130.827 176.224 130.958 176.273C131.089 176.319 131.209 176.356 131.319 176.385L131.92 176.547C132.074 176.587 132.245 176.643 132.434 176.714C132.624 176.786 132.806 176.883 132.98 177.006C133.155 177.127 133.299 177.283 133.413 177.474C133.526 177.664 133.583 177.898 133.583 178.175C133.583 178.495 133.499 178.784 133.332 179.042C133.166 179.3 132.924 179.505 132.604 179.657C132.287 179.809 131.901 179.885 131.446 179.885C131.023 179.885 130.656 179.816 130.346 179.68C130.038 179.543 129.796 179.353 129.618 179.108C129.443 178.864 129.344 178.58 129.321 178.256H130.06C130.079 178.48 130.155 178.664 130.285 178.811C130.418 178.955 130.586 179.063 130.788 179.134C130.992 179.203 131.211 179.238 131.446 179.238C131.72 179.238 131.965 179.194 132.183 179.105C132.4 179.015 132.572 178.89 132.699 178.73C132.826 178.568 132.89 178.379 132.89 178.164C132.89 177.967 132.835 177.808 132.725 177.685C132.616 177.561 132.471 177.461 132.292 177.384C132.113 177.307 131.92 177.24 131.712 177.182L130.984 176.974C130.522 176.841 130.156 176.652 129.887 176.405C129.617 176.159 129.483 175.837 129.483 175.438C129.483 175.107 129.572 174.818 129.751 174.572C129.932 174.323 130.175 174.131 130.479 173.994C130.785 173.856 131.127 173.786 131.504 173.786C131.885 173.786 132.224 173.855 132.52 173.991C132.817 174.126 133.052 174.311 133.225 174.546C133.4 174.781 133.493 175.047 133.502 175.346H132.809ZM135.477 173.867V179.781H134.76V173.867H135.477ZM140.955 175.715C140.891 175.521 140.808 175.347 140.704 175.193C140.602 175.037 140.479 174.904 140.337 174.794C140.196 174.684 140.037 174.601 139.858 174.543C139.679 174.485 139.482 174.456 139.269 174.456C138.918 174.456 138.6 174.547 138.313 174.728C138.026 174.909 137.798 175.175 137.628 175.528C137.459 175.88 137.374 176.312 137.374 176.824C137.374 177.336 137.46 177.768 137.631 178.121C137.803 178.473 138.035 178.739 138.327 178.92C138.62 179.101 138.949 179.192 139.315 179.192C139.654 179.192 139.952 179.12 140.21 178.975C140.47 178.829 140.672 178.623 140.816 178.357C140.963 178.09 141.036 177.775 141.036 177.413L141.255 177.459H139.476V176.824H141.729V177.459C141.729 177.946 141.625 178.37 141.417 178.73C141.211 179.09 140.926 179.369 140.562 179.567C140.2 179.764 139.784 179.862 139.315 179.862C138.791 179.862 138.331 179.739 137.935 179.492C137.54 179.246 137.232 178.895 137.011 178.441C136.791 177.987 136.681 177.448 136.681 176.824C136.681 176.356 136.744 175.936 136.869 175.562C136.996 175.187 137.175 174.867 137.406 174.604C137.637 174.34 137.91 174.138 138.226 173.997C138.542 173.857 138.889 173.786 139.269 173.786C139.58 173.786 139.871 173.834 140.141 173.928C140.412 174.02 140.654 174.152 140.865 174.323C141.079 174.493 141.257 174.696 141.4 174.933C141.542 175.168 141.64 175.428 141.694 175.715H140.955ZM147.645 173.867V179.781H146.952L143.729 175.138H143.671V179.781H142.955V173.867H143.648L146.882 178.522H146.94V173.867H147.645Z" fill="#E8E8E3"/>
<path d="M124.727 77.6601L104.807 77.5882L104.79 80.4956L124.71 80.5675L124.727 77.6601Z" fill="#3A94E7"/>
<path opacity="0.1" d="M124.727 77.6601L104.807 77.5882L104.79 80.4956L124.71 80.5675L124.727 77.6601Z" fill="black"/>
<path d="M183.119 95.5109C183.276 95.4983 183.429 95.4693 183.576 95.4246C183.791 95.358 183.977 95.2446 184.114 95.0975C184.251 94.9504 184.333 94.7756 184.351 94.5931C184.351 93.6137 184.351 92.1846 184.351 90.349C184.351 89.4312 184.351 88.4026 184.351 87.2692C184.351 86.992 184.351 86.7025 184.351 86.413C184.401 86.1321 184.324 85.846 184.134 85.6061C184.027 85.491 183.889 85.3972 183.729 85.332C183.569 85.2668 183.392 85.232 183.212 85.2303H182.004H170.813L106.034 85.0394C105.869 85.0371 105.705 85.0668 105.556 85.1257C105.408 85.1847 105.28 85.2713 105.183 85.3782C104.996 85.6191 104.924 85.9056 104.981 86.1851C104.981 86.801 104.981 87.417 104.981 88.033C104.981 89.2649 104.981 90.4969 104.981 91.7288C104.981 92.3448 104.981 92.9607 104.981 93.5767C104.949 93.8636 104.949 94.1522 104.981 94.4391C105.022 94.5621 105.097 94.676 105.202 94.7721C105.307 94.8682 105.438 94.9439 105.585 94.9934C105.738 95.0418 105.901 95.0648 106.065 95.0612H110.008L127.209 95.1351L156.33 95.2768L175.963 95.4L181.299 95.4493H182.686C183.003 95.4493 183.158 95.4493 183.158 95.4493H182.686H181.299H175.963H156.33L127.209 95.3753L110.008 95.3199H106.065C105.849 95.3269 105.632 95.2975 105.43 95.2337C105.226 95.1645 105.045 95.0591 104.9 94.9257C104.755 94.7922 104.65 94.6342 104.594 94.4637C104.549 94.302 104.533 94.1361 104.547 93.9709V93.5151C104.547 92.8991 104.547 92.2832 104.547 91.6672C104.547 90.4353 104.547 89.2033 104.547 87.9714C104.547 87.3554 104.547 86.7394 104.547 86.1235C104.533 85.9594 104.533 85.7947 104.547 85.6307C104.576 85.4495 104.665 85.2775 104.803 85.1318C104.937 84.9831 105.113 84.8623 105.318 84.7797C105.523 84.6971 105.75 84.6552 105.98 84.6575L170.758 84.9408L181.95 85.0024H183.158C183.371 85.0025 183.581 85.0435 183.769 85.1217C183.958 85.2 184.12 85.3133 184.242 85.4521C184.461 85.7199 184.549 86.0418 184.49 86.3575C184.49 86.647 184.49 86.9366 184.49 87.2137C184.49 88.3348 184.49 89.3635 184.49 90.2936C184.49 92.1415 184.436 93.5582 184.42 94.5438C184.402 94.7333 184.315 94.9145 184.171 95.0662C184.027 95.2179 183.831 95.3337 183.607 95.4C183.461 95.4722 183.292 95.5106 183.119 95.5109Z" fill="#E0E0E0"/>
<path d="M147.223 88.1315H110.791V90.8479H147.223V88.1315Z" fill="#3A94E7"/>
<path opacity="0.2" d="M147.223 88.1315H110.791V90.8479H147.223V88.1315Z" fill="white"/>
<path d="M124.59 104.183L104.671 104.111L104.654 107.018L124.574 107.09L124.59 104.183Z" fill="#3A94E7"/>
<path opacity="0.1" d="M124.59 104.183L104.671 104.111L104.654 107.018L124.574 107.09L124.59 104.183Z" fill="black"/>
<path d="M182.616 122.035C182.773 122.019 182.928 121.997 183.081 121.967C183.297 121.912 183.496 121.821 183.665 121.7C183.833 121.579 183.967 121.43 184.057 121.265C184.179 121.016 184.227 120.748 184.196 120.482C184.196 120.187 184.196 119.866 184.196 119.509C184.196 118.795 184.196 117.981 184.196 117.045V113.134C184.233 112.851 184.155 112.565 183.972 112.321C183.781 112.07 183.48 111.883 183.128 111.797C182.742 111.742 182.349 111.726 181.958 111.748H170.813L106.26 111.557C105.912 111.558 105.577 111.658 105.317 111.841C105.056 112.023 104.887 112.275 104.842 112.549C104.842 113.134 104.842 113.781 104.842 114.396C104.842 115.628 104.842 116.86 104.842 118.092C104.842 118.708 104.842 119.324 104.842 119.94C104.813 120.228 104.829 120.518 104.889 120.803C104.985 121.052 105.185 121.269 105.454 121.419C105.74 121.563 106.076 121.632 106.415 121.616H107.491H109.729L126.869 121.683L155.889 121.825L175.452 121.948L180.773 121.998H175.452H155.889L126.853 121.973L109.714 121.924H106.345C105.926 121.943 105.51 121.855 105.16 121.671C104.807 121.477 104.55 121.192 104.432 120.864C104.362 120.551 104.342 120.233 104.37 119.916C104.37 119.3 104.37 118.684 104.37 118.068C104.37 116.836 104.37 115.604 104.37 114.372C104.37 113.756 104.37 113.14 104.37 112.524C104.426 112.172 104.642 111.848 104.977 111.613C105.312 111.379 105.743 111.249 106.19 111.249L170.744 111.532L181.888 111.6C182.303 111.58 182.72 111.603 183.128 111.668C183.53 111.772 183.869 111.992 184.08 112.284C184.281 112.555 184.367 112.87 184.328 113.183C184.328 113.473 184.328 113.756 184.328 114.039C184.328 115.154 184.328 116.177 184.328 117.119C184.328 118.062 184.328 118.856 184.328 119.583C184.328 119.934 184.328 120.261 184.328 120.562C184.356 120.838 184.3 121.115 184.165 121.369C184.065 121.539 183.919 121.69 183.739 121.811C183.559 121.932 183.347 122.021 183.12 122.071C182.951 122.083 182.78 122.07 182.616 122.035Z" fill="#E0E0E0"/>
<path d="M124.441 131.858L104.521 131.786L104.505 134.693L124.424 134.765L124.441 131.858Z" fill="#3A94E7"/>
<path opacity="0.1" d="M124.441 131.858L104.521 131.786L104.505 134.693L124.424 134.765L124.441 131.858Z" fill="black"/>
<path d="M182.461 149.698C182.618 149.683 182.773 149.66 182.926 149.63C183.141 149.576 183.34 149.485 183.508 149.365C183.676 149.245 183.811 149.098 183.902 148.934C184.023 148.685 184.071 148.417 184.041 148.152C184.041 147.85 184.041 147.536 184.041 147.172C184.041 146.464 184.041 145.645 184.041 144.708V140.797C184.078 140.514 184 140.229 183.817 139.984C183.621 139.737 183.322 139.554 182.973 139.466C182.587 139.41 182.194 139.391 181.803 139.411H170.658L106.105 139.22C105.757 139.221 105.422 139.322 105.162 139.504C104.901 139.686 104.732 139.938 104.687 140.212C104.687 140.828 104.687 141.444 104.687 142.06C104.687 143.292 104.687 144.524 104.687 145.756C104.687 146.371 104.687 146.987 104.687 147.603C104.658 147.889 104.674 148.177 104.734 148.46C104.827 148.711 105.026 148.929 105.299 149.076C105.583 149.223 105.921 149.292 106.26 149.273H109.629L126.768 149.347L155.788 149.488L175.352 149.611L180.672 149.661H175.352H155.788L126.768 149.593L109.629 149.538H106.26C105.84 149.56 105.423 149.471 105.075 149.285C104.722 149.091 104.465 148.806 104.347 148.478C104.277 148.165 104.256 147.847 104.285 147.53C104.285 146.914 104.285 146.298 104.285 145.682C104.285 144.45 104.285 143.218 104.285 141.986C104.285 141.37 104.285 140.754 104.285 140.107C104.339 139.755 104.554 139.432 104.887 139.197C105.221 138.962 105.651 138.832 106.097 138.832L170.65 139.115L181.795 139.183C182.21 139.163 182.627 139.186 183.035 139.251C183.437 139.355 183.776 139.575 183.987 139.867C184.188 140.138 184.274 140.453 184.235 140.766C184.235 141.056 184.235 141.345 184.235 141.622C184.235 142.737 184.235 143.76 184.235 144.702C184.235 145.645 184.235 146.439 184.235 147.166C184.235 147.517 184.235 147.844 184.235 148.145C184.265 148.421 184.209 148.698 184.072 148.952C183.972 149.122 183.826 149.273 183.646 149.394C183.465 149.515 183.254 149.604 183.027 149.655C182.845 149.704 182.652 149.719 182.461 149.698Z" fill="#E0E0E0"/>
<path d="M146.445 115.423L110.013 115.292L109.998 118.008L146.429 118.14L146.445 115.423Z" fill="#3A94E7"/>
<path opacity="0.2" d="M146.445 115.423L110.013 115.292L109.998 118.008L146.429 118.14L146.445 115.423Z" fill="white"/>
<path d="M113.307 144.671C113.284 144.919 113.17 145.156 112.98 145.353C112.789 145.55 112.53 145.698 112.234 145.779C111.939 145.859 111.62 145.869 111.318 145.807C111.015 145.745 110.742 145.614 110.533 145.43C110.323 145.246 110.186 145.017 110.139 144.771C110.091 144.526 110.136 144.274 110.266 144.049C110.396 143.823 110.607 143.633 110.873 143.501C111.138 143.37 111.446 143.304 111.758 143.31C112.189 143.329 112.594 143.483 112.884 143.738C113.174 143.993 113.326 144.328 113.307 144.671Z" fill="#3A94E7"/>
<path d="M118.241 144.69C118.256 144.864 118.227 145.038 118.154 145.202C118.08 145.366 117.966 145.516 117.816 145.644C117.667 145.771 117.487 145.873 117.286 145.942C117.085 146.011 116.869 146.047 116.65 146.047C116.431 146.047 116.214 146.011 116.014 145.942C115.813 145.873 115.632 145.771 115.483 145.644C115.334 145.516 115.219 145.366 115.146 145.202C115.073 145.038 115.043 144.864 115.058 144.69C115.043 144.516 115.073 144.342 115.146 144.178C115.219 144.014 115.334 143.863 115.483 143.736C115.632 143.609 115.813 143.507 116.014 143.438C116.214 143.368 116.431 143.333 116.65 143.333C116.869 143.333 117.085 143.368 117.286 143.438C117.487 143.507 117.667 143.609 117.816 143.736C117.966 143.863 118.08 144.014 118.154 144.178C118.227 144.342 118.256 144.516 118.241 144.69Z" fill="#3A94E7"/>
<path d="M123.182 144.708C123.159 144.956 123.046 145.193 122.855 145.39C122.664 145.587 122.405 145.735 122.11 145.816C121.814 145.896 121.496 145.906 121.193 145.844C120.891 145.782 120.618 145.651 120.408 145.467C120.198 145.283 120.061 145.054 120.014 144.808C119.967 144.563 120.011 144.311 120.141 144.086C120.272 143.86 120.483 143.67 120.748 143.538C121.013 143.407 121.321 143.341 121.633 143.347C122.064 143.368 122.467 143.522 122.757 143.776C123.047 144.031 123.199 144.365 123.182 144.708Z" fill="#3A94E7"/>
<path d="M128.117 144.727C128.094 144.975 127.98 145.212 127.789 145.408C127.599 145.605 127.34 145.753 127.044 145.834C126.749 145.915 126.43 145.925 126.128 145.863C125.825 145.801 125.552 145.67 125.343 145.485C125.133 145.301 124.996 145.072 124.949 144.827C124.901 144.581 124.945 144.33 125.076 144.104C125.206 143.878 125.417 143.688 125.682 143.557C125.948 143.425 126.255 143.359 126.568 143.366C126.998 143.386 127.402 143.54 127.691 143.795C127.981 144.049 128.134 144.384 128.117 144.727Z" fill="#3A94E7"/>
<path d="M133.05 144.739C133.029 144.987 132.916 145.225 132.726 145.423C132.537 145.62 132.278 145.769 131.982 145.851C131.687 145.933 131.368 145.944 131.065 145.882C130.762 145.821 130.488 145.69 130.278 145.506C130.067 145.322 129.93 145.093 129.882 144.847C129.834 144.601 129.878 144.35 130.008 144.124C130.138 143.898 130.349 143.707 130.615 143.575C130.88 143.444 131.188 143.377 131.501 143.384C131.93 143.405 132.333 143.558 132.622 143.811C132.911 144.064 133.065 144.397 133.05 144.739Z" fill="#3A94E7"/>
<path d="M137.991 144.758C137.969 145.005 137.858 145.241 137.67 145.438C137.482 145.635 137.226 145.784 136.932 145.867C136.639 145.95 136.322 145.963 136.02 145.904C135.718 145.845 135.444 145.717 135.232 145.536C135.019 145.355 134.879 145.129 134.826 144.885C134.774 144.641 134.812 144.391 134.937 144.164C135.061 143.937 135.266 143.744 135.527 143.609C135.787 143.474 136.092 143.402 136.403 143.403C136.839 143.415 137.251 143.565 137.549 143.819C137.846 144.073 138.005 144.411 137.991 144.758Z" fill="#3A94E7"/>
<path d="M142.923 144.776C142.938 144.95 142.908 145.124 142.835 145.288C142.762 145.452 142.647 145.603 142.498 145.73C142.349 145.857 142.168 145.959 141.967 146.028C141.767 146.098 141.55 146.133 141.331 146.133C141.112 146.133 140.896 146.098 140.695 146.028C140.494 145.959 140.314 145.857 140.164 145.73C140.015 145.603 139.9 145.452 139.827 145.288C139.754 145.124 139.724 144.95 139.74 144.776C139.724 144.602 139.754 144.428 139.827 144.264C139.9 144.1 140.015 143.95 140.164 143.822C140.314 143.695 140.494 143.594 140.695 143.524C140.896 143.455 141.112 143.419 141.331 143.419C141.55 143.419 141.767 143.455 141.967 143.524C142.168 143.594 142.349 143.695 142.498 143.822C142.647 143.95 142.762 144.1 142.835 144.264C142.908 144.428 142.938 144.602 142.923 144.776Z" fill="#3A94E7"/>
<path d="M147.857 144.795C147.836 145.041 147.724 145.278 147.536 145.475C147.348 145.672 147.092 145.821 146.799 145.904C146.505 145.987 146.188 146 145.886 145.941C145.584 145.882 145.31 145.754 145.098 145.573C144.886 145.392 144.745 145.166 144.692 144.922C144.64 144.678 144.678 144.427 144.803 144.201C144.927 143.974 145.132 143.781 145.393 143.646C145.653 143.511 145.958 143.439 146.269 143.44C146.705 143.452 147.117 143.602 147.415 143.856C147.713 144.11 147.871 144.448 147.857 144.795Z" fill="#3A94E7"/>
<path d="M152.79 144.813C152.769 145.061 152.656 145.299 152.466 145.497C152.277 145.694 152.018 145.843 151.723 145.925C151.427 146.007 151.108 146.017 150.805 145.956C150.502 145.895 150.228 145.764 150.018 145.58C149.808 145.396 149.67 145.167 149.622 144.921C149.574 144.675 149.618 144.424 149.748 144.198C149.879 143.971 150.09 143.781 150.355 143.649C150.62 143.518 150.929 143.451 151.241 143.458C151.671 143.479 152.073 143.632 152.362 143.885C152.652 144.138 152.805 144.471 152.79 144.813Z" fill="#3A94E7"/>
<g opacity="0.2">
<path d="M113.307 144.671C113.284 144.919 113.17 145.156 112.98 145.353C112.789 145.55 112.53 145.698 112.234 145.779C111.939 145.859 111.62 145.869 111.318 145.807C111.015 145.745 110.742 145.614 110.533 145.43C110.323 145.246 110.186 145.017 110.139 144.771C110.091 144.526 110.136 144.274 110.266 144.049C110.396 143.823 110.607 143.633 110.873 143.501C111.138 143.37 111.446 143.304 111.758 143.31C112.189 143.329 112.594 143.483 112.884 143.738C113.174 143.993 113.326 144.328 113.307 144.671Z" fill="white"/>
<path d="M118.241 144.69C118.257 144.863 118.227 145.038 118.154 145.202C118.081 145.366 117.966 145.516 117.817 145.644C117.667 145.771 117.487 145.872 117.286 145.942C117.085 146.011 116.869 146.047 116.65 146.047C116.431 146.047 116.214 146.011 116.014 145.942C115.813 145.872 115.632 145.771 115.483 145.644C115.334 145.516 115.219 145.366 115.146 145.202C115.073 145.038 115.043 144.863 115.058 144.69C115.043 144.516 115.073 144.342 115.146 144.178C115.219 144.014 115.334 143.863 115.483 143.736C115.632 143.609 115.813 143.507 116.014 143.438C116.214 143.368 116.431 143.332 116.65 143.332C116.869 143.332 117.085 143.368 117.286 143.438C117.487 143.507 117.667 143.609 117.817 143.736C117.966 143.863 118.081 144.014 118.154 144.178C118.227 144.342 118.257 144.516 118.241 144.69Z" fill="white"/>
<path d="M123.182 144.708C123.159 144.956 123.046 145.193 122.855 145.39C122.664 145.587 122.405 145.735 122.11 145.816C121.815 145.896 121.496 145.906 121.193 145.844C120.891 145.782 120.618 145.651 120.408 145.467C120.199 145.283 120.062 145.054 120.014 144.808C119.967 144.563 120.011 144.311 120.142 144.086C120.272 143.86 120.483 143.67 120.748 143.538C121.013 143.407 121.321 143.341 121.633 143.347C122.064 143.368 122.468 143.522 122.757 143.776C123.047 144.031 123.199 144.366 123.182 144.708Z" fill="white"/>
<path d="M128.117 144.727C128.094 144.975 127.98 145.212 127.789 145.409C127.599 145.605 127.34 145.753 127.044 145.834C126.749 145.915 126.43 145.925 126.128 145.863C125.825 145.801 125.552 145.67 125.343 145.486C125.133 145.301 124.996 145.072 124.949 144.827C124.901 144.581 124.946 144.33 125.076 144.104C125.206 143.879 125.417 143.688 125.683 143.557C125.948 143.426 126.256 143.359 126.568 143.366C126.999 143.386 127.402 143.541 127.692 143.795C127.981 144.049 128.134 144.384 128.117 144.727Z" fill="white"/>
<path d="M133.05 144.739C133.029 144.987 132.916 145.225 132.726 145.423C132.537 145.62 132.278 145.769 131.983 145.851C131.687 145.933 131.368 145.944 131.065 145.882C130.762 145.821 130.488 145.69 130.278 145.506C130.068 145.322 129.93 145.093 129.882 144.847C129.834 144.601 129.878 144.35 130.008 144.124C130.139 143.898 130.35 143.707 130.615 143.575C130.88 143.444 131.189 143.377 131.501 143.384C131.931 143.405 132.333 143.558 132.622 143.811C132.912 144.064 133.065 144.397 133.05 144.739Z" fill="white"/>
<path d="M137.991 144.758C137.97 145.005 137.859 145.241 137.671 145.438C137.483 145.635 137.226 145.785 136.933 145.867C136.64 145.95 136.323 145.963 136.02 145.904C135.718 145.845 135.444 145.718 135.232 145.536C135.02 145.355 134.879 145.129 134.827 144.885C134.774 144.641 134.813 144.391 134.937 144.164C135.062 143.937 135.267 143.744 135.527 143.609C135.788 143.474 136.092 143.402 136.403 143.403C136.84 143.415 137.252 143.565 137.549 143.819C137.847 144.073 138.006 144.411 137.991 144.758Z" fill="white"/>
<path d="M142.923 144.776C142.938 144.95 142.908 145.124 142.835 145.288C142.762 145.452 142.647 145.603 142.498 145.73C142.349 145.857 142.168 145.959 141.967 146.028C141.767 146.098 141.55 146.133 141.331 146.133C141.112 146.133 140.896 146.098 140.695 146.028C140.494 145.959 140.314 145.857 140.165 145.73C140.015 145.603 139.9 145.452 139.827 145.288C139.754 145.124 139.724 144.95 139.74 144.776C139.724 144.603 139.754 144.428 139.827 144.264C139.9 144.1 140.015 143.95 140.165 143.822C140.314 143.695 140.494 143.594 140.695 143.524C140.896 143.455 141.112 143.419 141.331 143.419C141.55 143.419 141.767 143.455 141.967 143.524C142.168 143.594 142.349 143.695 142.498 143.822C142.647 143.95 142.762 144.1 142.835 144.264C142.908 144.428 142.938 144.603 142.923 144.776Z" fill="white"/>
<path d="M147.857 144.795C147.836 145.042 147.724 145.278 147.536 145.475C147.348 145.672 147.092 145.821 146.799 145.904C146.506 145.987 146.188 146 145.886 145.941C145.584 145.882 145.31 145.754 145.098 145.573C144.886 145.392 144.745 145.166 144.692 144.922C144.64 144.678 144.678 144.428 144.803 144.201C144.927 143.974 145.132 143.781 145.393 143.646C145.654 143.511 145.958 143.439 146.269 143.44C146.705 143.452 147.117 143.602 147.415 143.856C147.713 144.11 147.872 144.448 147.857 144.795Z" fill="white"/>
<path d="M152.791 144.813C152.77 145.061 152.657 145.299 152.468 145.497C152.278 145.694 152.019 145.843 151.724 145.925C151.428 146.007 151.109 146.017 150.806 145.956C150.503 145.895 150.229 145.764 150.019 145.58C149.809 145.396 149.671 145.167 149.623 144.921C149.575 144.675 149.619 144.424 149.749 144.198C149.88 143.972 150.091 143.781 150.356 143.649C150.622 143.518 150.93 143.451 151.242 143.458C151.672 143.479 152.074 143.632 152.363 143.885C152.653 144.138 152.806 144.471 152.791 144.813Z" fill="white"/>
</g>
<path d="M145.782 55.8916C146.32 55.7032 146.776 55.3931 147.094 54.9999C147.413 54.6067 147.578 54.1478 147.571 53.6803C147.591 53.3764 147.533 53.0724 147.401 52.7869C147.268 52.5014 147.064 52.2403 146.801 52.0195C146.537 51.7987 146.22 51.6229 145.869 51.5028C145.517 51.3827 145.138 51.3207 144.756 51.3207C144.373 51.3207 143.994 51.3827 143.643 51.5028C143.291 51.6229 142.974 51.7987 142.711 52.0195C142.447 52.2403 142.243 52.5014 142.111 52.7869C141.978 53.0724 141.92 53.3764 141.94 53.6803C141.929 54.1525 142.093 54.6169 142.413 55.0148C142.733 55.4128 143.193 55.7265 143.737 55.9163C139.4 56.4337 139.594 60.1788 139.594 60.1788L149.848 60.2157C149.848 60.2157 150.088 56.4029 145.782 55.8916Z" fill="#3A94E7"/>
<path opacity="0.1" d="M145.782 55.8916C146.32 55.7032 146.776 55.3931 147.094 54.9999C147.413 54.6067 147.578 54.1478 147.571 53.6803C147.591 53.3764 147.533 53.0724 147.401 52.7869C147.268 52.5014 147.064 52.2403 146.801 52.0195C146.537 51.7987 146.22 51.6229 145.869 51.5028C145.517 51.3827 145.138 51.3207 144.756 51.3207C144.373 51.3207 143.994 51.3827 143.643 51.5028C143.291 51.6229 142.974 51.7987 142.711 52.0195C142.447 52.2403 142.243 52.5014 142.111 52.7869C141.978 53.0724 141.92 53.3764 141.94 53.6803C141.929 54.1525 142.093 54.6169 142.413 55.0148C142.733 55.4128 143.193 55.7265 143.737 55.9163C139.4 56.4337 139.594 60.1788 139.594 60.1788L149.848 60.2157C149.848 60.2157 150.088 56.4029 145.782 55.8916Z" fill="black"/>
<path d="M162.444 62.6312L125.896 62.4993L125.877 65.9733L162.424 66.1052L162.444 62.6312Z" fill="#3A94E7"/>
<path opacity="0.2" d="M162.444 62.6312L125.896 62.4993L125.877 65.9733L162.424 66.1052L162.444 62.6312Z" fill="white"/>
<path d="M28.0827 80.6352H27.7187L26.6654 80.6968C26.0954 80.724 25.5286 80.7837 24.9693 80.8754C24.607 80.9159 24.2477 80.9714 23.8927 81.0417L22.6923 81.3066C20.6491 81.8051 18.7213 82.5645 16.9843 83.5549C14.6894 84.8797 12.7731 86.5759 11.3615 88.5319C10.5318 89.6594 9.87158 90.8606 9.39433 92.1107C8.89284 93.4694 8.6041 94.872 8.53465 96.287C8.48849 97.0302 8.50402 97.7751 8.58112 98.5168C8.58112 98.8925 8.71278 99.2683 8.77474 99.6502C8.82685 100.035 8.9175 100.416 9.04581 100.79C9.74225 103.261 11.1553 105.57 13.1724 107.53C15.1894 109.49 17.7545 111.048 20.6631 112.08C22.7683 112.803 25.0246 113.206 27.316 113.269C29.6826 113.373 32.0516 113.103 34.2864 112.475L34.9679 112.271H35.0609L35.1383 112.308L44.9046 116.251L44.6181 116.448C43.5725 113.873 42.5657 111.378 41.5898 108.982V108.89L41.675 108.822C44.0442 106.924 45.8029 104.6 46.8021 102.046C47.7071 99.7118 47.9712 97.2499 47.5766 94.8271C47.2256 92.674 46.3551 90.595 45.013 88.7044C43.8562 87.0803 42.3638 85.6226 40.5985 84.3926C39.142 83.419 37.53 82.6029 35.8044 81.9657C34.4987 81.5178 33.1388 81.1772 31.7461 80.9493L30.1971 80.746L29.0741 80.6783L28.3925 80.6413H28.1602C28.2374 80.6345 28.3153 80.6345 28.3925 80.6413H29.0818L30.2048 80.6783L31.7538 80.8569C33.1639 81.0681 34.5423 81.3964 35.8663 81.8363C37.6216 82.466 39.2627 83.2802 40.7456 84.2571C42.5434 85.4817 44.0674 86.9395 45.2531 88.5689C46.6333 90.4798 47.5305 92.587 47.8941 94.7717C48.3215 97.2318 48.0758 99.7364 47.1739 102.114C46.1681 104.721 44.3822 107.094 41.9693 109.031L42.0158 108.871C42.9916 111.267 44.0062 113.762 45.0595 116.331L45.2067 116.706L44.7652 116.528L34.9989 112.592H35.1693L34.4723 112.795C32.1944 113.432 29.7816 113.709 27.3702 113.608C25.0295 113.537 22.7259 113.119 20.5779 112.376C16.4807 110.981 13.0718 108.555 10.8736 105.471C9.86205 104.047 9.12332 102.511 8.6818 100.913C8.56089 100.53 8.47036 100.141 8.41073 99.7487C8.34877 99.3607 8.24809 98.9788 8.22485 98.5969C8.01525 96.4051 8.30651 94.2014 9.08454 92.0922C9.57367 90.8249 10.2523 89.6089 11.106 88.4703C12.5512 86.4965 14.5074 84.7895 16.8449 83.4625C18.6105 82.4695 20.5706 81.7161 22.6458 81.2327L23.8618 80.9863C24.2197 80.9202 24.5816 80.8688 24.9461 80.8323C25.5111 80.7491 26.0833 80.6996 26.6577 80.6844L27.7187 80.6536C27.8394 80.6407 27.961 80.6345 28.0827 80.6352Z" fill="#3A94E7"/>
<path d="M32.4963 94.9996H31.0635L27.9655 91.5379V89.2649C27.9655 89.2649 25.7505 89.1541 26.0138 92.1292C26.2772 95.1043 26.0138 94.3467 26.0138 94.3467C26.0138 94.3467 21.3127 94.3467 20.9255 94.6855C20.5382 95.0243 20.515 98.6338 20.4608 100.648C20.4311 101.134 20.6063 101.613 20.9585 102.01C21.3107 102.408 21.8197 102.7 22.4047 102.841C22.5687 102.877 22.738 102.896 22.9081 102.896C24.0854 102.896 30.0722 102.139 30.0722 102.139H32.5428L32.4963 94.9996Z" fill="#3A94E7"/>
<path d="M36.594 94.3898L35.7111 102.176H33.2637V94.5499L36.594 94.3898Z" fill="#3A94E7"/>
<path d="M65.7841 252.897V247.631L53.9112 247.563L53.8105 255.528L54.5463 255.571C57.8224 255.737 71.2133 255.983 73.4128 255.441C75.8602 254.838 65.7841 252.897 65.7841 252.897Z" fill="#3A94E7"/>
<path d="M73.6938 254.949C73.6938 255.035 69.2483 255.109 63.7726 255.109C58.297 255.109 53.8514 255.035 53.8514 254.949C53.8514 254.862 58.297 254.788 63.7726 254.788C69.2483 254.788 73.6938 254.862 73.6938 254.949Z" fill="#263238"/>
<path d="M65.9942 253.975C65.8935 253.932 65.9942 253.655 66.2343 253.359C66.4744 253.064 66.7997 252.941 66.8771 253.002C66.9546 253.064 66.7919 253.298 66.5596 253.55C66.3273 253.803 66.0949 254.018 65.9942 253.975Z" fill="#263238"/>
<path d="M66.7536 254.32C66.6452 254.32 66.6994 253.975 66.9317 253.649C67.1641 253.322 67.4739 253.125 67.5591 253.175C67.6443 253.224 67.5049 253.501 67.288 253.791C67.0711 254.08 66.8543 254.351 66.7536 254.32Z" fill="#263238"/>
<path d="M57.4277 254.924C57.3812 254.924 57.2031 254.813 56.9475 254.579C56.6355 254.278 56.288 254.002 55.9097 253.754C55.5377 253.517 55.0945 253.362 54.624 253.304C54.26 253.267 54.0277 253.304 54.0044 253.267C53.9812 253.23 54.2058 253.101 54.6318 253.076C55.1939 253.067 55.7423 253.215 56.1808 253.495C56.5915 253.761 56.938 254.085 57.2031 254.45C57.3812 254.721 57.4742 254.899 57.4277 254.924Z" fill="#263238"/>
<path d="M66.0324 252.984C66.0867 253.058 65.8853 253.242 65.5445 253.341C65.2037 253.44 64.9017 253.403 64.8862 253.341C64.8707 253.279 65.1108 253.15 65.4051 253.064C65.6994 252.978 65.9705 252.91 66.0324 252.984Z" fill="#263238"/>
<path d="M65.8474 252.472C65.8474 252.565 65.5376 252.639 65.1349 252.645C64.7322 252.651 64.4146 252.577 64.4224 252.491C64.4301 252.405 64.7477 252.325 65.1349 252.318C65.5222 252.312 65.8319 252.386 65.8474 252.472Z" fill="#263238"/>
<path d="M95.022 252.897V247.631L83.1491 247.563L83.0485 255.448L83.7842 255.491C87.0603 255.657 100.459 255.983 102.651 255.441C105.098 254.838 95.022 252.897 95.022 252.897Z" fill="#3A94E7"/>
<path d="M102.929 254.961C102.929 255.047 98.4912 255.121 93.0078 255.121C87.5244 255.121 83.0944 255.047 83.0944 254.961C83.0944 254.875 87.5322 254.801 93.0078 254.801C98.4834 254.801 102.929 254.875 102.929 254.961Z" fill="#263238"/>
<path d="M95.2314 253.975C95.1385 253.932 95.2314 253.655 95.4715 253.359C95.7116 253.064 96.0369 252.941 96.1143 253.002C96.1918 253.064 96.0291 253.298 95.7968 253.55C95.5644 253.803 95.3321 254.018 95.2314 253.975Z" fill="#263238"/>
<path d="M95.9909 254.32C95.8902 254.32 95.9366 253.975 96.1767 253.649C96.4168 253.322 96.7189 253.125 96.8041 253.175C96.8893 253.224 96.7421 253.501 96.5253 253.791C96.3084 254.08 96.0993 254.351 95.9909 254.32Z" fill="#263238"/>
<path d="M86.6651 254.924C86.6186 254.924 86.4483 254.813 86.1849 254.579C85.8729 254.278 85.5254 254.002 85.1471 253.754C84.7751 253.517 84.3319 253.362 83.8615 253.304C83.5052 253.267 83.2651 253.304 83.2419 253.267C83.2186 253.23 83.4432 253.101 83.8692 253.076C84.4314 253.067 84.9798 253.215 85.4182 253.495C85.8311 253.759 86.1779 254.083 86.4405 254.45C86.6186 254.721 86.7116 254.899 86.6651 254.924Z" fill="#263238"/>
<path d="M95.271 252.984C95.3252 253.058 95.1238 253.242 94.783 253.341C94.4423 253.44 94.1402 253.403 94.1247 253.341C94.1092 253.279 94.3493 253.15 94.6436 253.064C94.9379 252.978 95.209 252.91 95.271 252.984Z" fill="#263238"/>
<path d="M95.0998 252.472C95.0998 252.565 94.79 252.639 94.3873 252.645C93.9846 252.651 93.6748 252.577 93.6825 252.491C93.6903 252.405 94.0001 252.325 94.3873 252.318C94.7745 252.312 95.0998 252.386 95.0998 252.472Z" fill="#263238"/>
<path d="M138.766 96.5025C138.456 96.25 137.689 96.3732 137.689 96.3732C137.766 96.0185 137.766 95.656 137.689 95.3014C137.55 94.9564 136.574 95.0242 136.574 95.0242C136.529 94.7337 136.529 94.44 136.574 94.1495C136.582 94.0851 136.564 94.0204 136.524 93.9642C136.484 93.908 136.423 93.863 136.349 93.8354C135.887 93.6856 135.392 93.6143 134.893 93.6259C134.297 93.2872 136.713 90.5954 137.612 89.733C138.51 88.8706 138.347 88.1992 137.55 88.1992C137 88.1992 134.181 90.7863 133.313 91.6548C132.446 92.5234 130.145 94.938 130.068 93.01C129.991 91.082 129.015 89.6283 128.403 89.3819C127.791 89.1355 127.14 89.7145 127.474 90.2504C127.766 90.8592 127.949 91.498 128.016 92.1476C128.1 92.6651 128.071 93.1902 127.93 93.6999C127.674 94.6482 127.324 95.5791 126.885 96.484H126.823C126.823 96.484 109.924 109.376 108.7 110.294C107.608 111.119 85.6434 109.315 81.2366 108.945C79.7391 108.771 78.2269 108.688 76.7135 108.699C74.8006 108.766 74.4598 108.982 72.5545 109.001C67.743 109.043 62.9426 109.379 58.1955 110.005C56.046 110.295 54.0382 111.05 52.3911 112.186C50.744 113.322 49.5209 114.796 48.8552 116.448C44.4174 127.474 34.3645 153.572 32.5909 168.232C31.2507 170.165 30.0408 172.153 28.9663 174.189C27.7194 176.887 28.0215 176.979 28.4397 177.041C29.5704 177.207 30.8561 172.365 31.3363 173.536C31.8165 174.706 28.8966 179.307 30.0816 179.443C31.6306 179.615 32.862 174.515 33.0092 174.109C33.1563 173.702 33.9231 173.831 33.7837 174.213C33.5591 174.755 31.3827 180.502 32.9007 180.687C33.7372 180.786 33.8301 179.572 33.8301 179.572C33.8301 179.572 35.3791 174.072 36.0839 174.183C36.7887 174.293 36.0374 177.54 35.6812 178.624C35.3249 179.708 35.8206 180.256 36.5486 179.991C37.0442 179.806 38.2292 176.511 38.5545 175.439C38.8798 174.367 39.693 171.398 40.785 173.117C41.8771 174.835 43.5345 175.833 44.216 175.858C44.3696 175.844 44.5144 175.794 44.6317 175.714C44.749 175.633 44.8335 175.527 44.8743 175.409C44.9151 175.29 44.9104 175.165 44.8607 175.048C44.811 174.932 44.7187 174.83 44.5955 174.755C44.0093 174.3 43.5062 173.782 43.1008 173.215C42.7395 172.774 42.4774 172.287 42.3263 171.774C42.0142 170.752 41.8325 169.708 41.7841 168.657L41.6602 168.041C43.3951 161.21 48.3905 141.16 55.601 128.354L58.5595 133.196L59.8452 136.781L51.9609 152.26L85.5892 151.909L80.5705 136.547L86.6657 120.532C93.2566 120.649 110.179 120.846 112.998 119.829C116.545 118.597 134.893 100.168 134.893 100.168C136.089 99.4284 137.234 98.6389 138.324 97.8022C138.324 97.8022 139.439 97.0569 138.766 96.5025Z" fill="#FFBE9D"/>
<path d="M50.4817 140.822C51.4576 138.173 56.4685 125.077 56.4685 125.077C56.4685 125.077 58.9314 135.752 58.2808 137.04C57.6824 138.142 56.9754 139.204 56.1664 140.218C50.4817 147.098 51.2252 150.542 51.2252 150.542L85.5738 149.71C85.6512 145.891 82.8088 137.009 82.2202 135.592C81.6316 134.175 83.5911 129.537 83.5911 129.537C83.5911 129.537 87.4635 126.402 87.3241 124.788C87.2506 123.338 87.0252 121.896 86.6503 120.476L107.562 121.092L106.903 109.82L76.8685 107.43C75.823 109.777 66.3665 108.625 66.3665 108.625C56.1587 108.896 55.5236 110.387 51.2794 113.011C47.0352 115.635 40.0106 138.154 40.0106 138.154L50.4817 140.822Z" fill="#3A94E7"/>
<path d="M70.7882 138.154C70.193 138.239 69.5867 138.264 68.9837 138.228C67.8607 138.228 66.3194 138.167 64.6233 138.031C62.9272 137.896 61.3937 137.705 60.3017 137.532C59.6995 137.471 59.1091 137.351 58.5436 137.175C59.1491 137.175 59.7533 137.221 60.3481 137.311C61.4479 137.421 62.9736 137.575 64.662 137.711C66.3504 137.846 67.8839 137.939 68.9914 138C69.5951 138.007 70.1968 138.058 70.7882 138.154Z" fill="#263238"/>
<path d="M73.1429 135.832C72.5475 136.064 71.9178 136.236 71.2687 136.344C68.1787 136.989 64.9908 137.29 61.7967 137.237C61.1357 137.254 60.4747 137.204 59.8295 137.089C60.4818 137.023 61.1393 136.997 61.7967 137.009C63.0126 136.978 64.6855 136.91 66.5288 136.738C68.3721 136.565 70.014 136.319 71.1757 136.122C71.821 135.985 72.4787 135.888 73.1429 135.832Z" fill="#263238"/>
<path d="M84.6978 125.472C84.6821 125.941 84.6016 126.408 84.4577 126.864C84.2563 127.72 83.9465 128.89 83.5515 130.172C83.1565 131.453 82.777 132.635 82.4363 133.436C82.2992 133.895 82.0965 134.339 81.8322 134.761C81.8753 134.292 81.9844 133.83 82.1574 133.381C82.4517 132.42 82.7848 131.311 83.1565 130.098C83.5283 128.884 83.8845 127.775 84.1789 126.815C84.2837 126.352 84.4579 125.901 84.6978 125.472Z" fill="#263238"/>
<path d="M50.8443 139.251C49.0526 139.031 47.2843 138.703 45.5545 138.271C43.7871 137.943 42.0526 137.51 40.3655 136.978C42.1563 137.202 43.9243 137.529 45.6552 137.957C47.4231 138.285 49.1577 138.717 50.8443 139.251Z" fill="#263238"/>
<path d="M87.0213 120.341C86.7291 120.381 86.4305 120.381 86.1383 120.341C85.3294 120.275 84.535 120.123 83.7761 119.891C82.5092 119.512 81.3558 118.927 80.3901 118.173C79.4244 117.419 78.6678 116.512 78.1688 115.511C77.6173 114.411 77.3818 113.226 77.4796 112.043C77.5141 111.068 77.8808 110.119 78.5406 109.296C79.0047 108.742 79.6979 108.335 80.5001 108.144C80.7144 108.097 80.936 108.075 81.1584 108.077C81.3133 108.077 81.3907 108.077 81.3907 108.077C81.3907 108.077 81.0654 108.077 80.5465 108.243C79.8106 108.459 79.1864 108.865 78.7729 109.395C77.7196 110.713 77.4253 113.121 78.5483 115.37C79.071 116.43 79.8893 117.382 80.9415 118.154C81.8037 118.786 82.7968 119.294 83.8768 119.657C84.8904 119.975 85.9449 120.205 87.0213 120.341Z" fill="#263238"/>
<path d="M105.075 120.87C104.881 118.981 104.819 117.085 104.889 115.191C104.828 113.298 104.9 111.404 105.105 109.518C105.299 111.405 105.361 113.299 105.291 115.191C105.356 117.086 105.284 118.982 105.075 120.87Z" fill="#263238"/>
<path d="M76.6663 108.12C76.7515 106.746 76.9296 105.194 76.9296 105.194C76.9296 105.194 81.2048 104.818 81.4604 101.307C81.7159 97.7961 81.4604 89.6961 81.4604 89.6961L73.7155 86.5423L65.1187 91.9198L66.443 109.475L74.3273 109.875C74.93 109.889 75.5147 109.711 75.9531 109.382C76.3916 109.053 76.6481 108.599 76.6663 108.12Z" fill="#FFBE9D"/>
<path d="M77.4334 98.5291C77.4334 98.5291 77.4334 98.5968 77.3637 98.6769C77.3061 98.735 77.2316 98.781 77.1466 98.8111C77.0615 98.8411 76.9686 98.8543 76.8758 98.8494C76.3801 98.8494 75.8999 98.3936 75.7296 97.8638C75.6486 97.607 75.6486 97.3383 75.7296 97.0815C75.7455 96.9695 75.7963 96.8623 75.8774 96.7698C75.9586 96.6773 76.0675 96.6024 76.1942 96.5518C76.2984 96.5176 76.4154 96.5176 76.5195 96.5518C76.5968 96.5823 76.6593 96.6321 76.6977 96.6935C76.7519 96.7982 76.6977 96.866 76.6977 96.8598C76.6977 96.8536 76.6977 96.7982 76.6202 96.7366C76.5797 96.6925 76.5202 96.6618 76.453 96.6504C76.3859 96.6391 76.3158 96.6478 76.2562 96.675C76.1612 96.7207 76.0823 96.7847 76.0268 96.8612C75.9712 96.9377 75.9409 97.0241 75.9387 97.1123C75.8735 97.3415 75.8735 97.5793 75.9387 97.8084C76.0936 98.2888 76.5118 98.6769 76.8835 98.7139C76.9563 98.7217 77.0303 98.7176 77.1009 98.7017C77.1715 98.6858 77.2372 98.6585 77.294 98.6215C77.387 98.5722 77.4179 98.5229 77.4334 98.5291Z" fill="#EB996E"/>
<path d="M84.1166 87.7989C83.5203 86.1851 81.3595 85.3843 79.3923 84.9408C76.395 84.2633 73.1576 83.9676 70.2301 84.8238C67.3025 85.68 63.7863 87.183 63.7863 89.7516C62.0592 89.6407 61.0678 90.8418 60.3863 92.3325C59.9506 93.2406 59.6895 94.1959 59.6118 95.1659C59.395 98.5291 58.21 103.174 55.4683 105.637C53.9193 107.011 51.774 107.96 50.8911 109.672C50.1166 111.157 50.5193 112.918 49.799 114.421C49.1562 115.746 47.7389 116.688 46.7011 117.84C45.6438 119.147 45.0215 120.646 44.8928 122.196C44.7641 123.747 45.1332 125.298 45.9653 126.704C46.8035 128.073 47.9835 129.293 49.4335 130.289C50.8835 131.284 52.5732 132.034 54.3995 132.494C58.0172 133.369 61.875 133.399 65.5134 132.58C68.2441 132.061 70.7913 131.056 72.964 129.642C75.187 128.198 76.7139 126.187 77.2856 123.95C77.8355 121.437 76.9526 118.881 76.2943 116.38C74.2342 108.477 74.8228 108.064 77.425 100.728C77.487 100.599 77.518 100.463 77.5645 100.334C77.6109 100.205 77.6342 100.143 77.6651 100.044C77.7391 99.7544 77.778 99.4595 77.7813 99.1636C77.4012 99.276 76.9887 99.2998 76.5922 99.2321C76.1957 99.1645 75.8317 99.0082 75.543 98.7817C75.2537 98.5402 75.052 98.2409 74.9593 97.9155C74.8665 97.5902 74.8863 97.2509 75.0164 96.9338C75.1991 96.5869 75.4714 96.2745 75.8156 96.0166C76.1598 95.7588 76.5683 95.5613 77.0146 95.437C77.8742 95.1536 78.7959 95.0058 79.6401 94.6916C81.4291 94.0141 82.6683 92.6097 83.5125 91.1375C84.2066 90.1172 84.4208 88.9335 84.1166 87.7989Z" fill="#263238"/>
<path d="M77.7427 98.6954C77.9064 98.8877 78.0415 99.0944 78.1455 99.3114C78.3778 99.6995 78.6876 100.248 79.0284 100.882L79.0904 100.999H78.9277L78.1532 101.055C77.6188 101.055 77.1696 101.135 76.643 101.129C76.5971 101.12 76.5546 101.103 76.5194 101.078C76.4842 101.054 76.4574 101.022 76.4416 100.987C76.4186 100.931 76.4186 100.87 76.4416 100.814C76.4595 100.731 76.4828 100.649 76.5113 100.568L76.6507 100.131C76.7208 99.8389 76.8298 99.5539 76.976 99.2806C76.9616 99.578 76.9071 99.8733 76.8134 100.161L76.7049 100.599C76.6662 100.747 76.5965 100.975 76.7049 100.956C77.0922 100.956 77.6421 100.888 78.1532 100.864L78.9277 100.808L78.827 100.944C78.494 100.328 78.2152 99.7488 78.0525 99.3484C77.9099 99.1439 77.8055 98.9239 77.7427 98.6954Z" fill="#3A94E7"/>
<path d="M51.2244 150.542L85.5729 149.71L100.521 196.117L97.7711 249.349H79.6094L81.8321 197.251L68.5497 164.943L70.5943 251.413L52.2389 251.629L50.3105 170.351C50.2253 168.091 49.2959 162.997 49.6444 160.754L51.2244 150.542Z" fill="#263238"/>
<path d="M73.1195 165.602C72.5573 165.63 71.9928 165.603 71.4389 165.522C70.4011 165.424 68.9837 165.251 67.427 165.005C65.8703 164.758 64.4762 164.475 63.4694 164.247C62.9312 164.153 62.4105 164.004 61.9204 163.804C61.9204 163.711 64.4452 164.192 67.5432 164.691C70.6411 165.189 73.135 165.51 73.1195 165.602Z" fill="#455A64"/>
<path d="M97.5848 246.43C97.5848 246.516 93.4723 246.59 88.3994 246.59C83.3265 246.59 79.2062 246.516 79.2062 246.43C79.2062 246.343 83.3187 246.27 88.3994 246.27C93.48 246.27 97.5848 246.337 97.5848 246.43Z" fill="#455A64"/>
<path d="M70.4322 249.165C70.4322 249.257 66.4358 249.325 61.5101 249.325C56.5843 249.325 52.5957 249.257 52.5957 249.165C52.5957 249.072 56.5921 249.004 61.5101 249.004C66.4281 249.004 70.4322 249.078 70.4322 249.165Z" fill="#455A64"/>
<path d="M68.0625 248.943C67.9541 248.943 67.4739 230.051 66.986 206.749C66.498 183.447 66.2115 164.543 66.3122 164.543C66.4129 164.543 66.9085 183.428 67.3887 206.743C67.8689 230.057 68.1787 248.943 68.0625 248.943Z" fill="#455A64"/>
<path d="M95.1453 246.43C95.1368 246.346 95.1368 246.261 95.1453 246.177V245.438C95.1453 244.773 95.2073 243.818 95.2537 242.605C95.3621 240.141 95.517 236.562 95.7107 232.176C96.1289 223.356 96.7175 211.196 97.3603 197.774C97.3603 197.645 97.3603 197.522 97.3603 197.411V197.454C93.2943 184.519 89.6154 172.778 86.9435 164.284L83.8455 154.237C83.4892 153.061 83.2182 152.143 83.0246 151.503C82.9316 151.201 82.8697 150.967 82.8154 150.788C82.7853 150.708 82.7671 150.625 82.7612 150.542C82.8015 150.619 82.8326 150.7 82.8542 150.782C82.9161 150.954 82.9936 151.188 83.102 151.484C83.3111 152.1 83.6132 153.036 84.0004 154.207C84.7749 156.584 85.8669 160.009 87.23 164.229C89.9252 172.717 93.6428 184.426 97.7631 197.38V197.423C97.7631 197.534 97.7631 197.663 97.7631 197.787C97.0738 211.209 96.4464 223.362 95.9895 232.182C95.7494 236.574 95.548 240.128 95.4086 242.605C95.3312 243.837 95.2692 244.773 95.2305 245.438C95.2305 245.752 95.184 245.999 95.1763 246.177C95.1774 246.262 95.167 246.347 95.1453 246.43Z" fill="#455A64"/>
<path d="M89.221 196.327C87.9164 196.668 86.5726 196.905 85.2091 197.035C83.5362 197.263 82.1112 197.423 81.4683 197.448V197.325C81.6774 197.374 81.7859 197.405 81.7859 197.429C81.7859 197.454 81.6542 197.429 81.4374 197.429H80.9727L81.4374 197.318C82.0415 197.177 83.4665 196.943 85.1394 196.702C86.4811 196.471 87.8482 196.345 89.221 196.327Z" fill="#455A64"/>
<path d="M88.904 198.095C87.696 198.139 86.4854 198.095 85.2872 197.965C84.0774 197.946 82.8722 197.84 81.6858 197.651C84.1062 197.494 86.5427 197.644 88.904 198.095Z" fill="#455A64"/>
<path opacity="0.2" d="M51.0786 151.521C51.4854 151.936 51.9978 152.279 52.5823 152.526C53.1668 152.774 53.8103 152.92 54.4709 152.956C55.8542 153.087 57.2536 153.066 58.6299 152.895C67.4978 152.112 76.8923 151.392 85.5743 149.71C74.3365 150.209 62.4636 150.043 51.2258 150.542L51.1096 151.305" fill="black"/>
<g opacity="0.2">
<path d="M62.6562 164.118L68.9916 183.669L68.5501 164.943L62.6562 164.118Z" fill="black"/>
</g>
</svg>
