<svg width="375" height="812" viewBox="0 0 375 812" fill="none" xmlns="http://www.w3.org/2000/svg">
<rect width="375" height="812" rx="10" fill="#F5F3F1"/>
<path d="M210.541 415.456C209.354 414.468 208.4 413.231 207.745 411.833C207.09 410.435 206.75 408.91 206.75 407.366V406.156H188V407.366C188 408.91 187.66 410.435 187.005 411.833C186.35 413.231 185.396 414.468 184.209 415.456L191.125 422.375H203.625L210.541 415.456Z" fill="#F1B79D"/>
<path d="M210.542 415.456C209.425 414.523 208.513 413.368 207.865 412.065C207.217 410.761 206.847 409.337 206.778 407.883C206.573 408.008 206.372 408.138 206.153 408.255C203.845 409.544 201.281 410.307 198.643 410.489C196.006 410.671 193.361 410.266 190.898 409.305C190.8 409.266 190.694 409.249 190.588 409.255C190.482 409.261 190.379 409.29 190.285 409.341C190.192 409.391 190.11 409.46 190.046 409.545C189.983 409.63 189.938 409.728 189.916 409.831L189.897 409.906C189.514 411.31 188.841 412.618 187.923 413.746C187.004 414.875 185.859 415.798 184.562 416.458L183 417.288L187.475 423.545L191.586 424.23C191.586 424.23 194.719 423.175 196.556 422.375H203.625L210.542 415.456Z" fill="#F1B79D"/>
<path d="M220.813 360.772V364.452C220.814 370.614 220.449 376.77 219.719 382.889H175.031C174.301 376.77 173.936 370.614 173.938 364.452V363.034L220.813 360.772Z" fill="#4C4C4C"/>
<path d="M178.625 381.75C176.967 381.75 175.378 382.408 174.206 383.581C173.033 384.753 172.375 386.342 172.375 388C172.375 389.658 173.033 391.247 174.206 392.419C175.378 393.592 176.967 394.25 178.625 394.25H179.2M216.125 381.75C217.783 381.75 219.372 382.408 220.544 383.581C221.717 384.753 222.375 386.342 222.375 388C222.375 389.658 221.717 391.247 220.544 392.419C219.372 393.592 217.783 394.25 216.125 394.25H215.55" fill="#F1B79D"/>
<path d="M213.937 368L214.031 368.189C215.408 370.944 216.125 373.982 216.125 377.063V389.563C216.125 393.018 215.201 396.41 213.449 399.388C211.696 402.365 209.18 404.82 206.159 406.498C203.473 407.994 200.45 408.779 197.375 408.781C194.301 408.781 191.278 407.998 188.591 406.505C185.569 404.826 183.052 402.37 181.3 399.391C179.548 396.412 178.624 393.019 178.625 389.563V377.063C178.625 373.98 179.343 370.94 180.722 368.183L181.066 367.494" fill="#F1B79D"/>
<path d="M191.716 406.498C193.943 407.724 196.404 408.465 198.938 408.675C201.471 408.465 203.932 407.724 206.159 406.498C209.18 404.82 211.696 402.365 213.449 399.388C215.201 396.41 216.125 393.018 216.125 389.562V377.062C216.125 373.98 215.407 370.94 214.028 368.183L213.937 368L184.17 367.547L183.85 368.189C182.471 370.944 181.752 373.982 181.75 377.062V389.562C181.75 393.018 182.674 396.41 184.426 399.388C186.179 402.365 188.695 404.82 191.716 406.498Z" fill="#F1B79D"/>
<path d="M197.375 403.625C194.889 403.623 192.506 402.634 190.749 400.876C188.991 399.119 188.002 396.736 188 394.25H191.125C191.125 395.908 191.783 397.497 192.956 398.669C194.128 399.842 195.717 400.5 197.375 400.5C199.033 400.5 200.622 399.842 201.794 398.669C202.967 397.497 203.625 395.908 203.625 394.25H206.75C206.748 396.736 205.759 399.119 204.001 400.876C202.244 402.634 199.861 403.623 197.375 403.625Z" fill="#F1B79D"/>
<path d="M176.417 351.316C175.189 352.017 174.169 353.031 173.459 354.254C172.749 355.477 172.375 356.866 172.375 358.28C172.375 359.71 172.757 361.115 173.483 362.348C174.209 363.581 175.251 364.598 176.502 365.292C183.018 368.913 190.35 370.813 197.805 370.812H202.5C206.322 370.812 210.092 369.922 213.511 368.213C216.239 366.849 218.522 364.735 220.091 362.119C221.585 359.627 222.374 356.776 222.375 353.87V350.5L220.325 352.55C219.984 352.891 219.58 353.161 219.134 353.346C218.689 353.53 218.212 353.625 217.73 353.625C215.647 353.625 213.592 353.14 211.73 352.208C205.372 349.03 198.362 347.375 191.255 347.375C186.05 347.375 180.936 348.733 176.417 351.316Z" fill="#212121"/>
<path d="M217.73 353.625C215.647 353.625 213.592 353.14 211.73 352.208C205.372 349.03 198.362 347.375 191.255 347.375C186.089 347.376 181.011 348.716 176.517 351.262C176.003 352.182 175.676 353.194 175.554 354.241C175.432 355.287 175.518 356.348 175.807 357.361C176.096 358.374 176.582 359.32 177.237 360.145C177.893 360.97 178.705 361.657 179.626 362.167C186.143 365.788 193.475 367.688 200.93 367.688H205.625C209.447 367.687 213.217 366.797 216.636 365.088C217.51 364.639 218.341 364.111 219.117 363.509C219.465 363.064 219.79 362.6 220.091 362.12C221.586 359.628 222.375 356.777 222.375 353.87V350.5L220.325 352.55C219.984 352.891 219.58 353.161 219.134 353.346C218.689 353.53 218.212 353.625 217.73 353.625Z" fill="#383838"/>
<path d="M233.312 436.437V430.994C233.31 427.477 231.913 424.105 229.427 421.619C227.874 420.067 225.961 418.924 223.858 418.294L211.438 414.562L210.709 415.289C208.958 417.04 206.88 418.43 204.592 419.377C202.304 420.325 199.851 420.813 197.375 420.812C194.898 420.813 192.445 420.325 190.157 419.377C187.868 418.429 185.789 417.039 184.038 415.288L183.312 414.562L163 419.25V436.508L233.312 436.437Z" fill="#3A94E7"/>
<path d="M233.312 430.994C233.312 428.141 232.392 425.365 230.69 423.076C228.987 420.788 226.592 419.109 223.859 418.289L211.438 414.562L210.709 415.289C208.958 417.04 206.879 418.43 204.591 419.378C202.303 420.325 199.85 420.813 197.373 420.813C194.897 420.813 192.444 420.325 190.156 419.378C187.868 418.43 185.789 417.04 184.038 415.289L183.313 414.562L168.047 418.084C168.858 421.964 170.981 425.447 174.058 427.945C177.136 430.444 180.98 431.806 184.944 431.803L233.312 431.75V430.994Z" fill="#3A94E7"/>
<path d="M183.739 383.781L184.341 382.98L188.277 381.013C191.812 379.245 195.039 376.919 197.833 374.123C198.346 373.612 198.701 372.962 198.854 372.253C199.007 371.544 198.951 370.806 198.695 370.128C198.438 369.45 197.99 368.861 197.406 368.432C196.821 368.002 196.125 367.751 195.402 367.708H194.933C192.071 367.742 189.28 368.603 186.897 370.188L185.803 370.92L181.663 371.955L181.452 367.494H181.072L180.728 368.183C179.347 370.939 178.627 373.979 178.625 377.063V388.519C180.598 387.256 182.329 385.652 183.739 383.781Z" fill="#B77968"/>
<path d="M181.452 367.647V367.498H181.106C181.217 367.542 181.333 367.6 181.452 367.647Z" fill="#212121"/>
<path d="M187.855 369.648C191.116 370.415 194.455 370.805 197.805 370.813H198.875C198.727 369.981 198.304 369.224 197.674 368.661C197.045 368.099 196.244 367.764 195.402 367.711H194.933C192.448 367.754 190.015 368.42 187.855 369.648Z" fill="#111111"/>
<path d="M163 419.25L158.312 417.688L172.375 389.562C176.418 388.551 179.99 386.179 182.491 382.844L183.312 381.75L187.577 379.617C190.962 377.925 194.052 375.698 196.728 373.022C197.142 372.607 197.375 372.045 197.375 371.459C197.375 371.169 197.318 370.882 197.207 370.614C197.096 370.346 196.933 370.102 196.728 369.897C196.523 369.692 196.279 369.529 196.011 369.418C195.743 369.307 195.456 369.25 195.166 369.25C192.531 369.25 189.955 370.03 187.763 371.491L186.438 372.375L180.188 373.937L178.767 344.127C178.728 343.315 178.377 342.551 177.788 341.992C177.199 341.432 176.417 341.122 175.605 341.125H175.527C175.113 341.125 174.703 341.206 174.321 341.364C173.938 341.523 173.591 341.755 173.298 342.047C173.005 342.34 172.773 342.687 172.615 343.069C172.457 343.451 172.375 343.861 172.375 344.275V359.875L167.927 361.437C166.49 361.44 165.091 361.895 163.927 362.736C162.762 363.577 161.892 364.762 161.438 366.125H159.875C158.632 366.125 157.44 366.619 156.56 367.498C155.681 368.377 155.188 369.569 155.188 370.812C155.187 372.891 155.392 374.964 155.8 377.002L158.312 389.562L143.781 415.719C143.064 417.009 142.688 418.461 142.688 419.938C142.687 421.598 143.163 423.223 144.057 424.621C144.952 426.02 146.229 427.133 147.736 427.828L163 434.875V419.25Z" fill="#F1B79D"/>
<path d="M193.603 370.812C190.969 370.812 188.394 371.592 186.202 373.053L184.875 373.937L178.625 375.5L177.205 345.689C177.165 344.878 176.815 344.113 176.226 343.554C175.636 342.995 174.854 342.685 174.042 342.687H173.964C173.515 342.689 173.071 342.787 172.663 342.975C172.475 343.383 172.377 343.826 172.375 344.275V359.875L167.927 361.437C166.49 361.44 165.091 361.895 163.927 362.736C162.762 363.577 161.892 364.762 161.438 366.125H159.875C158.632 366.125 157.44 366.619 156.561 367.498C155.681 368.377 155.188 369.569 155.188 370.812C155.187 372.891 155.392 374.964 155.8 377.002L158.313 389.562L143.781 415.719C143.201 416.764 142.842 417.918 142.728 419.108C142.613 420.299 142.746 421.5 143.117 422.637C143.488 423.774 144.09 424.822 144.885 425.715C145.68 426.609 146.65 427.328 147.736 427.83L163 434.875V419.25L158.313 417.688L172.375 389.562C176.419 388.551 179.991 386.179 182.491 382.844L183.313 381.75L187.577 379.617C190.406 378.194 193.03 376.395 195.377 374.269C195.648 373.907 195.8 373.47 195.813 373.019C195.812 372.433 195.579 371.872 195.164 371.459C194.75 371.045 194.189 370.812 193.603 370.812Z" fill="#F1B79D"/>
<path d="M162.531 376.92C162.38 377.012 162.207 377.062 162.03 377.063C161.732 377.063 161.441 376.969 161.199 376.795C160.957 376.62 160.777 376.374 160.683 376.091L159.8 373.444L156.831 374.431L157.714 377.088C158.017 377.991 158.596 378.776 159.37 379.333C160.143 379.889 161.072 380.188 162.025 380.188C162.839 380.184 163.633 379.937 164.305 379.477C164.758 379.782 165.268 379.996 165.804 380.104C166.341 380.213 166.893 380.215 167.43 380.109C167.967 380.004 168.478 379.795 168.934 379.492C169.389 379.189 169.781 378.8 170.086 378.345C170.567 378.531 171.078 378.626 171.594 378.625C172.621 378.623 173.613 378.247 174.383 377.568C175.154 376.888 175.65 375.951 175.78 374.931L176.8 366.761C176.974 365.361 177.062 363.952 177.063 362.542H173.938C173.936 363.823 173.857 365.102 173.7 366.373L172.678 374.544C172.644 374.807 172.514 375.048 172.315 375.223C172.115 375.398 171.859 375.495 171.594 375.495C171.328 375.495 171.072 375.398 170.873 375.223C170.673 375.048 170.544 374.807 170.509 374.544L169.488 366.373C169.33 365.102 169.251 363.823 169.25 362.542V360.98L167.927 361.448C167.318 361.452 166.712 361.536 166.125 361.7V362.542C166.126 363.952 166.214 365.361 166.388 366.761L167.408 374.931C167.457 375.283 167.551 375.627 167.688 375.955V375.992C167.688 376.254 167.593 376.507 167.42 376.703C167.247 376.899 167.008 377.025 166.748 377.057C166.488 377.089 166.226 377.025 166.01 376.876C165.795 376.728 165.641 376.506 165.578 376.252L162.953 365.747L159.922 366.503L162.531 376.92Z" fill="#F1B79D"/>
<path d="M230.533 420.511C228.796 418.777 226.658 417.5 224.308 416.792L211.888 413.066C211.664 413 211.429 412.986 211.199 413.024C210.969 413.062 210.751 413.152 210.561 413.286C209.116 411.656 208.316 409.554 208.313 407.375V407.017C212.336 404.348 215.312 400.37 216.739 395.758C218.258 395.649 219.711 395.094 220.917 394.165C222.123 393.235 223.029 391.971 223.521 390.53C224.013 389.089 224.07 387.535 223.685 386.061C223.3 384.588 222.489 383.261 221.355 382.245C222.03 376.338 222.371 370.397 222.375 364.452V361.077C223.399 358.812 223.932 356.356 223.938 353.87V350.5C223.937 350.191 223.846 349.889 223.674 349.632C223.502 349.375 223.258 349.175 222.973 349.057C222.687 348.939 222.373 348.908 222.07 348.968C221.767 349.028 221.489 349.177 221.27 349.395L219.22 351.445C218.825 351.839 218.29 352.061 217.731 352.062C215.891 352.061 214.077 351.633 212.43 350.812C205.853 347.533 198.605 345.822 191.256 345.812C187.585 345.819 183.944 346.473 180.5 347.745L180.325 344.052C180.24 342.829 179.688 341.686 178.782 340.86C177.876 340.035 176.687 339.59 175.461 339.619C174.236 339.648 173.069 340.148 172.203 341.016C171.337 341.883 170.839 343.051 170.813 344.277V358.312H170.355C169.799 358.311 169.249 358.42 168.735 358.632C168.222 358.845 167.756 359.157 167.364 359.552C167.252 359.674 167.148 359.804 167.052 359.939C165.642 360.086 164.292 360.586 163.128 361.395C161.964 362.203 161.024 363.293 160.394 364.562H159.875C158.217 364.562 156.628 365.221 155.456 366.393C154.284 367.565 153.625 369.155 153.625 370.812C153.626 372.993 153.842 375.169 154.269 377.308L156.667 389.306L142.416 414.961C141.73 416.194 141.307 417.556 141.172 418.96C141.037 420.365 141.193 421.782 141.631 423.123C142.069 424.465 142.779 425.701 143.717 426.755C144.655 427.81 145.8 428.659 147.081 429.25L161.438 435.875V436.508H164.563V420.5L182.822 416.281L182.934 416.394C186.765 420.223 191.959 422.374 197.375 422.374C202.791 422.374 207.985 420.223 211.816 416.394L211.884 416.327L223.409 419.784C225.264 420.342 226.953 421.35 228.323 422.719C229.414 423.803 230.278 425.093 230.866 426.514C231.454 427.934 231.755 429.458 231.75 430.995V436.438H234.875V430.995C234.881 429.047 234.5 427.118 233.755 425.318C233.009 423.518 231.914 421.884 230.533 420.511ZM214.563 389.562C214.562 392.739 213.712 395.857 212.101 398.594C210.49 401.332 208.177 403.589 205.402 405.133C202.938 406.472 200.178 407.174 197.374 407.174C194.57 407.174 191.81 406.472 189.347 405.133C186.571 403.59 184.257 401.333 182.647 398.595C181.037 395.857 180.187 392.739 180.188 389.562V387.408C181.523 386.358 182.717 385.139 183.739 383.781L184.341 382.98L188.277 381.012C191.812 379.245 195.039 376.919 197.833 374.123C198.31 373.639 198.647 373.035 198.809 372.375H202.502C206.173 372.369 209.802 371.594 213.156 370.102C214.074 372.308 214.551 374.673 214.563 377.062V389.562ZM177.27 392.477C176.188 392.151 175.259 391.445 174.658 390.487C175.483 390.187 176.286 389.832 177.064 389.425V389.562C177.065 390.537 177.134 391.511 177.27 392.477ZM217.484 392.463C217.62 391.502 217.688 390.533 217.688 389.562V383.6C218.618 383.924 219.421 384.535 219.982 385.345C220.543 386.154 220.834 387.121 220.811 388.106C220.788 389.091 220.454 390.043 219.856 390.826C219.258 391.608 218.429 392.182 217.484 392.463ZM217.688 380.344V377.062C217.673 374.152 217.067 371.276 215.908 368.606C217.128 367.81 218.244 366.866 219.23 365.794C219.188 370.717 218.903 375.667 218.388 380.566C218.156 380.489 217.931 380.395 217.688 380.344ZM191.256 348.937C198.12 348.946 204.889 350.544 211.031 353.606C213.113 354.643 215.406 355.184 217.731 355.188C218.839 355.185 219.917 354.834 220.813 354.183C220.756 356.817 219.981 359.386 218.572 361.612C217.162 363.838 215.172 365.637 212.816 366.816C209.612 368.412 206.081 369.246 202.502 369.25H198.206C197.859 368.768 197.402 368.375 196.874 368.103C196.345 367.832 195.76 367.689 195.166 367.687C193.486 367.697 191.82 367.991 190.239 368.559C187.194 368.002 184.219 367.111 181.369 365.903L180.656 351.03C184.021 349.654 187.621 348.944 191.256 348.937ZM185.998 370.791L185.797 370.925L181.656 371.959L181.533 369.35C182.995 369.907 184.486 370.388 185.998 370.791ZM169.573 361.761C169.676 361.658 169.797 361.576 169.932 361.521C170.066 361.465 170.21 361.437 170.355 361.438H172.833C172.978 361.438 173.122 361.466 173.256 361.522C173.39 361.577 173.511 361.658 173.614 361.761C173.717 361.864 173.798 361.985 173.853 362.119C173.909 362.253 173.938 362.397 173.938 362.542C173.936 363.823 173.857 365.102 173.7 366.373L172.678 374.544C172.643 374.807 172.514 375.048 172.315 375.223C172.115 375.398 171.859 375.495 171.594 375.495C171.328 375.495 171.072 375.398 170.873 375.223C170.673 375.048 170.544 374.807 170.509 374.544L169.488 366.373C169.33 365.102 169.251 363.823 169.25 362.542C169.249 362.397 169.278 362.253 169.333 362.119C169.389 361.985 169.47 361.863 169.573 361.761ZM166.15 363.323C166.171 364.473 166.251 365.62 166.388 366.761L167.408 374.931C167.457 375.283 167.551 375.627 167.688 375.955V375.992C167.688 376.254 167.593 376.507 167.42 376.703C167.247 376.899 167.008 377.025 166.748 377.057C166.488 377.089 166.226 377.025 166.01 376.876C165.795 376.728 165.641 376.506 165.578 376.252L163.078 366.252C163.359 365.577 163.777 364.968 164.306 364.464C164.835 363.959 165.463 363.57 166.15 363.322V363.323ZM159.875 367.687H160.219L162.531 376.92C162.38 377.012 162.207 377.062 162.03 377.062C161.732 377.063 161.441 376.969 161.199 376.795C160.957 376.62 160.777 376.374 160.683 376.091L159.8 373.444L156.988 374.381C156.837 373.197 156.758 372.006 156.75 370.812C156.75 369.984 157.079 369.189 157.665 368.603C158.251 368.017 159.046 367.687 159.875 367.687ZM148.391 426.411C147.5 426 146.704 425.409 146.052 424.677C145.4 423.944 144.907 423.084 144.602 422.152C144.298 421.22 144.189 420.235 144.283 419.258C144.377 418.282 144.671 417.336 145.147 416.478L159.678 390.32C159.858 389.996 159.916 389.619 159.844 389.256L157.333 376.695C157.244 376.245 157.2 375.787 157.13 375.334L157.713 377.081C158.014 377.986 158.593 378.773 159.367 379.331C160.141 379.888 161.071 380.188 162.025 380.188C162.839 380.184 163.633 379.937 164.305 379.477C164.758 379.782 165.268 379.996 165.804 380.104C166.341 380.213 166.893 380.215 167.43 380.109C167.967 380.004 168.478 379.795 168.934 379.492C169.389 379.189 169.781 378.8 170.086 378.345C170.567 378.531 171.078 378.626 171.594 378.625C172.621 378.623 173.613 378.247 174.383 377.568C175.154 376.888 175.65 375.951 175.78 374.931L176.8 366.761C176.974 365.361 177.062 363.952 177.063 362.542C177.066 361.614 176.761 360.712 176.195 359.976C175.629 359.241 174.835 358.714 173.938 358.48V344.277C173.948 343.856 174.12 343.456 174.418 343.159C174.716 342.862 175.116 342.691 175.537 342.681C175.957 342.671 176.366 342.824 176.677 343.107C176.988 343.39 177.178 343.782 177.208 344.202L178.625 374.013C178.636 374.243 178.698 374.469 178.807 374.673C178.916 374.876 179.068 375.054 179.254 375.191C179.439 375.329 179.653 375.424 179.88 375.469C180.106 375.515 180.34 375.509 180.564 375.453L186.814 373.891C186.988 373.847 187.154 373.774 187.303 373.675L188.628 372.792C190.563 371.499 192.838 370.81 195.166 370.812C195.294 370.812 195.419 370.85 195.525 370.921C195.632 370.992 195.715 371.093 195.764 371.212C195.813 371.33 195.826 371.46 195.801 371.586C195.776 371.711 195.714 371.827 195.623 371.917C193.065 374.476 190.11 376.604 186.873 378.22L182.609 380.352C182.392 380.46 182.204 380.617 182.058 380.811L181.236 381.905C178.948 384.949 175.685 387.115 171.992 388.042C171.773 388.097 171.569 388.198 171.392 388.339C171.216 388.48 171.073 388.658 170.972 388.859L156.909 416.984C156.808 417.185 156.751 417.405 156.743 417.63C156.735 417.854 156.775 418.078 156.86 418.285C156.946 418.493 157.076 418.68 157.241 418.833C157.405 418.986 157.601 419.101 157.814 419.172L161.438 420.375V432.433L148.391 426.411ZM163.078 417.628L160.519 416.775L172.498 392.813C173.163 393.66 173.997 394.359 174.947 394.867C175.897 395.374 176.942 395.679 178.016 395.761C179.443 400.369 182.418 404.343 186.438 407.011V407.375C186.437 409.555 185.637 411.66 184.191 413.291C184.013 413.168 183.812 413.084 183.601 413.042C183.39 413 183.172 413.002 182.961 413.047L163.078 417.628ZM186.495 415.395C188.177 413.518 189.227 411.159 189.497 408.653C191.976 409.764 194.663 410.338 197.38 410.338C200.097 410.338 202.783 409.764 205.263 408.653C205.532 411.16 206.581 413.518 208.263 415.397C205.183 417.891 201.341 419.252 197.379 419.252C193.417 419.252 189.574 417.889 186.495 415.395Z" fill="black"/>
<path d="M197.375 400.5C195.717 400.5 194.128 399.842 192.956 398.669C191.783 397.497 191.125 395.908 191.125 394.25H188C188 396.736 188.988 399.121 190.746 400.879C192.504 402.637 194.889 403.625 197.375 403.625C199.861 403.625 202.246 402.637 204.004 400.879C205.762 399.121 206.75 396.736 206.75 394.25H203.625C203.625 395.908 202.967 397.497 201.794 398.669C200.622 399.842 199.033 400.5 197.375 400.5Z" fill="black"/>
<path d="M42.6 466.52L44.52 466.04V445.56L42.6 445.08V444.6H59.72V450.36H58.76C58.3547 450.04 58.0027 449.635 57.704 449.144C57.0213 447.992 56.68 446.744 56.68 445.4H49.8V455.48H53.48C53.6293 454.669 53.9067 453.912 54.312 453.208C54.4827 452.888 54.6853 452.579 54.92 452.28H55.88V459.48H54.92C54.6853 459.181 54.4827 458.872 54.312 458.552C53.9067 457.848 53.6293 457.091 53.48 456.28H49.8V466.04L51.72 466.52V467H42.6V466.52ZM65.3313 466.52L67.2513 466.04V445.56L65.3313 445.08V444.6H74.4513V445.08L72.5313 445.56V466.2H79.4113C79.4113 464.856 79.7526 463.608 80.4353 462.456C80.7339 461.965 81.0859 461.56 81.4913 461.24H82.4513V467H65.3313V466.52ZM98.4775 467.48C95.3202 467.48 92.9308 466.744 91.3095 465.272C89.6882 463.779 88.8775 461.688 88.8775 459V445.56L86.9575 445.08V444.6H96.0775V445.08L94.1575 445.56V459C94.1575 461.752 94.5842 463.725 95.4375 464.92C96.2908 466.093 97.5175 466.68 99.1175 466.68C100.099 466.68 101.027 466.371 101.902 465.752C102.798 465.112 103.512 464.216 104.046 463.064C104.6 461.891 104.878 460.536 104.878 459V446.04L102.318 445.08V444.6H108.398V445.08L105.838 446.04V459C105.838 460.728 105.518 462.232 104.878 463.512C104.238 464.792 103.363 465.773 102.254 466.456C101.144 467.139 99.8855 467.48 98.4775 467.48ZM113.356 466.52L115.276 466.04V445.56L113.356 445.08V444.6H130.476V450.36H129.516C129.111 450.04 128.759 449.635 128.46 449.144C127.778 447.992 127.436 446.744 127.436 445.4H120.556V455.48H124.236C124.386 454.669 124.663 453.912 125.068 453.208C125.239 452.888 125.442 452.579 125.676 452.28H126.636V459.48H125.676C125.442 459.181 125.239 458.872 125.068 458.552C124.663 457.848 124.386 457.091 124.236 456.28H120.556V466.2H128.076C128.076 464.856 128.418 463.608 129.1 462.456C129.399 461.965 129.751 461.56 130.156 461.24H131.116V467H113.356V466.52ZM140.061 450.04V465.56L142.621 466.52V467H136.541V466.52L139.101 465.56V445.72L136.861 445.08V444.6H140.221C141.352 444.6 142.237 444.803 142.877 445.208C143.517 445.613 144.125 446.157 144.701 446.84L154.941 458.84V446.04L152.381 445.08V444.6H158.461V445.08L155.901 446.04V467.48H154.941L140.061 450.04ZM168.069 466.52L169.989 466.04V445.4H166.309C166.309 446.701 165.957 447.949 165.253 449.144C164.954 449.635 164.613 450.04 164.229 450.36H163.269V444.6H181.989V450.36H181.029C180.623 450.04 180.271 449.635 179.973 449.144C179.29 447.992 178.949 446.744 178.949 445.4H175.269V466.04L177.189 466.52V467H168.069V466.52Z" fill="#11101F"/>
<path d="M199.75 467V466.52L201.67 466.04V445.56L199.75 445.08V444.6H208.87V445.08L206.95 445.56V455.48H213.83V445.56L211.91 445.08V444.6H221.03V445.08L219.11 445.56V466.04L221.03 466.52V467H211.91V466.52L213.83 466.04V456.28H206.95V466.04L208.87 466.52V467H199.75ZM224.21 466.52L226.77 465.56L235.57 444.28H236.53L245.65 466.04L247.25 466.52V467H243.41C242.301 467 241.394 466.755 240.69 466.264C239.986 465.752 239.463 465.091 239.122 464.28L237.49 460.44H229.842L227.73 465.56L230.13 466.52V467H224.21V466.52ZM230.162 459.64H237.17L233.65 451.224L230.162 459.64ZM254.28 450.04V465.56L256.84 466.52V467H250.76V466.52L253.32 465.56V445.72L251.08 445.08V444.6H254.44C255.571 444.6 256.456 444.803 257.096 445.208C257.736 445.613 258.344 446.157 258.92 446.84L269.16 458.84V446.04L266.6 445.08V444.6H272.68V445.08L270.12 446.04V467.48H269.16L254.28 450.04ZM277.975 466.52L279.895 466.04V445.56L277.975 445.08V444.6H286.135C289.954 444.6 292.876 445.581 294.903 447.544C296.951 449.507 297.975 452.259 297.975 455.8C297.975 459.341 296.951 462.093 294.903 464.056C292.876 466.019 289.954 467 286.135 467H277.975V466.52ZM286.135 466.2C288.119 466.2 289.655 465.4 290.743 463.8C291.831 462.179 292.375 459.512 292.375 455.8C292.375 452.088 291.831 449.432 290.743 447.832C289.655 446.211 288.119 445.4 286.135 445.4H285.175V466.2H286.135ZM311.89 467.48C310.375 467.48 308.957 467.139 307.634 466.456C307.037 466.157 306.535 465.805 306.13 465.4C305.831 465.891 305.458 466.328 305.01 466.712C304.626 466.989 304.413 467.139 304.37 467.16H303.57V461.08H304.85C305.17 462.125 305.618 463.064 306.194 463.896C307.495 465.752 309.181 466.68 311.25 466.68C312.466 466.68 313.437 466.317 314.162 465.592C314.887 464.867 315.25 463.896 315.25 462.68C315.25 461.976 315.037 461.347 314.61 460.792C314.205 460.237 313.693 459.747 313.074 459.32C312.455 458.893 311.591 458.36 310.482 457.72C309.074 456.931 307.933 456.216 307.058 455.576C306.183 454.936 305.437 454.136 304.818 453.176C304.199 452.195 303.89 451.043 303.89 449.72C303.89 448.675 304.178 447.736 304.754 446.904C305.351 446.051 306.237 445.379 307.41 444.888C308.583 444.376 310.023 444.12 311.73 444.12C312.967 444.12 314.205 444.472 315.442 445.176C315.911 445.432 316.381 445.773 316.85 446.2C317.213 445.645 317.586 445.208 317.97 444.888C318.354 444.611 318.567 444.461 318.61 444.44H319.41V450.52H318.13C317.853 449.496 317.437 448.568 316.882 447.736C316.37 446.925 315.73 446.253 314.962 445.72C314.215 445.187 313.351 444.92 312.37 444.92C311.538 444.92 310.823 445.251 310.226 445.912C309.629 446.573 309.33 447.416 309.33 448.44C309.33 449.229 309.554 449.944 310.002 450.584C310.471 451.203 311.037 451.747 311.698 452.216C312.381 452.685 313.298 453.251 314.45 453.912C315.794 454.68 316.882 455.363 317.714 455.96C318.546 456.557 319.25 457.304 319.826 458.2C320.402 459.075 320.69 460.088 320.69 461.24C320.69 462.392 320.359 463.448 319.698 464.408C319.037 465.347 318.045 466.093 316.722 466.648C315.399 467.203 313.789 467.48 311.89 467.48Z" fill="#3A94E7"/>
</svg>
